<svg id="Layer_1" data-name="Layer 1" xmlns="http://www.w3.org/2000/svg" viewBox="0 0 131.67 21.53"><defs><style>.cls-1{fill:#14213d;}.cls-2{fill:#c00000;}</style></defs><title>keet-textsvg</title><path class="cls-1" d="M57.87,0a.62.62,0,0,1,.71.68V3.6a.62.62,0,0,1-.71.68H44.43a8.33,8.33,0,0,0-2,.2,2.73,2.73,0,0,0-1.26.67,2.55,2.55,0,0,0-.66,1.3,8.78,8.78,0,0,0-.19,2v.31H57.72a.59.59,0,0,1,.67.67v2.43a.6.6,0,0,1-.67.68H40.34v.52a8.94,8.94,0,0,0,.19,2,2.56,2.56,0,0,0,.66,1.29,2.64,2.64,0,0,0,1.26.67,7.84,7.84,0,0,0,2,.2H57.87a.62.62,0,0,1,.71.68v2.92a.62.62,0,0,1-.71.68H44.34a15.64,15.64,0,0,1-4-.43,6.21,6.21,0,0,1-2.66-1.4,5.69,5.69,0,0,1-1.5-2.52,12.9,12.9,0,0,1-.48-3.77V8.12a12.76,12.76,0,0,1,.48-3.75,5.71,5.71,0,0,1,1.5-2.51A6.33,6.33,0,0,1,40.37.45a15.13,15.13,0,0,1,4-.45Z"/><path class="cls-1" d="M93.13,0a.61.61,0,0,1,.7.68V3.6a.61.61,0,0,1-.7.68H79.69a8.48,8.48,0,0,0-2,.2,2.73,2.73,0,0,0-1.26.67,2.72,2.72,0,0,0-.66,1.3,9.46,9.46,0,0,0-.18,2v.31H93a.6.6,0,0,1,.68.67v2.43a.6.6,0,0,1-.68.68H75.6v.52a9.63,9.63,0,0,0,.18,2,2.73,2.73,0,0,0,.66,1.29,2.64,2.64,0,0,0,1.26.67,8,8,0,0,0,2,.2H93.13a.61.61,0,0,1,.7.68v2.92a.61.61,0,0,1-.7.68H79.6a15.59,15.59,0,0,1-4-.43A6.15,6.15,0,0,1,73,19.7a5.7,5.7,0,0,1-1.51-2.52A12.93,12.93,0,0,1,71,13.41V8.12a12.78,12.78,0,0,1,.47-3.75A5.72,5.72,0,0,1,73,1.86,6.27,6.27,0,0,1,75.63.45a15.07,15.07,0,0,1,4-.45Z"/><path class="cls-1" d="M131,0c.48,0,.71.23.71.68v3a.62.62,0,0,1-.71.71h-9.65V20.85a.6.6,0,0,1-.68.68h-3.35a.6.6,0,0,1-.68-.68V4.4H107a.63.63,0,0,1-.71-.71v-3A.62.62,0,0,1,107,0Z"/><path class="cls-1" d="M4,0H.71A.62.62,0,0,0,0,.68V20.85a.62.62,0,0,0,.71.68H4a.6.6,0,0,0,.68-.68V.68A.6.6,0,0,0,4,0Z"/><path class="cls-2" d="M23.21,20.73l-7.49-8a10.18,10.18,0,0,0-2.78-2.21,11,11,0,0,0,1-.86c.35-.33.74-.73,1.15-1.2L22.22.74a.48.48,0,0,0,.1-.47C22.26.09,22.07,0,21.74,0H17.22a1.54,1.54,0,0,0-.7.1,1.19,1.19,0,0,0-.36.3L9.87,7.48c-1,1.21-1.85,2.21-2.6,3L17,21.13a1.41,1.41,0,0,0,.37.31,1.59,1.59,0,0,0,.65.09h4.68c.37,0,.56-.11.58-.32A.58.58,0,0,0,23.21,20.73Z"/></svg>