M48
;Layer_Color=9474304
;FILE_FORMAT=2:5
INCH,LZ
;TYPE=PLATED
T1F00S00C0.01181
T2F00S00C0.03543
T3F00S00C0.05315
T4F00S00C0.11811
T5F00S00C0.19685
%
T01
X0191Y00845
Y009325
Y0102
T02
X00455Y00265
Y00365
Y00465
Y00565
Y00665
Y00765
X0079
Y00665
Y00565
Y00465
Y00365
Y00265
X00755Y01135
X00655
X00555
X00455
X00355
X00255
X00205Y00895
Y00595
X0007Y0066
X00855Y01135
X00955
X01055
X01155
X01255
X01355
X01455
X01555
X01655
Y01735
X01555
X01455
X01355
X01255
X01155
X01055
X00955
X00855
X00755
X00655
X00555
X00455
X00355
X00255
X0019876Y0188898
T03
X00155Y00545
Y00645
X00255
Y00745
X00155
Y00845
X00255
Y00945
X00155
X00255Y00545
T04
X0072Y01895
T05
X002139Y0018098
X018239
Y0182098
M30
