%TF.GenerationSoftware,Altium Limited,Altium Designer,20.2.5 (213)*%
G04 Layer_Color=255*
%FSLAX25Y25*%
%MOIN*%
%TF.SameCoordinates,03ADE540-DEBB-48E1-BD2F-024036EB756D*%
%TF.FilePolarity,Positive*%
%TF.FileFunction,Pads,Bot*%
%TF.Part,Single*%
G01*
G75*
%TA.AperFunction,ComponentPad*%
%ADD16R,0.05906X0.05906*%
%ADD17C,0.05906*%
%ADD18R,0.05906X0.05906*%
%ADD19C,0.06000*%
D16*
X25500Y113500D02*
D03*
Y173500D02*
D03*
D17*
X35500Y113500D02*
D03*
X45500D02*
D03*
X55500D02*
D03*
X65500D02*
D03*
X75500D02*
D03*
X85500D02*
D03*
X95500D02*
D03*
X105500D02*
D03*
X115500D02*
D03*
X125500D02*
D03*
X135500D02*
D03*
X145500D02*
D03*
X155500D02*
D03*
X165500D02*
D03*
Y173500D02*
D03*
X155500D02*
D03*
X145500D02*
D03*
X135500D02*
D03*
X125500D02*
D03*
X115500D02*
D03*
X105500D02*
D03*
X95500D02*
D03*
X85500D02*
D03*
X75500D02*
D03*
X65500D02*
D03*
X55500D02*
D03*
X45500D02*
D03*
X35500D02*
D03*
X45500Y66500D02*
D03*
Y56500D02*
D03*
Y46500D02*
D03*
Y36500D02*
D03*
Y26500D02*
D03*
X79000Y66500D02*
D03*
Y56500D02*
D03*
Y46500D02*
D03*
Y36500D02*
D03*
Y26500D02*
D03*
D18*
X45500Y76500D02*
D03*
X79000D02*
D03*
D19*
X25500Y54500D02*
D03*
X15500Y54500D02*
D03*
Y64500D02*
D03*
X25500D02*
D03*
Y74500D02*
D03*
X15500D02*
D03*
Y84500D02*
D03*
X25500D02*
D03*
Y94500D02*
D03*
X15500D02*
D03*
%TF.MD5,40f661df4ed09b6b1465118e7af23971*%
M02*
