%TF.GenerationSoftware,Altium Limited,Altium Designer,20.2.5 (213)*%
G04 Layer_Color=32896*
%FSLAX25Y25*%
%MOIN*%
%TF.SameCoordinates,03ADE540-DEBB-48E1-BD2F-024036EB756D*%
%TF.FilePolarity,Positive*%
%TF.FileFunction,Legend,Bot*%
%TF.Part,Single*%
G01*
G75*
%TA.AperFunction,NonConductor*%
%ADD15C,0.01000*%
D15*
X12000Y50563D02*
X28000D01*
X11563Y51000D02*
Y97811D01*
X12189Y98437D01*
X11563Y51000D02*
X12000Y50563D01*
X28000D02*
X29437Y52000D01*
X12189Y98437D02*
X29437D01*
Y52000D02*
Y98437D01*
X35606Y64102D02*
X41604D01*
Y67101D01*
X40604Y68101D01*
X38605D01*
X37605Y67101D01*
Y64102D01*
X41604Y73099D02*
Y71100D01*
X40604Y70100D01*
X36605D01*
X35606Y71100D01*
Y73099D01*
X36605Y74099D01*
X40604D01*
X41604Y73099D01*
X40604Y80097D02*
X41604Y79097D01*
Y77098D01*
X40604Y76098D01*
X36605D01*
X35606Y77098D01*
Y79097D01*
X36605Y80097D01*
X38605D01*
Y78097D01*
X41604Y85095D02*
Y83096D01*
X40604Y82096D01*
X36605D01*
X35606Y83096D01*
Y85095D01*
X36605Y86095D01*
X40604D01*
X41604Y85095D01*
%TF.MD5,8b34ef3c99f3a2448a4ee505b5f25c69*%
M02*
