%TF.GenerationSoftware,Altium Limited,Altium Designer,20.2.5 (213)*%
G04 Layer_Color=32768*
%FSLAX25Y25*%
%MOIN*%
%TF.SameCoordinates,03ADE540-DEBB-48E1-BD2F-024036EB756D*%
%TF.FilePolarity,Positive*%
%TF.FileFunction,Other,Top_Courtyard*%
%TF.Part,Single*%
G01*
G75*
%TA.AperFunction,NonConductor*%
%ADD34C,0.00394*%
%ADD38C,0.00197*%
D34*
X181532Y102000D02*
X185468D01*
X183500Y100031D02*
Y103969D01*
X141000Y150228D02*
Y153772D01*
X139228Y152000D02*
X142772D01*
X181532Y93250D02*
X185468D01*
X183500Y91281D02*
Y95218D01*
X141000Y141228D02*
Y144772D01*
X139228Y143000D02*
X142772D01*
X181532Y84500D02*
X185468D01*
X183500Y82531D02*
Y86468D01*
X141000Y132228D02*
Y135772D01*
X139228Y134000D02*
X142772D01*
D38*
X189681Y99244D02*
Y104756D01*
X177319Y99244D02*
Y104756D01*
Y99244D02*
X189681D01*
X177319Y104756D02*
X189681D01*
X135291Y149244D02*
X146709D01*
X135291Y154756D02*
X146709D01*
Y149244D02*
Y154756D01*
X135291Y149244D02*
Y154756D01*
X189681Y90494D02*
Y96006D01*
X177319Y90494D02*
Y96006D01*
Y90494D02*
X189681D01*
X177319Y96006D02*
X189681D01*
X135291Y140244D02*
X146709D01*
X135291Y145756D02*
X146709D01*
Y140244D02*
Y145756D01*
X135291Y140244D02*
Y145756D01*
X189681Y81744D02*
Y87256D01*
X177319Y81744D02*
Y87256D01*
Y81744D02*
X189681D01*
X177319Y87256D02*
X189681D01*
X135291Y131244D02*
X146709D01*
X135291Y136756D02*
X146709D01*
Y131244D02*
Y136756D01*
X135291Y131244D02*
Y136756D01*
%TF.MD5,847f19f0022adf4362f397b50b8343a0*%
M02*
