%TF.GenerationSoftware,Altium Limited,Altium Designer,20.2.5 (213)*%
G04 Layer_Physical_Order=2*
G04 Layer_Color=16711680*
%FSLAX25Y25*%
%MOIN*%
%TF.SameCoordinates,03ADE540-DEBB-48E1-BD2F-024036EB756D*%
%TF.FilePolarity,Positive*%
%TF.FileFunction,Copper,L2,Bot,Signal*%
%TF.Part,Single*%
G01*
G75*
%TA.AperFunction,Conductor*%
%ADD12C,0.01000*%
%TA.AperFunction,ComponentPad*%
%ADD16R,0.05906X0.05906*%
%ADD17C,0.05906*%
%ADD18R,0.05906X0.05906*%
%ADD19C,0.06000*%
%TA.AperFunction,ViaPad*%
%ADD20C,0.02362*%
%ADD21C,0.05000*%
%ADD22C,0.04200*%
%ADD23C,0.19685*%
%ADD24C,0.11811*%
%TA.AperFunction,Conductor*%
%ADD25C,0.06000*%
G36*
X171000Y21000D02*
X35500D01*
Y64500D01*
X29333D01*
X29202Y65492D01*
X28819Y66416D01*
X28210Y67210D01*
X27416Y67819D01*
X26492Y68202D01*
X25500Y68333D01*
X24508Y68202D01*
X23584Y67819D01*
X23000Y67371D01*
X22500Y67618D01*
Y81382D01*
X23000Y81629D01*
X23584Y81181D01*
X24508Y80798D01*
X25500Y80667D01*
X26492Y80798D01*
X27416Y81181D01*
X28210Y81790D01*
X28819Y82584D01*
X29202Y83508D01*
X29333Y84500D01*
X29202Y85492D01*
X28819Y86416D01*
X28210Y87210D01*
X27416Y87819D01*
X26492Y88202D01*
X25500Y88333D01*
X24508Y88202D01*
X23584Y87819D01*
X23370Y87656D01*
X23014Y88012D01*
X23033Y88038D01*
X23325Y88743D01*
X23425Y89500D01*
X23325Y90257D01*
X23033Y90962D01*
X23014Y90988D01*
X23370Y91344D01*
X23584Y91181D01*
X24508Y90798D01*
X25500Y90667D01*
X26492Y90798D01*
X27416Y91181D01*
X28210Y91790D01*
X28819Y92584D01*
X29202Y93508D01*
X29333Y94500D01*
X29202Y95492D01*
X28819Y96416D01*
X28210Y97210D01*
X27416Y97819D01*
X26492Y98202D01*
X25500Y98333D01*
X24508Y98202D01*
X23584Y97819D01*
X23000Y97372D01*
X22500Y97618D01*
Y109747D01*
X29253D01*
Y117253D01*
X22500D01*
Y169747D01*
X29253D01*
Y177253D01*
X22500D01*
Y178167D01*
X50984D01*
X51667Y177483D01*
Y173500D01*
X51798Y172508D01*
X52181Y171584D01*
X52790Y170790D01*
X53584Y170181D01*
X54508Y169798D01*
X55500Y169667D01*
X56492Y169798D01*
X57416Y170181D01*
X58210Y170790D01*
X58819Y171584D01*
X59202Y172508D01*
X59333Y173500D01*
Y179000D01*
X171000Y179000D01*
X171000Y21000D01*
D02*
G37*
G36*
X20000Y92359D02*
X19743Y92325D01*
X19038Y92033D01*
X19012Y92014D01*
X18656Y92370D01*
X18819Y92584D01*
X19202Y93508D01*
X19333Y94500D01*
X19202Y95492D01*
X18819Y96416D01*
X18210Y97210D01*
X17416Y97819D01*
X16492Y98202D01*
X15500Y98333D01*
X14508Y98202D01*
X13584Y97819D01*
X12790Y97210D01*
X12181Y96416D01*
X11798Y95492D01*
X11667Y94500D01*
X11798Y93508D01*
X12181Y92584D01*
X12790Y91790D01*
X13584Y91181D01*
X14508Y90798D01*
X15500Y90667D01*
X16492Y90798D01*
X17416Y91181D01*
X17629Y91344D01*
X17986Y90988D01*
X17967Y90962D01*
X17675Y90257D01*
X17575Y89500D01*
X17675Y88743D01*
X17967Y88038D01*
X17986Y88012D01*
X17629Y87656D01*
X17416Y87819D01*
X16492Y88202D01*
X15500Y88333D01*
X14508Y88202D01*
X13584Y87819D01*
X12790Y87210D01*
X12181Y86416D01*
X11798Y85492D01*
X11667Y84500D01*
X11798Y83508D01*
X12181Y82584D01*
X12790Y81790D01*
X13584Y81181D01*
X14508Y80798D01*
X15500Y80667D01*
X16492Y80798D01*
X17416Y81181D01*
X18210Y81790D01*
X18819Y82584D01*
X19202Y83508D01*
X19333Y84500D01*
X19202Y85492D01*
X18819Y86416D01*
X18656Y86629D01*
X19012Y86986D01*
X19038Y86967D01*
X19743Y86675D01*
X20000Y86641D01*
Y74795D01*
X19500Y74762D01*
X19397Y75544D01*
X18994Y76517D01*
X18353Y77353D01*
X17517Y77994D01*
X16544Y78397D01*
X16250Y78436D01*
Y74500D01*
Y70564D01*
X16544Y70603D01*
X17517Y71006D01*
X18353Y71647D01*
X18994Y72483D01*
X19397Y73456D01*
X19500Y74238D01*
X20000Y74205D01*
Y68000D01*
X22006Y65994D01*
X21798Y65492D01*
X21667Y64500D01*
X21798Y63508D01*
X22181Y62584D01*
X22344Y62370D01*
X21988Y62014D01*
X21962Y62033D01*
X21257Y62325D01*
X20500Y62425D01*
X19743Y62325D01*
X19038Y62033D01*
X19012Y62014D01*
X18656Y62371D01*
X18819Y62584D01*
X19202Y63508D01*
X19333Y64500D01*
X19202Y65492D01*
X18819Y66416D01*
X18210Y67210D01*
X17416Y67819D01*
X16492Y68202D01*
X15500Y68333D01*
X14508Y68202D01*
X13584Y67819D01*
X12790Y67210D01*
X12181Y66416D01*
X11798Y65492D01*
X11667Y64500D01*
X11798Y63508D01*
X12181Y62584D01*
X12790Y61790D01*
X13584Y61181D01*
X14508Y60798D01*
X15500Y60667D01*
X16492Y60798D01*
X17416Y61181D01*
X17629Y61344D01*
X17986Y60988D01*
X17967Y60962D01*
X17675Y60257D01*
X17575Y59500D01*
X17675Y58743D01*
X17967Y58038D01*
X17986Y58012D01*
X17629Y57656D01*
X17416Y57819D01*
X16492Y58202D01*
X15500Y58333D01*
X14508Y58202D01*
X13584Y57819D01*
X12790Y57210D01*
X12181Y56416D01*
X11798Y55492D01*
X11667Y54500D01*
X11798Y53508D01*
X12181Y52584D01*
X12790Y51790D01*
X13584Y51181D01*
X14508Y50798D01*
X15500Y50667D01*
X16492Y50798D01*
X17416Y51181D01*
X18210Y51790D01*
X18819Y52584D01*
X19202Y53508D01*
X19333Y54500D01*
X19202Y55492D01*
X18819Y56416D01*
X18656Y56630D01*
X19012Y56986D01*
X19038Y56967D01*
X19743Y56675D01*
X20500Y56575D01*
X21257Y56675D01*
X21609Y56820D01*
X21814Y56664D01*
X21969Y56428D01*
X21603Y55544D01*
X21564Y55250D01*
X24750D01*
Y58436D01*
X24456Y58397D01*
X23572Y58031D01*
X23336Y58186D01*
X23180Y58391D01*
X23325Y58743D01*
X23425Y59500D01*
X23325Y60257D01*
X23033Y60962D01*
X23014Y60988D01*
X23370Y61344D01*
X23584Y61181D01*
X24508Y60798D01*
X25500Y60667D01*
X26492Y60798D01*
X26994Y61006D01*
X32500Y55500D01*
Y42000D01*
X31500Y41000D01*
X4500D01*
X4500Y62449D01*
X4948Y62670D01*
X5038Y62602D01*
X5984Y62210D01*
X7000Y62076D01*
X8016Y62210D01*
X8962Y62602D01*
X9775Y63225D01*
X10398Y64038D01*
X10790Y64984D01*
X10924Y66000D01*
X10790Y67016D01*
X10398Y67962D01*
X9775Y68775D01*
X8962Y69398D01*
X8016Y69790D01*
X7000Y69924D01*
X5984Y69790D01*
X5038Y69398D01*
X4948Y69330D01*
X4500Y69551D01*
X4500Y179000D01*
X20000Y179000D01*
X20000Y92359D01*
D02*
G37*
%LPC*%
G36*
X36250Y177388D02*
Y174250D01*
X39388D01*
X39351Y174532D01*
X38953Y175493D01*
X38319Y176319D01*
X37493Y176953D01*
X36532Y177351D01*
X36250Y177388D01*
D02*
G37*
G36*
X34750D02*
X34468Y177351D01*
X33507Y176953D01*
X32681Y176319D01*
X32047Y175493D01*
X31649Y174532D01*
X31612Y174250D01*
X34750D01*
Y177388D01*
D02*
G37*
G36*
X165500Y177285D02*
X164520Y177156D01*
X163607Y176778D01*
X162823Y176177D01*
X162222Y175393D01*
X161844Y174480D01*
X161715Y173500D01*
X161844Y172520D01*
X162222Y171607D01*
X162823Y170824D01*
X163607Y170222D01*
X164520Y169844D01*
X165500Y169715D01*
X166480Y169844D01*
X167393Y170222D01*
X168176Y170824D01*
X168778Y171607D01*
X169156Y172520D01*
X169285Y173500D01*
X169156Y174480D01*
X168778Y175393D01*
X168176Y176177D01*
X167393Y176778D01*
X166480Y177156D01*
X165500Y177285D01*
D02*
G37*
G36*
X155500D02*
X154520Y177156D01*
X153607Y176778D01*
X152823Y176177D01*
X152222Y175393D01*
X151844Y174480D01*
X151715Y173500D01*
X151844Y172520D01*
X152222Y171607D01*
X152823Y170824D01*
X153607Y170222D01*
X154520Y169844D01*
X155500Y169715D01*
X156480Y169844D01*
X157393Y170222D01*
X158177Y170824D01*
X158778Y171607D01*
X159156Y172520D01*
X159285Y173500D01*
X159156Y174480D01*
X158778Y175393D01*
X158177Y176177D01*
X157393Y176778D01*
X156480Y177156D01*
X155500Y177285D01*
D02*
G37*
G36*
X145500D02*
X144520Y177156D01*
X143607Y176778D01*
X142824Y176177D01*
X142222Y175393D01*
X141844Y174480D01*
X141715Y173500D01*
X141844Y172520D01*
X142222Y171607D01*
X142824Y170824D01*
X143607Y170222D01*
X144520Y169844D01*
X145500Y169715D01*
X146480Y169844D01*
X147393Y170222D01*
X148177Y170824D01*
X148778Y171607D01*
X149156Y172520D01*
X149285Y173500D01*
X149156Y174480D01*
X148778Y175393D01*
X148177Y176177D01*
X147393Y176778D01*
X146480Y177156D01*
X145500Y177285D01*
D02*
G37*
G36*
X135500D02*
X134520Y177156D01*
X133607Y176778D01*
X132824Y176177D01*
X132222Y175393D01*
X131844Y174480D01*
X131715Y173500D01*
X131844Y172520D01*
X132222Y171607D01*
X132824Y170824D01*
X133607Y170222D01*
X134520Y169844D01*
X135500Y169715D01*
X136480Y169844D01*
X137393Y170222D01*
X138177Y170824D01*
X138778Y171607D01*
X139156Y172520D01*
X139285Y173500D01*
X139156Y174480D01*
X138778Y175393D01*
X138177Y176177D01*
X137393Y176778D01*
X136480Y177156D01*
X135500Y177285D01*
D02*
G37*
G36*
X125500D02*
X124520Y177156D01*
X123607Y176778D01*
X122824Y176177D01*
X122222Y175393D01*
X121844Y174480D01*
X121715Y173500D01*
X121844Y172520D01*
X122222Y171607D01*
X122824Y170824D01*
X123607Y170222D01*
X124520Y169844D01*
X125500Y169715D01*
X126480Y169844D01*
X127393Y170222D01*
X128176Y170824D01*
X128778Y171607D01*
X129156Y172520D01*
X129285Y173500D01*
X129156Y174480D01*
X128778Y175393D01*
X128176Y176177D01*
X127393Y176778D01*
X126480Y177156D01*
X125500Y177285D01*
D02*
G37*
G36*
X115500D02*
X114520Y177156D01*
X113607Y176778D01*
X112823Y176177D01*
X112222Y175393D01*
X111844Y174480D01*
X111715Y173500D01*
X111844Y172520D01*
X112222Y171607D01*
X112823Y170824D01*
X113607Y170222D01*
X114520Y169844D01*
X115500Y169715D01*
X116480Y169844D01*
X117393Y170222D01*
X118176Y170824D01*
X118778Y171607D01*
X119156Y172520D01*
X119285Y173500D01*
X119156Y174480D01*
X118778Y175393D01*
X118176Y176177D01*
X117393Y176778D01*
X116480Y177156D01*
X115500Y177285D01*
D02*
G37*
G36*
X105500D02*
X104520Y177156D01*
X103607Y176778D01*
X102823Y176177D01*
X102222Y175393D01*
X101844Y174480D01*
X101715Y173500D01*
X101844Y172520D01*
X102222Y171607D01*
X102823Y170824D01*
X103607Y170222D01*
X104520Y169844D01*
X105500Y169715D01*
X106480Y169844D01*
X107393Y170222D01*
X108177Y170824D01*
X108778Y171607D01*
X109156Y172520D01*
X109285Y173500D01*
X109156Y174480D01*
X108778Y175393D01*
X108177Y176177D01*
X107393Y176778D01*
X106480Y177156D01*
X105500Y177285D01*
D02*
G37*
G36*
X95500D02*
X94520Y177156D01*
X93607Y176778D01*
X92823Y176177D01*
X92222Y175393D01*
X91844Y174480D01*
X91715Y173500D01*
X91844Y172520D01*
X92222Y171607D01*
X92823Y170824D01*
X93607Y170222D01*
X94520Y169844D01*
X95500Y169715D01*
X96480Y169844D01*
X97393Y170222D01*
X98176Y170824D01*
X98778Y171607D01*
X99156Y172520D01*
X99285Y173500D01*
X99156Y174480D01*
X98778Y175393D01*
X98176Y176177D01*
X97393Y176778D01*
X96480Y177156D01*
X95500Y177285D01*
D02*
G37*
G36*
X85500D02*
X84520Y177156D01*
X83607Y176778D01*
X82823Y176177D01*
X82222Y175393D01*
X81844Y174480D01*
X81715Y173500D01*
X81844Y172520D01*
X82222Y171607D01*
X82823Y170824D01*
X83607Y170222D01*
X84520Y169844D01*
X85500Y169715D01*
X86480Y169844D01*
X87393Y170222D01*
X88177Y170824D01*
X88778Y171607D01*
X89156Y172520D01*
X89285Y173500D01*
X89156Y174480D01*
X88778Y175393D01*
X88177Y176177D01*
X87393Y176778D01*
X86480Y177156D01*
X85500Y177285D01*
D02*
G37*
G36*
X75500D02*
X74520Y177156D01*
X73607Y176778D01*
X72824Y176177D01*
X72222Y175393D01*
X71844Y174480D01*
X71715Y173500D01*
X71844Y172520D01*
X72222Y171607D01*
X72824Y170824D01*
X73607Y170222D01*
X74520Y169844D01*
X75500Y169715D01*
X76480Y169844D01*
X77393Y170222D01*
X78176Y170824D01*
X78778Y171607D01*
X79156Y172520D01*
X79285Y173500D01*
X79156Y174480D01*
X78778Y175393D01*
X78176Y176177D01*
X77393Y176778D01*
X76480Y177156D01*
X75500Y177285D01*
D02*
G37*
G36*
X65500D02*
X64520Y177156D01*
X63607Y176778D01*
X62823Y176177D01*
X62222Y175393D01*
X61844Y174480D01*
X61715Y173500D01*
X61844Y172520D01*
X62222Y171607D01*
X62823Y170824D01*
X63607Y170222D01*
X64520Y169844D01*
X65500Y169715D01*
X66480Y169844D01*
X67393Y170222D01*
X68177Y170824D01*
X68778Y171607D01*
X69156Y172520D01*
X69285Y173500D01*
X69156Y174480D01*
X68778Y175393D01*
X68177Y176177D01*
X67393Y176778D01*
X66480Y177156D01*
X65500Y177285D01*
D02*
G37*
G36*
X45500D02*
X44520Y177156D01*
X43607Y176778D01*
X42823Y176177D01*
X42222Y175393D01*
X41844Y174480D01*
X41715Y173500D01*
X41844Y172520D01*
X42222Y171607D01*
X42823Y170824D01*
X43607Y170222D01*
X44520Y169844D01*
X45500Y169715D01*
X46480Y169844D01*
X47393Y170222D01*
X48177Y170824D01*
X48778Y171607D01*
X49156Y172520D01*
X49285Y173500D01*
X49156Y174480D01*
X48778Y175393D01*
X48177Y176177D01*
X47393Y176778D01*
X46480Y177156D01*
X45500Y177285D01*
D02*
G37*
G36*
X39388Y172750D02*
X36250D01*
Y169612D01*
X36532Y169649D01*
X37493Y170047D01*
X38319Y170681D01*
X38953Y171507D01*
X39351Y172468D01*
X39388Y172750D01*
D02*
G37*
G36*
X34750D02*
X31612D01*
X31649Y172468D01*
X32047Y171507D01*
X32681Y170681D01*
X33507Y170047D01*
X34468Y169649D01*
X34750Y169612D01*
Y172750D01*
D02*
G37*
G36*
X56250Y117388D02*
Y114250D01*
X59388D01*
X59351Y114532D01*
X58953Y115493D01*
X58319Y116319D01*
X57493Y116953D01*
X56532Y117351D01*
X56250Y117388D01*
D02*
G37*
G36*
X54750D02*
X54468Y117351D01*
X53507Y116953D01*
X52681Y116319D01*
X52047Y115493D01*
X51649Y114532D01*
X51612Y114250D01*
X54750D01*
Y117388D01*
D02*
G37*
G36*
X165500Y117285D02*
X164520Y117156D01*
X163607Y116778D01*
X162823Y116176D01*
X162222Y115393D01*
X161844Y114480D01*
X161715Y113500D01*
X161844Y112520D01*
X162222Y111607D01*
X162823Y110824D01*
X163607Y110222D01*
X164520Y109844D01*
X165500Y109715D01*
X166480Y109844D01*
X167393Y110222D01*
X168176Y110824D01*
X168778Y111607D01*
X169156Y112520D01*
X169285Y113500D01*
X169156Y114480D01*
X168778Y115393D01*
X168176Y116176D01*
X167393Y116778D01*
X166480Y117156D01*
X165500Y117285D01*
D02*
G37*
G36*
X155500D02*
X154520Y117156D01*
X153607Y116778D01*
X152823Y116176D01*
X152222Y115393D01*
X151844Y114480D01*
X151715Y113500D01*
X151844Y112520D01*
X152222Y111607D01*
X152823Y110824D01*
X153607Y110222D01*
X154520Y109844D01*
X155500Y109715D01*
X156480Y109844D01*
X157393Y110222D01*
X158177Y110824D01*
X158778Y111607D01*
X159156Y112520D01*
X159285Y113500D01*
X159156Y114480D01*
X158778Y115393D01*
X158177Y116176D01*
X157393Y116778D01*
X156480Y117156D01*
X155500Y117285D01*
D02*
G37*
G36*
X145500D02*
X144520Y117156D01*
X143607Y116778D01*
X142824Y116176D01*
X142222Y115393D01*
X141844Y114480D01*
X141715Y113500D01*
X141844Y112520D01*
X142222Y111607D01*
X142824Y110824D01*
X143607Y110222D01*
X144520Y109844D01*
X145500Y109715D01*
X146480Y109844D01*
X147393Y110222D01*
X148177Y110824D01*
X148778Y111607D01*
X149156Y112520D01*
X149285Y113500D01*
X149156Y114480D01*
X148778Y115393D01*
X148177Y116176D01*
X147393Y116778D01*
X146480Y117156D01*
X145500Y117285D01*
D02*
G37*
G36*
X135500D02*
X134520Y117156D01*
X133607Y116778D01*
X132824Y116176D01*
X132222Y115393D01*
X131844Y114480D01*
X131715Y113500D01*
X131844Y112520D01*
X132222Y111607D01*
X132824Y110824D01*
X133607Y110222D01*
X134520Y109844D01*
X135500Y109715D01*
X136480Y109844D01*
X137393Y110222D01*
X138177Y110824D01*
X138778Y111607D01*
X139156Y112520D01*
X139285Y113500D01*
X139156Y114480D01*
X138778Y115393D01*
X138177Y116176D01*
X137393Y116778D01*
X136480Y117156D01*
X135500Y117285D01*
D02*
G37*
G36*
X125500D02*
X124520Y117156D01*
X123607Y116778D01*
X122824Y116176D01*
X122222Y115393D01*
X121844Y114480D01*
X121715Y113500D01*
X121844Y112520D01*
X122222Y111607D01*
X122824Y110824D01*
X123607Y110222D01*
X124520Y109844D01*
X125500Y109715D01*
X126480Y109844D01*
X127393Y110222D01*
X128176Y110824D01*
X128778Y111607D01*
X129156Y112520D01*
X129285Y113500D01*
X129156Y114480D01*
X128778Y115393D01*
X128176Y116176D01*
X127393Y116778D01*
X126480Y117156D01*
X125500Y117285D01*
D02*
G37*
G36*
X115500D02*
X114520Y117156D01*
X113607Y116778D01*
X112823Y116176D01*
X112222Y115393D01*
X111844Y114480D01*
X111715Y113500D01*
X111844Y112520D01*
X112222Y111607D01*
X112823Y110824D01*
X113607Y110222D01*
X114520Y109844D01*
X115500Y109715D01*
X116480Y109844D01*
X117393Y110222D01*
X118176Y110824D01*
X118778Y111607D01*
X119156Y112520D01*
X119285Y113500D01*
X119156Y114480D01*
X118778Y115393D01*
X118176Y116176D01*
X117393Y116778D01*
X116480Y117156D01*
X115500Y117285D01*
D02*
G37*
G36*
X105500D02*
X104520Y117156D01*
X103607Y116778D01*
X102823Y116176D01*
X102222Y115393D01*
X101844Y114480D01*
X101715Y113500D01*
X101844Y112520D01*
X102222Y111607D01*
X102823Y110824D01*
X103607Y110222D01*
X104520Y109844D01*
X105500Y109715D01*
X106480Y109844D01*
X107393Y110222D01*
X108177Y110824D01*
X108778Y111607D01*
X109156Y112520D01*
X109285Y113500D01*
X109156Y114480D01*
X108778Y115393D01*
X108177Y116176D01*
X107393Y116778D01*
X106480Y117156D01*
X105500Y117285D01*
D02*
G37*
G36*
X95500D02*
X94520Y117156D01*
X93607Y116778D01*
X92823Y116176D01*
X92222Y115393D01*
X91844Y114480D01*
X91715Y113500D01*
X91844Y112520D01*
X92222Y111607D01*
X92823Y110824D01*
X93607Y110222D01*
X94520Y109844D01*
X95500Y109715D01*
X96480Y109844D01*
X97393Y110222D01*
X98176Y110824D01*
X98778Y111607D01*
X99156Y112520D01*
X99285Y113500D01*
X99156Y114480D01*
X98778Y115393D01*
X98176Y116176D01*
X97393Y116778D01*
X96480Y117156D01*
X95500Y117285D01*
D02*
G37*
G36*
X85500D02*
X84520Y117156D01*
X83607Y116778D01*
X82823Y116176D01*
X82222Y115393D01*
X81844Y114480D01*
X81715Y113500D01*
X81844Y112520D01*
X82222Y111607D01*
X82823Y110824D01*
X83607Y110222D01*
X84520Y109844D01*
X85500Y109715D01*
X86480Y109844D01*
X87393Y110222D01*
X88177Y110824D01*
X88778Y111607D01*
X89156Y112520D01*
X89285Y113500D01*
X89156Y114480D01*
X88778Y115393D01*
X88177Y116176D01*
X87393Y116778D01*
X86480Y117156D01*
X85500Y117285D01*
D02*
G37*
G36*
X75500D02*
X74520Y117156D01*
X73607Y116778D01*
X72824Y116176D01*
X72222Y115393D01*
X71844Y114480D01*
X71715Y113500D01*
X71844Y112520D01*
X72222Y111607D01*
X72824Y110824D01*
X73607Y110222D01*
X74520Y109844D01*
X75500Y109715D01*
X76480Y109844D01*
X77393Y110222D01*
X78176Y110824D01*
X78778Y111607D01*
X79156Y112520D01*
X79285Y113500D01*
X79156Y114480D01*
X78778Y115393D01*
X78176Y116176D01*
X77393Y116778D01*
X76480Y117156D01*
X75500Y117285D01*
D02*
G37*
G36*
X65500D02*
X64520Y117156D01*
X63607Y116778D01*
X62823Y116176D01*
X62222Y115393D01*
X61844Y114480D01*
X61715Y113500D01*
X61844Y112520D01*
X62222Y111607D01*
X62823Y110824D01*
X63607Y110222D01*
X64520Y109844D01*
X65500Y109715D01*
X66480Y109844D01*
X67393Y110222D01*
X68177Y110824D01*
X68778Y111607D01*
X69156Y112520D01*
X69285Y113500D01*
X69156Y114480D01*
X68778Y115393D01*
X68177Y116176D01*
X67393Y116778D01*
X66480Y117156D01*
X65500Y117285D01*
D02*
G37*
G36*
X45500D02*
X44520Y117156D01*
X43607Y116778D01*
X42823Y116176D01*
X42222Y115393D01*
X41844Y114480D01*
X41715Y113500D01*
X41844Y112520D01*
X42222Y111607D01*
X42823Y110824D01*
X43607Y110222D01*
X44520Y109844D01*
X45500Y109715D01*
X46480Y109844D01*
X47393Y110222D01*
X48177Y110824D01*
X48778Y111607D01*
X49156Y112520D01*
X49285Y113500D01*
X49156Y114480D01*
X48778Y115393D01*
X48177Y116176D01*
X47393Y116778D01*
X46480Y117156D01*
X45500Y117285D01*
D02*
G37*
G36*
X35500D02*
X34520Y117156D01*
X33607Y116778D01*
X32824Y116176D01*
X32222Y115393D01*
X31844Y114480D01*
X31715Y113500D01*
X31844Y112520D01*
X32222Y111607D01*
X32824Y110824D01*
X33607Y110222D01*
X34520Y109844D01*
X35500Y109715D01*
X36480Y109844D01*
X37393Y110222D01*
X38177Y110824D01*
X38778Y111607D01*
X39156Y112520D01*
X39285Y113500D01*
X39156Y114480D01*
X38778Y115393D01*
X38177Y116176D01*
X37393Y116778D01*
X36480Y117156D01*
X35500Y117285D01*
D02*
G37*
G36*
X59388Y112750D02*
X56250D01*
Y109612D01*
X56532Y109649D01*
X57493Y110047D01*
X58319Y110681D01*
X58953Y111507D01*
X59351Y112468D01*
X59388Y112750D01*
D02*
G37*
G36*
X54750D02*
X51612D01*
X51649Y112468D01*
X52047Y111507D01*
X52681Y110681D01*
X53507Y110047D01*
X54468Y109649D01*
X54750Y109612D01*
Y112750D01*
D02*
G37*
G36*
X82753Y80253D02*
X75247D01*
Y72747D01*
X82753D01*
Y80253D01*
D02*
G37*
G36*
X49253D02*
X41747D01*
Y72747D01*
X49253D01*
Y80253D01*
D02*
G37*
G36*
X79000Y70285D02*
X78020Y70156D01*
X77107Y69778D01*
X76323Y69177D01*
X75722Y68393D01*
X75344Y67480D01*
X75215Y66500D01*
X75344Y65520D01*
X75722Y64607D01*
X76323Y63823D01*
X77107Y63222D01*
X78020Y62844D01*
X79000Y62715D01*
X79980Y62844D01*
X80893Y63222D01*
X81677Y63823D01*
X82278Y64607D01*
X82656Y65520D01*
X82785Y66500D01*
X82656Y67480D01*
X82278Y68393D01*
X81677Y69177D01*
X80893Y69778D01*
X79980Y70156D01*
X79000Y70285D01*
D02*
G37*
G36*
X45500D02*
X44520Y70156D01*
X43607Y69778D01*
X42823Y69177D01*
X42222Y68393D01*
X41844Y67480D01*
X41715Y66500D01*
X41844Y65520D01*
X42222Y64607D01*
X42823Y63823D01*
X43607Y63222D01*
X44520Y62844D01*
X45500Y62715D01*
X46480Y62844D01*
X47393Y63222D01*
X48177Y63823D01*
X48778Y64607D01*
X49156Y65520D01*
X49285Y66500D01*
X49156Y67480D01*
X48778Y68393D01*
X48177Y69177D01*
X47393Y69778D01*
X46480Y70156D01*
X45500Y70285D01*
D02*
G37*
G36*
X79000Y60285D02*
X78020Y60156D01*
X77107Y59778D01*
X76323Y59176D01*
X75722Y58393D01*
X75344Y57480D01*
X75215Y56500D01*
X75344Y55520D01*
X75722Y54607D01*
X76323Y53824D01*
X77107Y53222D01*
X78020Y52844D01*
X79000Y52715D01*
X79980Y52844D01*
X80893Y53222D01*
X81677Y53824D01*
X82278Y54607D01*
X82656Y55520D01*
X82785Y56500D01*
X82656Y57480D01*
X82278Y58393D01*
X81677Y59176D01*
X80893Y59778D01*
X79980Y60156D01*
X79000Y60285D01*
D02*
G37*
G36*
X45500D02*
X44520Y60156D01*
X43607Y59778D01*
X42823Y59176D01*
X42222Y58393D01*
X41844Y57480D01*
X41715Y56500D01*
X41844Y55520D01*
X42222Y54607D01*
X42823Y53824D01*
X43607Y53222D01*
X44520Y52844D01*
X45500Y52715D01*
X46480Y52844D01*
X47393Y53222D01*
X48177Y53824D01*
X48778Y54607D01*
X49156Y55520D01*
X49285Y56500D01*
X49156Y57480D01*
X48778Y58393D01*
X48177Y59176D01*
X47393Y59778D01*
X46480Y60156D01*
X45500Y60285D01*
D02*
G37*
G36*
X79000Y50285D02*
X78020Y50156D01*
X77107Y49778D01*
X76323Y49176D01*
X75722Y48393D01*
X75344Y47480D01*
X75215Y46500D01*
X75344Y45520D01*
X75722Y44607D01*
X76323Y43824D01*
X77107Y43222D01*
X78020Y42844D01*
X79000Y42715D01*
X79980Y42844D01*
X80893Y43222D01*
X81677Y43824D01*
X82278Y44607D01*
X82656Y45520D01*
X82785Y46500D01*
X82656Y47480D01*
X82278Y48393D01*
X81677Y49176D01*
X80893Y49778D01*
X79980Y50156D01*
X79000Y50285D01*
D02*
G37*
G36*
X45500D02*
X44520Y50156D01*
X43607Y49778D01*
X42823Y49176D01*
X42222Y48393D01*
X41844Y47480D01*
X41715Y46500D01*
X41844Y45520D01*
X42222Y44607D01*
X42823Y43824D01*
X43607Y43222D01*
X44520Y42844D01*
X45500Y42715D01*
X46480Y42844D01*
X47393Y43222D01*
X48177Y43824D01*
X48778Y44607D01*
X49156Y45520D01*
X49285Y46500D01*
X49156Y47480D01*
X48778Y48393D01*
X48177Y49176D01*
X47393Y49778D01*
X46480Y50156D01*
X45500Y50285D01*
D02*
G37*
G36*
X79000Y40285D02*
X78020Y40156D01*
X77107Y39778D01*
X76323Y39176D01*
X75722Y38393D01*
X75344Y37480D01*
X75215Y36500D01*
X75344Y35520D01*
X75722Y34607D01*
X76323Y33823D01*
X77107Y33222D01*
X78020Y32844D01*
X79000Y32715D01*
X79980Y32844D01*
X80893Y33222D01*
X81677Y33823D01*
X82278Y34607D01*
X82656Y35520D01*
X82785Y36500D01*
X82656Y37480D01*
X82278Y38393D01*
X81677Y39176D01*
X80893Y39778D01*
X79980Y40156D01*
X79000Y40285D01*
D02*
G37*
G36*
X45500D02*
X44520Y40156D01*
X43607Y39778D01*
X42823Y39176D01*
X42222Y38393D01*
X41844Y37480D01*
X41715Y36500D01*
X41844Y35520D01*
X42222Y34607D01*
X42823Y33823D01*
X43607Y33222D01*
X44520Y32844D01*
X45500Y32715D01*
X46480Y32844D01*
X47393Y33222D01*
X48177Y33823D01*
X48778Y34607D01*
X49156Y35520D01*
X49285Y36500D01*
X49156Y37480D01*
X48778Y38393D01*
X48177Y39176D01*
X47393Y39778D01*
X46480Y40156D01*
X45500Y40285D01*
D02*
G37*
G36*
X79750Y30388D02*
Y27250D01*
X82888D01*
X82851Y27532D01*
X82453Y28493D01*
X81819Y29319D01*
X80993Y29953D01*
X80032Y30351D01*
X79750Y30388D01*
D02*
G37*
G36*
X46250D02*
Y27250D01*
X49388D01*
X49351Y27532D01*
X48953Y28493D01*
X48319Y29319D01*
X47493Y29953D01*
X46532Y30351D01*
X46250Y30388D01*
D02*
G37*
G36*
X78250D02*
X77968Y30351D01*
X77007Y29953D01*
X76181Y29319D01*
X75547Y28493D01*
X75149Y27532D01*
X75112Y27250D01*
X78250D01*
Y30388D01*
D02*
G37*
G36*
X44750D02*
X44468Y30351D01*
X43507Y29953D01*
X42681Y29319D01*
X42047Y28493D01*
X41649Y27532D01*
X41612Y27250D01*
X44750D01*
Y30388D01*
D02*
G37*
G36*
X82888Y25750D02*
X79750D01*
Y22612D01*
X80032Y22649D01*
X80993Y23047D01*
X81819Y23681D01*
X82453Y24507D01*
X82851Y25468D01*
X82888Y25750D01*
D02*
G37*
G36*
X49388D02*
X46250D01*
Y22612D01*
X46532Y22649D01*
X47493Y23047D01*
X48319Y23681D01*
X48953Y24507D01*
X49351Y25468D01*
X49388Y25750D01*
D02*
G37*
G36*
X78250D02*
X75112D01*
X75149Y25468D01*
X75547Y24507D01*
X76181Y23681D01*
X77007Y23047D01*
X77968Y22649D01*
X78250Y22612D01*
Y25750D01*
D02*
G37*
G36*
X44750D02*
X41612D01*
X41649Y25468D01*
X42047Y24507D01*
X42681Y23681D01*
X43507Y23047D01*
X44468Y22649D01*
X44750Y22612D01*
Y25750D01*
D02*
G37*
G36*
X14750Y78436D02*
X14456Y78397D01*
X13483Y77994D01*
X12647Y77353D01*
X12006Y76517D01*
X11603Y75544D01*
X11564Y75250D01*
X14750D01*
Y78436D01*
D02*
G37*
G36*
Y73750D02*
X11564D01*
X11603Y73456D01*
X12006Y72483D01*
X12647Y71647D01*
X13483Y71006D01*
X14456Y70603D01*
X14750Y70564D01*
Y73750D01*
D02*
G37*
G36*
X26250Y58436D02*
Y55250D01*
X29436D01*
X29397Y55544D01*
X28994Y56517D01*
X28353Y57353D01*
X27517Y57994D01*
X26544Y58397D01*
X26250Y58436D01*
D02*
G37*
G36*
X29436Y53750D02*
X26250D01*
Y50564D01*
X26544Y50603D01*
X27517Y51006D01*
X28353Y51647D01*
X28994Y52483D01*
X29397Y53456D01*
X29436Y53750D01*
D02*
G37*
G36*
X24750D02*
X21564D01*
X21603Y53456D01*
X22006Y52483D01*
X22647Y51647D01*
X23483Y51006D01*
X24456Y50603D01*
X24750Y50564D01*
Y53750D01*
D02*
G37*
%LPD*%
D12*
X169500Y102000D02*
X191000D01*
X169500Y84500D02*
X191000D01*
X169500Y93250D02*
X191000D01*
D16*
X25500Y113500D02*
D03*
Y173500D02*
D03*
D17*
X35500Y113500D02*
D03*
X45500D02*
D03*
X55500D02*
D03*
X65500D02*
D03*
X75500D02*
D03*
X85500D02*
D03*
X95500D02*
D03*
X105500D02*
D03*
X115500D02*
D03*
X125500D02*
D03*
X135500D02*
D03*
X145500D02*
D03*
X155500D02*
D03*
X165500D02*
D03*
Y173500D02*
D03*
X155500D02*
D03*
X145500D02*
D03*
X135500D02*
D03*
X125500D02*
D03*
X115500D02*
D03*
X105500D02*
D03*
X95500D02*
D03*
X85500D02*
D03*
X75500D02*
D03*
X65500D02*
D03*
X55500D02*
D03*
X45500D02*
D03*
X35500D02*
D03*
X45500Y66500D02*
D03*
Y56500D02*
D03*
Y46500D02*
D03*
Y36500D02*
D03*
Y26500D02*
D03*
X79000Y66500D02*
D03*
Y56500D02*
D03*
Y46500D02*
D03*
Y36500D02*
D03*
Y26500D02*
D03*
D18*
X45500Y76500D02*
D03*
X79000D02*
D03*
D19*
X25500Y54500D02*
D03*
X15500Y54500D02*
D03*
Y64500D02*
D03*
X25500D02*
D03*
Y74500D02*
D03*
X15500D02*
D03*
Y84500D02*
D03*
X25500D02*
D03*
Y94500D02*
D03*
X15500D02*
D03*
D20*
X191000Y102000D02*
D03*
Y84500D02*
D03*
Y93250D02*
D03*
D21*
X7000Y66000D02*
D03*
X19876Y188898D02*
D03*
D22*
X20500Y59500D02*
D03*
Y89500D02*
D03*
D23*
X21390Y18098D02*
D03*
X182390D02*
D03*
Y182098D02*
D03*
D24*
X72000Y189500D02*
D03*
D25*
X52571Y182000D02*
X55500Y179071D01*
X12500Y177000D02*
X17500Y182000D01*
X55500Y173500D02*
Y179071D01*
X17500Y182000D02*
X52571D01*
%TF.MD5,8c9d0b61f2a900886ea61d3295cd1662*%
M02*
