%TF.GenerationSoftware,Altium Limited,Altium Designer,20.2.5 (213)*%
G04 Layer_Color=2752767*
%FSLAX25Y25*%
%MOIN*%
%TF.SameCoordinates,C9AA4840-3426-47ED-90B3-6D3E683A03ED*%
%TF.FilePolarity,Positive*%
%TF.FileFunction,Drawing*%
%TF.Part,Single*%
G01*
G75*
%TA.AperFunction,NonConductor*%
%ADD140C,0.00500*%
%ADD141C,0.00667*%
D140*
X18125Y125976D02*
Y129976D01*
X22125D01*
Y125976D01*
X18125D01*
Y110228D02*
Y114228D01*
X22125D01*
Y110228D01*
X18125D01*
Y94480D02*
Y98480D01*
X22125D01*
Y94480D01*
X18125D01*
Y78732D02*
Y82732D01*
X22125D01*
Y78732D01*
X18125D01*
Y62984D02*
Y66984D01*
X22125D01*
Y62984D01*
X18125D01*
Y47236D02*
Y51236D01*
X22125D01*
Y47236D01*
X18125D01*
Y31488D02*
Y35488D01*
X22125D01*
Y31488D01*
X18125D01*
Y15740D02*
Y19740D01*
X22125D01*
Y15740D01*
X18125D01*
X6314Y125976D02*
Y129976D01*
X10314D01*
Y125976D01*
X6314D01*
Y110228D02*
Y114228D01*
X10314D01*
Y110228D01*
X6314D01*
Y94480D02*
Y98480D01*
X10314D01*
Y94480D01*
X6314D01*
Y78732D02*
Y82732D01*
X10314D01*
Y78732D01*
X6314D01*
Y62984D02*
Y66984D01*
X10314D01*
Y62984D01*
X6314D01*
Y47236D02*
Y51236D01*
X10314D01*
Y47236D01*
X6314D01*
Y31488D02*
Y35488D01*
X10314D01*
Y31488D01*
X6314D01*
Y15740D02*
Y19740D01*
X10314D01*
Y15740D01*
X6314D01*
X47300Y60300D02*
X45300Y64300D01*
X49300D01*
X47300Y60300D01*
X36100Y65800D02*
X34100Y69800D01*
X38100D01*
X36100Y65800D01*
X35100Y71800D02*
X33100Y75800D01*
X37100D01*
X35100Y71800D01*
X45946Y57970D02*
X43946Y61970D01*
X47946D01*
X45946Y57970D01*
X61274Y21312D02*
X59274Y25312D01*
X63274D01*
X61274Y21312D01*
X94515Y28317D02*
X92515Y32317D01*
X96515D01*
X94515Y28317D01*
X90300Y24900D02*
X88300Y28900D01*
X92300D01*
X90300Y24900D01*
X87500D02*
X85500Y28900D01*
X89500D01*
X87500Y24900D01*
X91644Y42395D02*
X89644Y46395D01*
X93644D01*
X91644Y42395D01*
X93120Y45460D02*
X91120Y49460D01*
X95120D01*
X93120Y45460D01*
X94400Y42395D02*
X92400Y46395D01*
X96400D01*
X94400Y42395D01*
X49000Y30200D02*
X47000Y34200D01*
X51000D01*
X49000Y30200D01*
X47100Y8132D02*
X45100Y12132D01*
X49100D01*
X47100Y8132D01*
X60916Y13006D02*
X58916Y17006D01*
X62916D01*
X60916Y13006D01*
X74302Y34935D02*
X72302Y38935D01*
X76302D01*
X74302Y34935D01*
X74435Y52940D02*
X72435Y56940D01*
X76435D01*
X74435Y52940D01*
X68100Y50300D02*
X66100Y54300D01*
X70100D01*
X68100Y50300D01*
X71300Y48000D02*
X69300Y52000D01*
X73300D01*
X71300Y48000D01*
X52542Y44116D02*
X50542Y48116D01*
X54542D01*
X52542Y44116D01*
X77829Y20936D02*
X75829Y24936D01*
X79829D01*
X77829Y20936D01*
X1600Y100100D02*
X-400Y104100D01*
X3600D01*
X1600Y100100D01*
X4200Y102938D02*
X2200Y106938D01*
X6200D01*
X4200Y102938D01*
X1600D02*
X-400Y106938D01*
X3600D01*
X1600Y102938D01*
X4200Y100100D02*
X2200Y104100D01*
X6200D01*
X4200Y100100D01*
X1600Y97262D02*
X-400Y101262D01*
X3600D01*
X1600Y97262D01*
X4200D02*
X2200Y101262D01*
X6200D01*
X4200Y97262D01*
X4600Y84724D02*
X2600Y88724D01*
X6600D01*
X4600Y84724D01*
X2000D02*
X0Y88724D01*
X4000D01*
X2000Y84724D01*
X10000Y70200D02*
X8000Y74200D01*
X12000D01*
X10000Y70200D01*
X7200D02*
X5200Y74200D01*
X9200D01*
X7200Y70200D01*
Y73300D02*
X5200Y77300D01*
X9200D01*
X7200Y73300D01*
X4300D02*
X2300Y77300D01*
X6300D01*
X4300Y73300D01*
X15000Y55000D02*
X13000Y59000D01*
X17000D01*
X15000Y55000D01*
X11000D02*
X9000Y59000D01*
X13000D01*
X11000Y55000D01*
X17000Y53000D02*
X15000Y57000D01*
X19000D01*
X17000Y53000D01*
X54960Y56593D02*
X52960Y60593D01*
X56960D01*
X54960Y56593D01*
X89100Y400D02*
X87100Y4400D01*
X91100D01*
X89100Y400D01*
X72900Y83600D02*
X70900Y87600D01*
X74900D01*
X72900Y83600D01*
X15687Y105281D02*
X13687Y109281D01*
X17686D01*
X15687Y105281D01*
X36500Y58832D02*
X34500Y62832D01*
X38500D01*
X36500Y58832D01*
X102600Y101200D02*
X100600Y105200D01*
X104600D01*
X102600Y101200D01*
X48020Y55759D02*
X46020Y59759D01*
X50020D01*
X48020Y55759D01*
X68094Y100006D02*
X66093Y104006D01*
X70094D01*
X68094Y100006D01*
X94400Y89688D02*
X92400Y93687D01*
X96400D01*
X94400Y89688D01*
X95303Y92509D02*
X93303Y96509D01*
X97303D01*
X95303Y92509D01*
X49800Y120300D02*
X47800Y124300D01*
X51800D01*
X49800Y120300D01*
Y116800D02*
X47800Y120800D01*
X51800D01*
X49800Y116800D01*
X13730Y94000D02*
X11730Y98000D01*
X15730D01*
X13730Y94000D01*
X45945Y91455D02*
X43945Y95455D01*
X47945D01*
X45945Y91455D01*
X78900Y73533D02*
X76900Y77533D01*
X80900D01*
X78900Y73533D01*
X37900Y91500D02*
X35900Y95500D01*
X39900D01*
X37900Y91500D01*
X52200Y101300D02*
X50200Y105300D01*
X54200D01*
X52200Y101300D01*
X39367Y87897D02*
X40367Y88898D01*
X41367D01*
X40367Y89898D01*
X41367Y90898D01*
X40367D01*
X39367Y91897D01*
X38367Y90898D01*
X37367D01*
X38367Y89898D01*
X37367Y88898D01*
X38367D01*
X39367Y87897D01*
X16100Y129400D02*
X14100Y133400D01*
X18100D01*
X16100Y129400D01*
X13000Y53000D02*
X11000Y57000D01*
X15000D01*
X13000Y53000D01*
X91300Y116300D02*
X89300Y120300D01*
X93300D01*
X91300Y116300D01*
X102300Y95300D02*
X100300Y99300D01*
X104300D01*
X102300Y95300D01*
X91600Y97381D02*
X89600Y101381D01*
X93600D01*
X91600Y97381D01*
X30500Y107900D02*
X28500Y111900D01*
X32500D01*
X30500Y107900D01*
X46675Y120300D02*
X44675Y124300D01*
X48675D01*
X46675Y120300D01*
Y116800D02*
X44675Y120800D01*
X48675D01*
X46675Y116800D01*
X20844Y36452D02*
X18844Y40452D01*
X22844D01*
X20844Y36452D01*
X56200Y107400D02*
X54200Y111400D01*
X58200D01*
X56200Y107400D01*
X61300Y132900D02*
X59300Y136900D01*
X63300D01*
X61300Y132900D01*
X40300Y138900D02*
X38300Y142900D01*
X42300D01*
X40300Y138900D01*
X72900Y79000D02*
X70900Y83000D01*
X74900D01*
X72900Y79000D01*
X100100Y13000D02*
X101100Y15000D01*
X100100Y17000D01*
X102100Y16000D01*
X104100Y17000D01*
X103100Y15000D01*
X104100Y13000D01*
X102100Y14000D01*
X100100Y13000D01*
X101600Y67050D02*
X99600Y71050D01*
X103600D01*
X101600Y67050D01*
X65400Y2800D02*
X63400Y6800D01*
X67400D01*
X65400Y2800D01*
X89000Y112700D02*
X87000Y116700D01*
X91000D01*
X89000Y112700D01*
Y109200D02*
X87000Y113200D01*
X91000D01*
X89000Y109200D01*
X56981Y71283D02*
X54981Y75283D01*
X58981D01*
X56981Y71283D01*
X78900Y83600D02*
X76900Y87600D01*
X80900D01*
X78900Y83600D01*
X78898Y78681D02*
X76898Y82681D01*
X80898D01*
X78898Y78681D01*
X66900D02*
X64900Y82681D01*
X68900D01*
X66900Y78681D01*
Y73533D02*
X64900Y77533D01*
X68900D01*
X66900Y73533D01*
X72900D02*
X70900Y77533D01*
X74900D01*
X72900Y73533D01*
X66900Y83600D02*
X64900Y87600D01*
X68900D01*
X66900Y83600D01*
X41700Y129593D02*
X39700Y133592D01*
X43700D01*
X41700Y129593D01*
X42400Y127300D02*
X40400Y131300D01*
X44400D01*
X42400Y127300D01*
X31914Y124744D02*
X29914Y128744D01*
X33914D01*
X31914Y124744D01*
X16800Y118095D02*
X17800Y120095D01*
X16800Y122095D01*
X18800Y121095D01*
X20800Y122095D01*
X19800Y120095D01*
X20800Y118095D01*
X18800Y119095D01*
X16800Y118095D01*
X15700Y124000D02*
X13700Y128000D01*
X17700D01*
X15700Y124000D01*
X40970Y112028D02*
X41970Y113028D01*
X42970D01*
X41970Y114028D01*
X42970Y115028D01*
X41970D01*
X40970Y116028D01*
X39970Y115028D01*
X38970D01*
X39970Y114028D01*
X38970Y113028D01*
X39970D01*
X40970Y112028D01*
X42058Y109828D02*
X43058Y110828D01*
X44058D01*
X43058Y111828D01*
X44058Y112828D01*
X43058D01*
X42058Y113828D01*
X41058Y112828D01*
X40058D01*
X41058Y111828D01*
X40058Y110828D01*
X41058D01*
X42058Y109828D01*
X27800Y138500D02*
X25800Y142500D01*
X29800D01*
X27800Y138500D01*
X30300D02*
X28300Y142500D01*
X32300D01*
X30300Y138500D01*
X32100Y136216D02*
X30100Y140216D01*
X34100D01*
X32100Y136216D01*
X80800Y106200D02*
X78800Y110200D01*
X82800D01*
X80800Y106200D01*
X72900Y68500D02*
X70900Y72500D01*
X74900D01*
X72900Y68500D01*
X44200Y129300D02*
X42200Y133300D01*
X46200D01*
X44200Y129300D01*
X40300Y136100D02*
X38300Y140100D01*
X42300D01*
X40300Y136100D01*
X27800D02*
X25800Y140100D01*
X29800D01*
X27800Y136100D01*
X22400Y130200D02*
X20400Y134200D01*
X24400D01*
X22400Y130200D01*
Y132800D02*
X20400Y136800D01*
X24400D01*
X22400Y132800D01*
X19500Y131100D02*
X17500Y135100D01*
X21500D01*
X19500Y131100D01*
X17000Y132400D02*
X15000Y136400D01*
X19000D01*
X17000Y132400D01*
X23700Y117001D02*
X21700Y121002D01*
X25700D01*
X23700Y117001D01*
X24700Y111300D02*
X22700Y115300D01*
X26700D01*
X24700Y111300D01*
X76800Y122200D02*
X74800Y126200D01*
X78800D01*
X76800Y122200D01*
X69548Y122679D02*
X67549Y126680D01*
X71548D01*
X69548Y122679D01*
X86000Y102800D02*
X84000Y106800D01*
X88000D01*
X86000Y102800D01*
X38700Y101000D02*
X36700Y105000D01*
X40700D01*
X38700Y101000D01*
X43200Y105600D02*
X41200Y109600D01*
X45200D01*
X43200Y105600D01*
X66900Y68500D02*
X64900Y72500D01*
X68900D01*
X66900Y68500D01*
X78900D02*
X76900Y72500D01*
X80900D01*
X78900Y68500D01*
X4600Y87562D02*
X2600Y91562D01*
X6600D01*
X4600Y87562D01*
X2000Y90400D02*
X0Y94400D01*
X4000D01*
X2000Y90400D01*
X4600D02*
X2600Y94400D01*
X6600D01*
X4600Y90400D01*
X2000Y87562D02*
X0Y91562D01*
X4000D01*
X2000Y87562D01*
X4300Y70200D02*
X2300Y74200D01*
X6300D01*
X4300Y70200D01*
X10000Y73300D02*
X8000Y77300D01*
X12000D01*
X10000Y73300D01*
X51919Y93220D02*
X49919Y97220D01*
X53919D01*
X51919Y93220D01*
X13000Y57000D02*
X11000Y61000D01*
X15000D01*
X13000Y57000D01*
X15000Y51000D02*
X13000Y55000D01*
X17000D01*
X15000Y51000D01*
X101203Y73747D02*
X99203Y77746D01*
X103203D01*
X101203Y73747D01*
X91000Y105700D02*
X89000Y109700D01*
X93000D01*
X91000Y105700D01*
X108600Y45400D02*
X106600Y49400D01*
X110600D01*
X108600Y45400D01*
D141*
X87400Y138800D02*
G03*
X87400Y138800I-2000J0D01*
G01*
X77400D02*
G03*
X77400Y138800I-2000J0D01*
G01*
X67400D02*
G03*
X67400Y138800I-2000J0D01*
G01*
X57400D02*
G03*
X57400Y138800I-2000J0D01*
G01*
X47400D02*
G03*
X47400Y138800I-2000J0D01*
G01*
X82600Y9600D02*
G03*
X82600Y9600I-2000J0D01*
G01*
X72600D02*
G03*
X72600Y9600I-2000J0D01*
G01*
X62600D02*
G03*
X62600Y9600I-2000J0D01*
G01*
X11500Y138800D02*
G03*
X11500Y138800I-2000J0D01*
G01*
X21500D02*
G03*
X21500Y138800I-2000J0D01*
G01*
X87293Y126597D02*
G03*
X87293Y126597I-2000J0D01*
G01*
X100400Y3703D02*
G03*
X100400Y3703I-2000J0D01*
G01*
Y103500D02*
G03*
X100400Y103500I-2000J0D01*
G01*
Y133500D02*
G03*
X100400Y133500I-2000J0D01*
G01*
%TF.MD5,6c16881d0c1ded72ea459424e410b54f*%
M02*
