%TF.GenerationSoftware,Altium Limited,Altium Designer,20.2.5 (213)*%
G04 Layer_Color=8421504*
%FSLAX25Y25*%
%MOIN*%
%TF.SameCoordinates,C9AA4840-3426-47ED-90B3-6D3E683A03ED*%
%TF.FilePolarity,Positive*%
%TF.FileFunction,Paste,Top*%
%TF.Part,Single*%
G01*
G75*
%TA.AperFunction,SMDPad,CuDef*%
%ADD10R,0.02362X0.03937*%
G04:AMPARAMS|DCode=11|XSize=62.99mil|YSize=39.37mil|CornerRadius=3.94mil|HoleSize=0mil|Usage=FLASHONLY|Rotation=0.000|XOffset=0mil|YOffset=0mil|HoleType=Round|Shape=RoundedRectangle|*
%AMROUNDEDRECTD11*
21,1,0.06299,0.03150,0,0,0.0*
21,1,0.05512,0.03937,0,0,0.0*
1,1,0.00787,0.02756,-0.01575*
1,1,0.00787,-0.02756,-0.01575*
1,1,0.00787,-0.02756,0.01575*
1,1,0.00787,0.02756,0.01575*
%
%ADD11ROUNDEDRECTD11*%
G04:AMPARAMS|DCode=12|XSize=11.81mil|YSize=17.72mil|CornerRadius=1.18mil|HoleSize=0mil|Usage=FLASHONLY|Rotation=0.000|XOffset=0mil|YOffset=0mil|HoleType=Round|Shape=RoundedRectangle|*
%AMROUNDEDRECTD12*
21,1,0.01181,0.01535,0,0,0.0*
21,1,0.00945,0.01772,0,0,0.0*
1,1,0.00236,0.00472,-0.00768*
1,1,0.00236,-0.00472,-0.00768*
1,1,0.00236,-0.00472,0.00768*
1,1,0.00236,0.00472,0.00768*
%
%ADD12ROUNDEDRECTD12*%
%ADD13R,0.09646X0.06693*%
%ADD14R,0.00984X0.02362*%
%ADD15R,0.04921X0.03740*%
%ADD16R,0.02480X0.03268*%
%ADD17R,0.03347X0.03543*%
%ADD18R,0.02165X0.02362*%
%ADD19R,0.20472X0.20472*%
%ADD20O,0.04134X0.00984*%
%ADD21O,0.00984X0.04134*%
G04:AMPARAMS|DCode=22|XSize=13.39mil|YSize=29.53mil|CornerRadius=1.34mil|HoleSize=0mil|Usage=FLASHONLY|Rotation=0.000|XOffset=0mil|YOffset=0mil|HoleType=Round|Shape=RoundedRectangle|*
%AMROUNDEDRECTD22*
21,1,0.01339,0.02685,0,0,0.0*
21,1,0.01071,0.02953,0,0,0.0*
1,1,0.00268,0.00535,-0.01343*
1,1,0.00268,-0.00535,-0.01343*
1,1,0.00268,-0.00535,0.01343*
1,1,0.00268,0.00535,0.01343*
%
%ADD22ROUNDEDRECTD22*%
G04:AMPARAMS|DCode=23|XSize=64.17mil|YSize=56.3mil|CornerRadius=5.63mil|HoleSize=0mil|Usage=FLASHONLY|Rotation=0.000|XOffset=0mil|YOffset=0mil|HoleType=Round|Shape=RoundedRectangle|*
%AMROUNDEDRECTD23*
21,1,0.06417,0.04504,0,0,0.0*
21,1,0.05291,0.05630,0,0,0.0*
1,1,0.01126,0.02646,-0.02252*
1,1,0.01126,-0.02646,-0.02252*
1,1,0.01126,-0.02646,0.02252*
1,1,0.01126,0.02646,0.02252*
%
%ADD23ROUNDEDRECTD23*%
G04:AMPARAMS|DCode=24|XSize=39.37mil|YSize=78.74mil|CornerRadius=9.84mil|HoleSize=0mil|Usage=FLASHONLY|Rotation=180.000|XOffset=0mil|YOffset=0mil|HoleType=Round|Shape=RoundedRectangle|*
%AMROUNDEDRECTD24*
21,1,0.03937,0.05906,0,0,180.0*
21,1,0.01968,0.07874,0,0,180.0*
1,1,0.01968,-0.00984,0.02953*
1,1,0.01968,0.00984,0.02953*
1,1,0.01968,0.00984,-0.02953*
1,1,0.01968,-0.00984,-0.02953*
%
%ADD24ROUNDEDRECTD24*%
%ADD25R,0.04724X0.14173*%
%ADD26R,0.04528X0.08661*%
%ADD27R,0.05118X0.07087*%
%ADD28R,0.03937X0.03937*%
%ADD29R,0.02520X0.02677*%
%ADD30R,0.02677X0.02520*%
%ADD31R,0.02362X0.02165*%
%ADD32R,0.03937X0.02362*%
%ADD33R,0.03937X0.03937*%
%ADD34C,0.04000*%
D10*
X28360Y124776D02*
D03*
X32100D02*
D03*
X35840D02*
D03*
Y134224D02*
D03*
X32100D02*
D03*
X28360D02*
D03*
X61628Y30377D02*
D03*
X57888Y39825D02*
D03*
X65368D02*
D03*
X73289Y127435D02*
D03*
X65808D02*
D03*
X69548Y117987D02*
D03*
X58700Y48276D02*
D03*
X54960Y57724D02*
D03*
X62440D02*
D03*
X37010Y15896D02*
D03*
X29530D02*
D03*
X33270Y6447D02*
D03*
X47100Y16824D02*
D03*
X50840Y7376D02*
D03*
X43360D02*
D03*
X35745Y114424D02*
D03*
X28265D02*
D03*
X32005Y104976D02*
D03*
D11*
X29400Y91566D02*
D03*
D12*
X26841Y87727D02*
D03*
X29400D02*
D03*
X31959D02*
D03*
X26841Y95405D02*
D03*
X29400D02*
D03*
X31959D02*
D03*
D13*
X38000Y41400D02*
D03*
D14*
X33079Y35750D02*
D03*
X35047D02*
D03*
X37016D02*
D03*
X38984D02*
D03*
X40953D02*
D03*
X42921D02*
D03*
X33079Y47050D02*
D03*
X35047D02*
D03*
X37016D02*
D03*
X38984D02*
D03*
X40953D02*
D03*
X42921D02*
D03*
D15*
X82205Y25200D02*
D03*
X70394D02*
D03*
D16*
X101780Y84600D02*
D03*
X93020D02*
D03*
D17*
X66349Y17913D02*
D03*
X72451D02*
D03*
D18*
X101600Y60427D02*
D03*
Y63773D02*
D03*
X28500Y25127D02*
D03*
Y28473D02*
D03*
Y44127D02*
D03*
Y47473D02*
D03*
Y34627D02*
D03*
Y37973D02*
D03*
X96400Y69773D02*
D03*
Y66427D02*
D03*
X51800Y23427D02*
D03*
Y26773D02*
D03*
X81000Y101473D02*
D03*
Y98127D02*
D03*
X79760Y124438D02*
D03*
Y127785D02*
D03*
X60400Y127773D02*
D03*
Y124427D02*
D03*
X57190Y99837D02*
D03*
Y96490D02*
D03*
X56200Y89427D02*
D03*
Y92773D02*
D03*
X92500Y68648D02*
D03*
Y65302D02*
D03*
X77749Y117779D02*
D03*
Y121125D02*
D03*
X103300Y54373D02*
D03*
Y51027D02*
D03*
X92500Y59127D02*
D03*
Y62473D02*
D03*
X56500Y66273D02*
D03*
Y62927D02*
D03*
X55800Y69444D02*
D03*
Y72791D02*
D03*
D19*
X74214Y77426D02*
D03*
D20*
X87305Y87269D02*
D03*
Y85300D02*
D03*
Y83332D02*
D03*
Y81363D02*
D03*
Y79395D02*
D03*
Y77426D02*
D03*
Y75458D02*
D03*
Y73489D02*
D03*
Y71521D02*
D03*
Y69552D02*
D03*
Y67584D02*
D03*
X61124D02*
D03*
Y69552D02*
D03*
Y71521D02*
D03*
Y73489D02*
D03*
Y75458D02*
D03*
Y77426D02*
D03*
Y79395D02*
D03*
Y81363D02*
D03*
Y83332D02*
D03*
Y85300D02*
D03*
Y87269D02*
D03*
D21*
X84057Y64335D02*
D03*
X82088D02*
D03*
X80120D02*
D03*
X78151D02*
D03*
X76183D02*
D03*
X74214D02*
D03*
X72246D02*
D03*
X70277D02*
D03*
X68309D02*
D03*
X66340D02*
D03*
X64372D02*
D03*
Y90517D02*
D03*
X66340D02*
D03*
X68309D02*
D03*
X70277D02*
D03*
X72246D02*
D03*
X74214D02*
D03*
X76183D02*
D03*
X78151D02*
D03*
X80120D02*
D03*
X82088D02*
D03*
X84057D02*
D03*
D22*
X51553Y126098D02*
D03*
X49584D02*
D03*
X47616D02*
D03*
X45647D02*
D03*
X51553Y114680D02*
D03*
X49584D02*
D03*
X47616D02*
D03*
X45647D02*
D03*
D23*
X48600Y120389D02*
D03*
D24*
X100100Y38400D02*
D03*
D25*
X30595Y69100D02*
D03*
X42406D02*
D03*
D26*
X72551Y109800D02*
D03*
X66449D02*
D03*
D27*
X41348Y82443D02*
D03*
X30324D02*
D03*
D28*
X82249Y32200D02*
D03*
X88351D02*
D03*
X38751Y22400D02*
D03*
X32649D02*
D03*
Y27600D02*
D03*
X38751D02*
D03*
D29*
X42700Y53328D02*
D03*
Y56872D02*
D03*
X42800Y23328D02*
D03*
Y26872D02*
D03*
X42300Y122428D02*
D03*
Y125972D02*
D03*
X34200Y53228D02*
D03*
Y56772D02*
D03*
X92600Y79572D02*
D03*
Y76028D02*
D03*
X55500Y79572D02*
D03*
Y76028D02*
D03*
X101700Y92672D02*
D03*
Y89128D02*
D03*
D30*
X32228Y139200D02*
D03*
X35772D02*
D03*
X27289Y100100D02*
D03*
X30832D02*
D03*
X39772Y88700D02*
D03*
X36228D02*
D03*
X64219Y100287D02*
D03*
X67762D02*
D03*
X71319Y100758D02*
D03*
X74862D02*
D03*
X77172Y96900D02*
D03*
X73628D02*
D03*
X75830Y57847D02*
D03*
X79373D02*
D03*
X72341Y57906D02*
D03*
X68798D02*
D03*
D31*
X26061Y52700D02*
D03*
X29408D02*
D03*
X31373Y119600D02*
D03*
X28027D02*
D03*
X47280Y109595D02*
D03*
X50626D02*
D03*
X26061Y57400D02*
D03*
X29408D02*
D03*
X57073Y131200D02*
D03*
X53727D02*
D03*
X73073D02*
D03*
X69727D02*
D03*
X56727Y44500D02*
D03*
X60073D02*
D03*
D32*
X39595Y104363D02*
D03*
Y96883D02*
D03*
X49044Y100623D02*
D03*
X99124Y50300D02*
D03*
X89676Y46560D02*
D03*
Y54040D02*
D03*
D33*
X38300Y53249D02*
D03*
Y59351D02*
D03*
X47367Y22249D02*
D03*
Y28351D02*
D03*
D34*
X51700Y89400D02*
D03*
X81800Y113100D02*
D03*
X24916Y28470D02*
D03*
%TF.MD5,d1f50a54d7829139d2973c5dd196b02c*%
M02*
