%TF.GenerationSoftware,Altium Limited,Altium Designer,20.2.5 (213)*%
G04 Layer_Physical_Order=2*
G04 Layer_Color=16711680*
%FSLAX25Y25*%
%MOIN*%
%TF.SameCoordinates,C9AA4840-3426-47ED-90B3-6D3E683A03ED*%
%TF.FilePolarity,Positive*%
%TF.FileFunction,Copper,L2,Bot,Signal*%
%TF.Part,Single*%
G01*
G75*
%TA.AperFunction,SMDPad,CuDef*%
%ADD17R,0.03347X0.03543*%
%ADD18R,0.02165X0.02362*%
%ADD29R,0.02520X0.02677*%
%ADD30R,0.02677X0.02520*%
%ADD31R,0.02362X0.02165*%
%ADD34C,0.04000*%
%TA.AperFunction,Conductor*%
%ADD36C,0.00800*%
%ADD37C,0.01400*%
%ADD39C,0.01200*%
%ADD40C,0.02000*%
%ADD41C,0.01000*%
%ADD42C,0.01500*%
%ADD46C,0.03000*%
%TA.AperFunction,ComponentPad*%
%ADD47C,0.06000*%
%ADD48R,0.05906X0.05906*%
%ADD49C,0.05906*%
%TA.AperFunction,ViaPad*%
%ADD50C,0.03543*%
%ADD51C,0.02362*%
%ADD52C,0.02400*%
%ADD53C,0.03347*%
%TA.AperFunction,SMDPad,CuDef*%
%ADD54R,0.03543X0.03740*%
%ADD55O,0.05906X0.01102*%
%ADD56O,0.01102X0.05906*%
G04:AMPARAMS|DCode=57|XSize=25.59mil|YSize=37.4mil|CornerRadius=6.4mil|HoleSize=0mil|Usage=FLASHONLY|Rotation=180.000|XOffset=0mil|YOffset=0mil|HoleType=Round|Shape=RoundedRectangle|*
%AMROUNDEDRECTD57*
21,1,0.02559,0.02461,0,0,180.0*
21,1,0.01280,0.03740,0,0,180.0*
1,1,0.01280,-0.00640,0.01230*
1,1,0.01280,0.00640,0.01230*
1,1,0.01280,0.00640,-0.01230*
1,1,0.01280,-0.00640,-0.01230*
%
%ADD57ROUNDEDRECTD57*%
G04:AMPARAMS|DCode=58|XSize=23.62mil|YSize=51.18mil|CornerRadius=2.36mil|HoleSize=0mil|Usage=FLASHONLY|Rotation=270.000|XOffset=0mil|YOffset=0mil|HoleType=Round|Shape=RoundedRectangle|*
%AMROUNDEDRECTD58*
21,1,0.02362,0.04646,0,0,270.0*
21,1,0.01890,0.05118,0,0,270.0*
1,1,0.00472,-0.02323,-0.00945*
1,1,0.00472,-0.02323,0.00945*
1,1,0.00472,0.02323,0.00945*
1,1,0.00472,0.02323,-0.00945*
%
%ADD58ROUNDEDRECTD58*%
G04:AMPARAMS|DCode=59|XSize=31.5mil|YSize=35.43mil|CornerRadius=7.87mil|HoleSize=0mil|Usage=FLASHONLY|Rotation=0.000|XOffset=0mil|YOffset=0mil|HoleType=Round|Shape=RoundedRectangle|*
%AMROUNDEDRECTD59*
21,1,0.03150,0.01968,0,0,0.0*
21,1,0.01575,0.03543,0,0,0.0*
1,1,0.01575,0.00787,-0.00984*
1,1,0.01575,-0.00787,-0.00984*
1,1,0.01575,-0.00787,0.00984*
1,1,0.01575,0.00787,0.00984*
%
%ADD59ROUNDEDRECTD59*%
%ADD60O,0.05709X0.02362*%
%ADD61O,0.02362X0.05906*%
%ADD62R,0.03937X0.05315*%
%ADD63R,0.03937X0.05315*%
%ADD64R,0.04724X0.04724*%
%TA.AperFunction,BGAPad,CuDef*%
%ADD65C,0.04724*%
%TA.AperFunction,SMDPad,CuDef*%
%ADD66R,0.03937X0.04724*%
%ADD67R,0.03150X0.02756*%
%ADD68R,0.03150X0.03150*%
%ADD69O,0.02362X0.05709*%
G04:AMPARAMS|DCode=70|XSize=25.59mil|YSize=37.4mil|CornerRadius=6.4mil|HoleSize=0mil|Usage=FLASHONLY|Rotation=90.000|XOffset=0mil|YOffset=0mil|HoleType=Round|Shape=RoundedRectangle|*
%AMROUNDEDRECTD70*
21,1,0.02559,0.02461,0,0,90.0*
21,1,0.01280,0.03740,0,0,90.0*
1,1,0.01280,0.01230,0.00640*
1,1,0.01280,0.01230,-0.00640*
1,1,0.01280,-0.01230,-0.00640*
1,1,0.01280,-0.01230,0.00640*
%
%ADD70ROUNDEDRECTD70*%
%ADD71R,0.02756X0.03150*%
%ADD72C,0.05000*%
%ADD73C,0.03000*%
%TA.AperFunction,Conductor*%
%ADD74C,0.01600*%
%ADD75C,0.00600*%
%ADD76C,0.02800*%
G36*
X23687Y142936D02*
X23673Y142863D01*
X23673Y142863D01*
Y138922D01*
X23073Y138882D01*
X22961Y139727D01*
X22603Y140592D01*
X22034Y141334D01*
X21292Y141903D01*
X20427Y142261D01*
X19500Y142383D01*
X18573Y142261D01*
X17708Y141903D01*
X16966Y141334D01*
X16397Y140592D01*
X16039Y139727D01*
X15917Y138800D01*
X16039Y137873D01*
X16397Y137008D01*
X16966Y136266D01*
X17708Y135697D01*
X18573Y135339D01*
X19500Y135217D01*
X20427Y135339D01*
X21292Y135697D01*
X22034Y136266D01*
X22603Y137008D01*
X22961Y137873D01*
X23073Y138718D01*
X23673Y138678D01*
Y130252D01*
X23073Y130049D01*
X22693Y130544D01*
X21940Y131121D01*
X21065Y131483D01*
X20125Y131607D01*
X19185Y131483D01*
X18309Y131121D01*
X17558Y130544D01*
X16980Y129792D01*
X16618Y128916D01*
X16494Y127976D01*
X16618Y127036D01*
X16980Y126161D01*
X17414Y125596D01*
X17164Y124996D01*
X16856D01*
X16310Y124887D01*
X16172Y124795D01*
X16095Y124780D01*
X15632Y124471D01*
X15632Y124471D01*
X14191Y123029D01*
X13881Y122566D01*
X13773Y122020D01*
X13773Y122020D01*
Y118637D01*
X13773Y118637D01*
X13881Y118091D01*
X14191Y117628D01*
X16009Y115810D01*
X16009Y115810D01*
X16472Y115500D01*
X17018Y115392D01*
X17018Y115392D01*
X17348D01*
X17558Y114796D01*
X16980Y114044D01*
X16618Y113168D01*
X16494Y112228D01*
X16592Y111486D01*
X16295Y111019D01*
X16135Y110886D01*
X12584D01*
X11863Y111607D01*
X11945Y112228D01*
X11821Y113168D01*
X11459Y114044D01*
X10882Y114796D01*
X10130Y115373D01*
X9254Y115735D01*
X8314Y115859D01*
X7374Y115735D01*
X6498Y115373D01*
X5746Y114796D01*
X5169Y114044D01*
X4807Y113168D01*
X4683Y112228D01*
X4807Y111288D01*
X5169Y110413D01*
X5746Y109661D01*
X6498Y109084D01*
X7374Y108721D01*
X8314Y108597D01*
X9254Y108721D01*
X10130Y109084D01*
X10580Y109429D01*
X11212Y108797D01*
X11609Y108532D01*
X12078Y108439D01*
X13651D01*
X13981Y107839D01*
X13903Y107444D01*
X12227Y105768D01*
X11928Y105321D01*
X11824Y104795D01*
Y98806D01*
X11224Y98602D01*
X10882Y99048D01*
X10130Y99625D01*
X9254Y99988D01*
X8314Y100111D01*
X7374Y99988D01*
X6498Y99625D01*
X5746Y99048D01*
X5169Y98296D01*
X4807Y97420D01*
X4683Y96480D01*
X4807Y95540D01*
X5169Y94665D01*
X5746Y93913D01*
X6498Y93336D01*
X7374Y92973D01*
X8314Y92849D01*
X9254Y92973D01*
X10130Y93336D01*
X10882Y93913D01*
X11459Y94665D01*
X11573Y94942D01*
X12250Y95008D01*
X12446Y94716D01*
X13035Y94322D01*
X13292Y94271D01*
X13490Y93620D01*
X1000Y81130D01*
X400Y81364D01*
Y143400D01*
X23306D01*
X23687Y142936D01*
D02*
G37*
G36*
X109200Y124570D02*
X108646Y124340D01*
X105984Y127002D01*
X105988Y127006D01*
X106286Y127727D01*
X106388Y128500D01*
X106286Y129273D01*
X105988Y129994D01*
X105513Y130613D01*
X104894Y131088D01*
X104173Y131386D01*
X103400Y131488D01*
X102627Y131386D01*
X101906Y131088D01*
X101287Y130613D01*
X100812Y129994D01*
X100514Y129273D01*
X100438Y128697D01*
X99857Y128429D01*
X98993Y129293D01*
X98629Y129536D01*
X98200Y129622D01*
X98200Y129622D01*
X96142D01*
X95987Y129994D01*
X95513Y130613D01*
X94894Y131088D01*
X94173Y131386D01*
X93400Y131488D01*
X92627Y131386D01*
X91906Y131088D01*
X91287Y130613D01*
X90812Y129994D01*
X90514Y129273D01*
X90412Y128500D01*
X90514Y127727D01*
X90812Y127006D01*
X91287Y126387D01*
X91906Y125912D01*
X92627Y125614D01*
X93400Y125512D01*
X94173Y125614D01*
X94894Y125912D01*
X95513Y126387D01*
X95987Y127006D01*
X96142Y127378D01*
X97736D01*
X103945Y121169D01*
X103945Y121169D01*
X104235Y120975D01*
X105741Y119469D01*
Y111194D01*
X105141Y110898D01*
X104894Y111088D01*
X104173Y111386D01*
X103400Y111488D01*
X102627Y111386D01*
X101906Y111088D01*
X101287Y110613D01*
X100812Y109994D01*
X100514Y109273D01*
X100412Y108500D01*
X100514Y107727D01*
X100812Y107006D01*
X101287Y106387D01*
X101906Y105912D01*
X102278Y105758D01*
Y104952D01*
X101905Y104878D01*
X101316Y104484D01*
X100922Y103895D01*
X100784Y103200D01*
X100922Y102505D01*
X101316Y101916D01*
X101707Y101655D01*
X101759Y101506D01*
X101769Y101051D01*
X101744Y100963D01*
X101287Y100613D01*
X100812Y99994D01*
X100514Y99273D01*
X100412Y98500D01*
X100514Y97727D01*
X100551Y97637D01*
X100484Y97300D01*
X100622Y96605D01*
X101016Y96016D01*
X101605Y95622D01*
X102300Y95484D01*
X102823Y95588D01*
X103400Y95512D01*
X104173Y95614D01*
X104894Y95912D01*
X105141Y96102D01*
X105741Y95806D01*
Y67944D01*
X101809Y64012D01*
X101254Y64241D01*
Y66183D01*
X99832D01*
X99828Y66202D01*
X99822Y66212D01*
Y67076D01*
X103575D01*
Y71425D01*
X99822D01*
Y72385D01*
X100811Y73375D01*
X103575D01*
Y76331D01*
X104469Y77225D01*
X104469Y77225D01*
X104712Y77589D01*
X104798Y78018D01*
X104798Y78018D01*
Y87764D01*
X104712Y88194D01*
X104469Y88557D01*
X104469Y88557D01*
X103883Y89143D01*
X103519Y89386D01*
X103090Y89472D01*
X102783Y89933D01*
Y90723D01*
X99417D01*
Y87161D01*
Y83814D01*
X99529D01*
Y81955D01*
X98532D01*
Y77999D01*
X98739D01*
X99225Y77724D01*
Y74961D01*
X97907Y73643D01*
X97878Y73600D01*
X97278Y73782D01*
Y76630D01*
X93322D01*
Y76622D01*
X91046D01*
X91046Y76622D01*
X90617Y76537D01*
X90253Y76293D01*
X90253Y76293D01*
X90060Y76100D01*
X88685D01*
X88423Y76152D01*
X83620D01*
X83170Y76063D01*
X82790Y75809D01*
X82535Y75428D01*
X82446Y74979D01*
X82535Y74530D01*
X82599Y74434D01*
X82740Y73994D01*
X82599Y73555D01*
X82535Y73459D01*
X82446Y73010D01*
X82535Y72561D01*
X82790Y72180D01*
Y71872D01*
X82535Y71491D01*
X82446Y71042D01*
X82535Y70593D01*
X82790Y70212D01*
X83170Y69957D01*
X83620Y69868D01*
X88423D01*
X88952Y69432D01*
Y63880D01*
X88952Y63880D01*
X89038Y63451D01*
X89281Y63087D01*
X92641Y59727D01*
X93004Y59484D01*
X93434Y59399D01*
X93434Y59399D01*
X102166D01*
X102166Y59399D01*
X102596Y59484D01*
X102960Y59727D01*
X108646Y65414D01*
X109200Y65184D01*
Y49569D01*
X108736Y49189D01*
X108600Y49216D01*
X107905Y49078D01*
X107316Y48684D01*
X107207Y48522D01*
X105600D01*
X105171Y48436D01*
X104807Y48193D01*
X104807Y48193D01*
X98935Y42322D01*
X80783D01*
X79512Y43593D01*
X79512Y43593D01*
X78938Y44167D01*
X78574Y44410D01*
X78145Y44496D01*
X78145Y44496D01*
X71079D01*
X71079Y44496D01*
X70649Y44410D01*
X70286Y44167D01*
X70286Y44167D01*
X69126Y43007D01*
X68945Y42736D01*
X68898Y42700D01*
X68872Y42690D01*
X68394Y42946D01*
X68498Y43546D01*
X68783D01*
Y46892D01*
Y50454D01*
X66683D01*
X66630Y50465D01*
X65766D01*
X64664Y51567D01*
Y54857D01*
X64916Y55110D01*
X65240D01*
X65358Y55133D01*
X67760D01*
Y55133D01*
X67840D01*
Y55133D01*
X71560D01*
Y56242D01*
X73448D01*
X73916Y56335D01*
X74313Y56600D01*
X75551Y57838D01*
X76151Y57589D01*
Y52329D01*
X76151Y52329D01*
X76159Y52289D01*
Y51788D01*
X75798Y51428D01*
X75392D01*
X75392Y51428D01*
X75086Y51367D01*
X72576D01*
Y47490D01*
X76295D01*
Y49191D01*
X76692Y49270D01*
X77056Y49513D01*
X77272Y49730D01*
X77873Y49129D01*
Y45894D01*
X83010D01*
Y51818D01*
X78717D01*
X78402Y52321D01*
X78394Y52360D01*
Y57933D01*
X78402Y57972D01*
Y58656D01*
X78974Y58991D01*
X79002Y58988D01*
X79427Y58903D01*
X79876Y58993D01*
X80257Y59247D01*
X81004Y59286D01*
X82970Y57321D01*
Y55914D01*
X82970Y55914D01*
X82991Y55806D01*
Y52587D01*
X88128D01*
Y54009D01*
X88728Y54257D01*
X89740Y53245D01*
Y51033D01*
X93460D01*
Y54910D01*
X91247D01*
X89460Y56698D01*
X89096Y56941D01*
X88667Y57026D01*
X88128Y57161D01*
Y58511D01*
X84929D01*
X84884Y58579D01*
X84884Y58579D01*
X80648Y62815D01*
Y63266D01*
X80601Y63507D01*
Y64880D01*
X80511Y65329D01*
X80257Y65710D01*
X79876Y65965D01*
X79427Y66054D01*
X78978Y65965D01*
X78597Y65710D01*
X78288D01*
X77907Y65965D01*
X77458Y66054D01*
X77413Y66045D01*
X76813Y66501D01*
Y77077D01*
X80454D01*
X80923Y77170D01*
X81320Y77435D01*
X82033Y78149D01*
X82494Y78179D01*
X82770Y78116D01*
X82790Y78086D01*
X83170Y77831D01*
X83620Y77742D01*
X88423D01*
X88872Y77831D01*
X89253Y78086D01*
X89507Y78467D01*
X89597Y78916D01*
X90140Y79238D01*
X90434Y79255D01*
X90434Y79255D01*
X90798Y79012D01*
X91227Y78927D01*
X93414D01*
Y77999D01*
X97764D01*
Y81955D01*
X93414D01*
Y81170D01*
X91692D01*
X91329Y81533D01*
X90965Y81776D01*
X90535Y81862D01*
X90535Y81862D01*
X90452D01*
X90393Y81901D01*
X89964Y81986D01*
X89964Y81986D01*
X88784D01*
X88423Y82058D01*
X83620D01*
X83170Y81969D01*
X83103Y81924D01*
X82503Y82244D01*
Y83588D01*
X85324D01*
X85331Y83590D01*
X85344Y83587D01*
X90690D01*
Y83040D01*
X94567D01*
Y86760D01*
X94567D01*
X94567Y86840D01*
X94567D01*
Y89905D01*
X95095Y90010D01*
X95684Y90403D01*
X96078Y90992D01*
X96216Y91688D01*
X96078Y92382D01*
X95684Y92972D01*
X95095Y93365D01*
X94400Y93503D01*
X93705Y93365D01*
X93178Y93013D01*
X90762D01*
X87326Y96449D01*
Y103578D01*
X87678Y104105D01*
X87816Y104800D01*
X87678Y105495D01*
X87284Y106084D01*
X86695Y106478D01*
X86000Y106616D01*
X85305Y106478D01*
X84716Y106084D01*
X84322Y105495D01*
X84184Y104800D01*
X84322Y104105D01*
X84675Y103578D01*
Y95900D01*
X84775Y95393D01*
X85063Y94963D01*
X87571Y92455D01*
X87341Y91900D01*
X83620D01*
X83170Y91811D01*
X82790Y91557D01*
X82535Y91176D01*
X82446Y90727D01*
X82535Y90278D01*
X82790Y89897D01*
Y89588D01*
X82535Y89207D01*
X82446Y88758D01*
X82535Y88309D01*
X82790Y87928D01*
Y87620D01*
X82535Y87239D01*
X82446Y86790D01*
X82477Y86635D01*
X82073Y86035D01*
X81982D01*
X81514Y85942D01*
X81117Y85677D01*
X80414Y84974D01*
X80149Y84577D01*
X80056Y84109D01*
Y79632D01*
X79948Y79523D01*
X71223D01*
Y87793D01*
X76455Y93025D01*
X76720Y93422D01*
X76813Y93890D01*
Y96534D01*
X76768Y96759D01*
Y101940D01*
X78067D01*
Y105660D01*
X74622D01*
Y106642D01*
X79412D01*
Y110078D01*
X87607D01*
X87716Y109916D01*
X88305Y109522D01*
X89000Y109384D01*
X89365Y109457D01*
X89549Y109208D01*
X89662Y108904D01*
X89322Y108395D01*
X89184Y107700D01*
X89322Y107005D01*
X89716Y106416D01*
X90305Y106022D01*
X91000Y105884D01*
X91695Y106022D01*
X91731Y106047D01*
X91906Y105912D01*
X92627Y105614D01*
X93400Y105512D01*
X94173Y105614D01*
X94894Y105912D01*
X95513Y106387D01*
X95987Y107006D01*
X96286Y107727D01*
X96388Y108500D01*
X96286Y109273D01*
X95987Y109994D01*
X95513Y110613D01*
X94894Y111088D01*
X94173Y111386D01*
X93400Y111488D01*
X92627Y111386D01*
X91906Y111088D01*
X91315Y110634D01*
X91250Y110647D01*
X90776Y110997D01*
X90816Y111200D01*
X90678Y111895D01*
X90284Y112484D01*
X90127Y112589D01*
Y113311D01*
X90284Y113416D01*
X90678Y114005D01*
X90816Y114700D01*
X90678Y115395D01*
X90284Y115984D01*
X89695Y116378D01*
X89000Y116516D01*
X88305Y116378D01*
X87716Y115984D01*
X87607Y115822D01*
X79412D01*
Y120358D01*
X74622D01*
Y127400D01*
X74622Y127400D01*
X74536Y127829D01*
X74293Y128193D01*
X70666Y131820D01*
X70302Y132063D01*
X69873Y132149D01*
X69873Y132149D01*
X61595D01*
X61137Y132608D01*
X61079Y132895D01*
X60686Y133484D01*
X60097Y133878D01*
X59402Y134016D01*
X56055D01*
X55360Y133878D01*
X54771Y133484D01*
X54377Y132895D01*
X54239Y132200D01*
X54377Y131505D01*
X54771Y130916D01*
X55360Y130522D01*
X56055Y130384D01*
X59402D01*
X60057Y130515D01*
X60338Y130234D01*
X60338Y130234D01*
X60702Y129991D01*
X61131Y129906D01*
X61161Y129334D01*
Y128833D01*
X61002Y128716D01*
X60561Y128567D01*
X60097Y128878D01*
X59402Y129016D01*
X56055D01*
X55360Y128878D01*
X55135Y128727D01*
X52654D01*
X51727Y129654D01*
Y136636D01*
X52263Y136971D01*
X52327Y136968D01*
X52866Y136266D01*
X53608Y135697D01*
X54473Y135339D01*
X55400Y135217D01*
X56327Y135339D01*
X57192Y135697D01*
X57934Y136266D01*
X58503Y137008D01*
X58861Y137873D01*
X58983Y138800D01*
X58861Y139727D01*
X58503Y140592D01*
X57934Y141334D01*
X57362Y141773D01*
X57566Y142373D01*
X63234D01*
X63438Y141773D01*
X62866Y141334D01*
X62297Y140592D01*
X61939Y139727D01*
X61817Y138800D01*
X61939Y137873D01*
X62297Y137008D01*
X62866Y136266D01*
X63608Y135697D01*
X64473Y135339D01*
X65400Y135217D01*
X66327Y135339D01*
X67192Y135697D01*
X67934Y136266D01*
X68503Y137008D01*
X68861Y137873D01*
X68983Y138800D01*
X68861Y139727D01*
X68503Y140592D01*
X67934Y141334D01*
X67362Y141773D01*
X67566Y142373D01*
X73234D01*
X73438Y141773D01*
X72866Y141334D01*
X72297Y140592D01*
X71939Y139727D01*
X71817Y138800D01*
X71939Y137873D01*
X72297Y137008D01*
X72866Y136266D01*
X73608Y135697D01*
X74473Y135339D01*
X75400Y135217D01*
X76327Y135339D01*
X77192Y135697D01*
X77934Y136266D01*
X78503Y137008D01*
X78861Y137873D01*
X78983Y138800D01*
X78861Y139727D01*
X78503Y140592D01*
X77934Y141334D01*
X77362Y141773D01*
X77566Y142373D01*
X81255D01*
X81847Y142353D01*
X81847Y141773D01*
Y135247D01*
X88953D01*
X88953Y142353D01*
X89545Y142373D01*
X97509D01*
X100541Y139340D01*
X100514Y139273D01*
X100412Y138500D01*
X100514Y137727D01*
X100812Y137006D01*
X101287Y136387D01*
X101906Y135913D01*
X102627Y135614D01*
X103400Y135512D01*
X104173Y135614D01*
X104894Y135913D01*
X105513Y136387D01*
X105988Y137006D01*
X106286Y137727D01*
X106388Y138500D01*
X106286Y139273D01*
X105988Y139994D01*
X105513Y140613D01*
X104894Y141087D01*
X104173Y141386D01*
X103400Y141488D01*
X102627Y141386D01*
X102560Y141358D01*
X101073Y142846D01*
X101303Y143400D01*
X109200D01*
Y124570D01*
D02*
G37*
G36*
X48873Y133254D02*
X48276Y133245D01*
X48172Y133772D01*
X47873Y134218D01*
X46995Y135097D01*
X46548Y135395D01*
X46021Y135500D01*
X43662D01*
X43357Y135804D01*
X42911Y136103D01*
X42384Y136207D01*
X32386D01*
X32386Y136208D01*
X31859Y136103D01*
X31413Y135804D01*
X29827Y134218D01*
X29528Y133772D01*
X29507Y133667D01*
X26527D01*
Y142271D01*
X26629Y142373D01*
X48873D01*
Y133254D01*
D02*
G37*
G36*
X42118Y133150D02*
X42118Y133150D01*
X42565Y132852D01*
X43091Y132747D01*
X43091Y132747D01*
X45451D01*
X45524Y132675D01*
Y128983D01*
X45628Y128456D01*
X45927Y128010D01*
X52024Y121913D01*
Y113372D01*
X52128Y112845D01*
X52427Y112398D01*
X52781Y112044D01*
X52533Y111444D01*
X50596D01*
X50112Y111348D01*
X49702Y111074D01*
X49428Y110664D01*
X49332Y110180D01*
Y108900D01*
X49428Y108417D01*
X49702Y108007D01*
X50112Y107733D01*
X50596Y107636D01*
X52162D01*
Y105818D01*
X52162Y105818D01*
X52248Y105388D01*
X52491Y105025D01*
X53762Y103753D01*
Y96931D01*
X53198Y96662D01*
X52796Y96936D01*
X52720Y97509D01*
X52408Y98263D01*
X51911Y98911D01*
X51263Y99408D01*
X50509Y99720D01*
X49700Y99827D01*
X48891Y99720D01*
X48137Y99408D01*
X47489Y98911D01*
X46992Y98263D01*
X46680Y97509D01*
X46573Y96700D01*
X46680Y95891D01*
X46749Y95723D01*
X46318Y95197D01*
X45945Y95271D01*
X45250Y95133D01*
X44661Y94739D01*
X44267Y94150D01*
X44129Y93455D01*
X44267Y92760D01*
X44404Y92554D01*
Y86803D01*
X44404Y86803D01*
X44490Y86374D01*
X44733Y86010D01*
X45157Y85586D01*
X44774Y85120D01*
X44686Y85179D01*
X44257Y85265D01*
X44257Y85265D01*
X38042D01*
X37613Y85179D01*
X37249Y84936D01*
X37249Y84936D01*
X36663Y84350D01*
X36420Y83987D01*
X36334Y83557D01*
X36334Y83557D01*
Y79750D01*
X35734Y79501D01*
X32494Y82741D01*
Y83614D01*
X32888Y83692D01*
X33298Y83966D01*
X33572Y84377D01*
X33668Y84860D01*
Y86140D01*
X33572Y86624D01*
X33298Y87034D01*
X32888Y87308D01*
X32601Y87365D01*
Y91840D01*
X33672D01*
Y94100D01*
X34872D01*
Y91840D01*
X36610D01*
X36610Y91840D01*
X37196Y91805D01*
X37800Y91685D01*
X37849Y91694D01*
X37900Y91684D01*
X38595Y91822D01*
X39184Y92216D01*
X39578Y92805D01*
X39716Y93500D01*
X39578Y94195D01*
X39431Y94414D01*
Y101110D01*
X39854Y101532D01*
X39970Y101707D01*
X39984Y101716D01*
X40378Y102305D01*
X40516Y103000D01*
X40401Y103577D01*
X40712Y103888D01*
X40885Y103988D01*
X41344Y103896D01*
X43804D01*
X44288Y103992D01*
X44698Y104266D01*
X44972Y104676D01*
X45068Y105160D01*
Y106440D01*
X44972Y106923D01*
X44902Y107028D01*
X45016Y107600D01*
X44878Y108295D01*
X44484Y108884D01*
X43895Y109278D01*
X43200Y109416D01*
X42505Y109278D01*
X41916Y108884D01*
X41522Y108295D01*
X41405Y107704D01*
X41344D01*
X40860Y107608D01*
X40450Y107334D01*
X40176Y106923D01*
X40080Y106440D01*
Y105160D01*
X40130Y104908D01*
X39600Y104541D01*
X39395Y104678D01*
X38700Y104816D01*
X38005Y104678D01*
X37416Y104284D01*
X37022Y103695D01*
X36928Y103220D01*
X36647Y102939D01*
X36293Y102410D01*
X36169Y101786D01*
Y96360D01*
X34756D01*
X34526Y96914D01*
X34709Y97097D01*
X34709Y97097D01*
X35019Y97560D01*
X35127Y98107D01*
X35127Y98107D01*
Y99178D01*
Y109717D01*
X35254D01*
Y113083D01*
X34727D01*
Y113178D01*
X34619Y113724D01*
X34309Y114187D01*
X34309Y114187D01*
X34016Y114480D01*
X34312Y115033D01*
X34598Y114976D01*
X35672D01*
Y117200D01*
Y119424D01*
X34598D01*
X33747Y119255D01*
X33026Y118772D01*
X32544Y118051D01*
X32375Y117200D01*
X32432Y116914D01*
X31879Y116618D01*
X31067Y117430D01*
X30604Y117739D01*
X30058Y117848D01*
X30057Y117848D01*
X26131D01*
X25883Y118448D01*
X27708Y120273D01*
X29861D01*
Y120975D01*
X33275D01*
X33314Y120916D01*
X33904Y120522D01*
X34598Y120384D01*
X37945D01*
X38640Y120522D01*
X39229Y120916D01*
X39623Y121505D01*
X39761Y122200D01*
X39623Y122895D01*
X39229Y123484D01*
X38640Y123878D01*
X37945Y124016D01*
X34598D01*
X33904Y123878D01*
X33526Y123626D01*
X29861D01*
Y125530D01*
X30461Y125712D01*
X30630Y125460D01*
X31219Y125066D01*
X31914Y124928D01*
X32609Y125066D01*
X33198Y125460D01*
X33445Y125829D01*
X33904Y125522D01*
X34598Y125384D01*
X37945D01*
X38640Y125522D01*
X39229Y125916D01*
X39623Y126505D01*
X39761Y127200D01*
X39623Y127895D01*
X39229Y128484D01*
X38640Y128878D01*
X37945Y129016D01*
X34598D01*
X34094Y128916D01*
X34031Y129010D01*
X32176Y130865D01*
Y132164D01*
X32215Y132187D01*
X32849Y131868D01*
X32921Y131505D01*
X33314Y130916D01*
X33904Y130522D01*
X34598Y130384D01*
X37945D01*
X38640Y130522D01*
X39229Y130916D01*
X39623Y131505D01*
X39761Y132200D01*
X39631Y132855D01*
X39635Y132987D01*
X39885Y133455D01*
X41814D01*
X42118Y133150D01*
D02*
G37*
G36*
X66247Y93458D02*
X66252Y93458D01*
X66766Y93801D01*
X67114Y93871D01*
X67167Y93835D01*
X67616Y93746D01*
X68065Y93835D01*
X68160Y93899D01*
X68600Y94040D01*
X69040Y93899D01*
X69135Y93835D01*
X69584Y93746D01*
X70033Y93835D01*
X70129Y93899D01*
X70569Y94040D01*
X71008Y93899D01*
X71104Y93835D01*
X71553Y93746D01*
X72002Y93835D01*
X72097Y93899D01*
X72537Y94040D01*
X72977Y93899D01*
X73003Y93882D01*
X73097Y93678D01*
X73173Y93203D01*
X69135Y89165D01*
X68870Y88768D01*
X68777Y88300D01*
Y79523D01*
X63207D01*
X62949Y79781D01*
X62552Y80046D01*
X62084Y80139D01*
X55134D01*
X54725Y80739D01*
X54754Y80884D01*
X54665Y81333D01*
X54601Y81429D01*
X54460Y81868D01*
X54601Y82308D01*
X54665Y82404D01*
X54754Y82853D01*
X54665Y83302D01*
X54410Y83683D01*
Y83991D01*
X54665Y84372D01*
X54754Y84821D01*
X54665Y85270D01*
X54410Y85651D01*
Y85960D01*
X54665Y86341D01*
X54754Y86790D01*
X54665Y87239D01*
X54601Y87334D01*
X54460Y87774D01*
X54601Y88214D01*
X54665Y88309D01*
X54754Y88758D01*
X54665Y89207D01*
X54897Y89930D01*
X54902Y89934D01*
X54993Y90024D01*
X54993Y90024D01*
X55236Y90388D01*
X55322Y90817D01*
X55322Y90817D01*
Y94935D01*
X55677Y95291D01*
X55677Y95291D01*
X55920Y95655D01*
X56005Y96084D01*
X56599Y96070D01*
Y94920D01*
X56689Y94471D01*
X56943Y94090D01*
X57324Y93835D01*
X57773Y93746D01*
X58222Y93835D01*
X58318Y93899D01*
X58758Y94040D01*
X59197Y93899D01*
X59293Y93835D01*
X59742Y93746D01*
X60191Y93835D01*
X60572Y94090D01*
X60880D01*
X61261Y93835D01*
X61710Y93746D01*
X62159Y93835D01*
X62540Y94090D01*
X62849D01*
X63230Y93835D01*
X63679Y93746D01*
X64128Y93835D01*
X64181Y93871D01*
X64529Y93801D01*
X65042Y93458D01*
X65047Y93458D01*
Y97321D01*
X66247D01*
Y93458D01*
D02*
G37*
G36*
X18440Y88798D02*
X18498Y88503D01*
X18764Y88106D01*
X26803Y80066D01*
Y79283D01*
X26246D01*
Y75917D01*
X28807D01*
X29366Y75820D01*
Y72100D01*
X33243D01*
Y75820D01*
X33243D01*
X33154Y75917D01*
Y77260D01*
X33709Y77490D01*
X37573Y73626D01*
Y72560D01*
X36633D01*
Y68840D01*
X37573D01*
Y67603D01*
X37322Y67228D01*
X37184Y66533D01*
Y63187D01*
X37322Y62492D01*
X37716Y61902D01*
X38305Y61509D01*
X38720Y61426D01*
X38946Y61275D01*
X39209Y61223D01*
X41593Y58839D01*
X42056Y58529D01*
X42602Y58421D01*
X42602Y58421D01*
X45059D01*
X45251Y58292D01*
X45523Y58238D01*
X46255Y57506D01*
X46343Y57064D01*
X46736Y56475D01*
X47326Y56082D01*
X48020Y55943D01*
X48715Y56082D01*
X49305Y56475D01*
X49698Y57064D01*
X49837Y57759D01*
X49698Y58454D01*
X49305Y59043D01*
X49027Y59229D01*
Y61461D01*
X49027Y61461D01*
X48988Y61658D01*
X49116Y62300D01*
X48978Y62995D01*
X48584Y63584D01*
X47995Y63978D01*
X47300Y64116D01*
X46605Y63978D01*
X46416Y63851D01*
X45816Y64172D01*
Y66533D01*
X45678Y67228D01*
X45284Y67817D01*
X44695Y68211D01*
X44000Y68349D01*
X43808Y68311D01*
X42773Y69346D01*
Y71690D01*
X43600D01*
Y74028D01*
X44800D01*
Y71690D01*
X46460D01*
Y71752D01*
X47060Y72014D01*
X47261Y71880D01*
X47729Y71787D01*
X51179D01*
X51429Y71837D01*
X53580D01*
X54030Y71926D01*
X54410Y72180D01*
X54665Y72561D01*
X54754Y73010D01*
X54665Y73459D01*
X54629Y73512D01*
X54699Y73860D01*
X55041Y74374D01*
X55042Y74379D01*
X51179D01*
Y75579D01*
X55042D01*
X55041Y75584D01*
X54788Y75963D01*
X55041Y76342D01*
X55042Y76347D01*
X51179D01*
Y77547D01*
X55498D01*
X55615Y77692D01*
X61577D01*
X61835Y77435D01*
X62232Y77170D01*
X62700Y77077D01*
X74366D01*
Y66422D01*
X74267Y66307D01*
X73766Y66005D01*
X73521Y66054D01*
X73209Y65992D01*
X72771Y66233D01*
X72609Y66377D01*
Y66814D01*
X72524Y67243D01*
X72281Y67607D01*
X72281Y67607D01*
X71695Y68193D01*
X71331Y68436D01*
X70902Y68522D01*
X70902Y68522D01*
X58359D01*
X57930Y68436D01*
X57566Y68193D01*
X57566Y68193D01*
X56980Y67607D01*
X56737Y67243D01*
X56652Y66814D01*
X56652Y66814D01*
Y65143D01*
X56599Y64880D01*
Y60077D01*
X56661Y59767D01*
Y57647D01*
X49292Y50278D01*
X36632D01*
X30429Y56481D01*
Y58800D01*
Y62120D01*
X30678Y62492D01*
X30816Y63187D01*
Y66533D01*
X30678Y67228D01*
X30284Y67817D01*
X29695Y68211D01*
X29000Y68349D01*
X28305Y68211D01*
X27716Y67817D01*
X27322Y67228D01*
X27184Y66533D01*
Y63187D01*
X27322Y62492D01*
X27716Y61902D01*
X28186Y61588D01*
Y59922D01*
X27186D01*
X27186Y59922D01*
X27073Y59899D01*
X26954Y60054D01*
X26411Y60471D01*
X25779Y60733D01*
X25100Y60822D01*
X24421Y60733D01*
X23789Y60471D01*
X23246Y60054D01*
X22829Y59511D01*
X22567Y58879D01*
X22536Y58643D01*
X21902Y58428D01*
X15968Y64363D01*
Y70581D01*
X19903D01*
Y75324D01*
X19383D01*
Y76594D01*
X19979Y77120D01*
X20125Y77101D01*
X21065Y77225D01*
X21940Y77587D01*
X22693Y78165D01*
X23270Y78917D01*
X23632Y79792D01*
X23756Y80732D01*
X23632Y81672D01*
X23270Y82548D01*
X22693Y83300D01*
X21940Y83877D01*
X21065Y84240D01*
X20125Y84363D01*
X19185Y84240D01*
X18309Y83877D01*
X17558Y83300D01*
X16980Y82548D01*
X16618Y81672D01*
X16568Y81292D01*
X15968Y81331D01*
Y87175D01*
X17859Y89066D01*
X18440Y88798D01*
D02*
G37*
G36*
X17710Y93796D02*
X18057Y93529D01*
X18134Y92855D01*
X18103Y92772D01*
X13879Y88547D01*
X13614Y88150D01*
X13521Y87682D01*
Y63856D01*
X13614Y63388D01*
X13879Y62991D01*
X29005Y47864D01*
X28767Y47254D01*
X28149Y47131D01*
X27428Y46649D01*
X26945Y45927D01*
X26776Y45076D01*
Y44003D01*
X29000D01*
X31224D01*
Y44639D01*
X31782Y44898D01*
X32184Y44622D01*
Y41730D01*
X32322Y41035D01*
X32716Y40446D01*
X33305Y40052D01*
X34000Y39914D01*
X34695Y40052D01*
X35284Y40446D01*
X35678Y41035D01*
X35816Y41730D01*
Y45076D01*
X35678Y45771D01*
X35284Y46360D01*
X34695Y46754D01*
X34000Y46892D01*
X33946Y46882D01*
X33789Y46987D01*
X33321Y47080D01*
X33250D01*
X25328Y55002D01*
X25543Y55636D01*
X25779Y55667D01*
X26411Y55929D01*
X26954Y56346D01*
X27371Y56889D01*
X27586Y57407D01*
X28186Y57288D01*
Y56016D01*
X28186Y56016D01*
X28271Y55587D01*
X28514Y55223D01*
X35374Y48363D01*
X35374Y48363D01*
X35738Y48120D01*
X36167Y48035D01*
X39761D01*
X40154Y47581D01*
X40096Y47154D01*
X40093Y47152D01*
X39538Y46785D01*
X39000Y46892D01*
X38305Y46754D01*
X37716Y46360D01*
X37322Y45771D01*
X37184Y45076D01*
Y43213D01*
X37097Y42775D01*
Y40942D01*
X35379Y39224D01*
X30255D01*
X30073Y39823D01*
X30573Y40157D01*
X31055Y40879D01*
X31224Y41730D01*
Y42803D01*
X29000D01*
X26776D01*
Y41730D01*
X26945Y40879D01*
X27428Y40157D01*
X27927Y39823D01*
X27745Y39224D01*
X26207D01*
X24245Y41186D01*
X23848Y41451D01*
X23380Y41544D01*
X23054D01*
Y42783D01*
X16146D01*
Y42422D01*
X14710D01*
Y43160D01*
X10833D01*
Y39440D01*
X14710D01*
Y40178D01*
X16146D01*
Y39417D01*
X18680D01*
X19100Y38817D01*
X19028Y38452D01*
X19166Y37757D01*
X19264Y37611D01*
X19238Y37411D01*
X19004Y36920D01*
X18309Y36633D01*
X17558Y36056D01*
X16980Y35304D01*
X16618Y34428D01*
X16494Y33488D01*
X16618Y32548D01*
X16980Y31672D01*
X17558Y30920D01*
X18309Y30343D01*
X19185Y29981D01*
X20125Y29857D01*
X20330Y29884D01*
X22338Y27876D01*
X22108Y27322D01*
X19954D01*
Y27583D01*
X16392D01*
Y24217D01*
X19954D01*
Y25078D01*
X24128D01*
Y23530D01*
X28871D01*
Y28470D01*
X28550D01*
Y30917D01*
X31446D01*
X31554Y30896D01*
X32053D01*
X32140Y30878D01*
X40860D01*
X43276Y28463D01*
X43276Y28463D01*
X43640Y28220D01*
X44069Y28134D01*
X48414D01*
X48414Y28134D01*
X48843Y28220D01*
X49207Y28463D01*
X49793Y29049D01*
X49793Y29049D01*
X50036Y29412D01*
X50122Y29842D01*
Y30807D01*
X50284Y30916D01*
X50678Y31505D01*
X50816Y32200D01*
X50678Y32895D01*
X50284Y33484D01*
X49695Y33878D01*
X49000Y34016D01*
X48305Y33878D01*
X47913Y33616D01*
X47330Y33786D01*
X47256Y33843D01*
X47237Y33940D01*
X46963Y34350D01*
X46553Y34624D01*
X46069Y34720D01*
X45969D01*
X45887Y34843D01*
X42744Y37986D01*
Y39705D01*
X43287Y40043D01*
X43344Y40044D01*
X44000Y39914D01*
X44695Y40052D01*
X45284Y40446D01*
X45678Y41035D01*
X45816Y41730D01*
Y42231D01*
X50939D01*
X51272Y41732D01*
X51180Y41509D01*
X51073Y40700D01*
X51180Y39891D01*
X51492Y39137D01*
X51989Y38489D01*
X52637Y37992D01*
X53391Y37680D01*
X54200Y37573D01*
X55009Y37680D01*
X55763Y37992D01*
X56411Y38489D01*
X56908Y39137D01*
X57220Y39891D01*
X57327Y40700D01*
X57220Y41509D01*
X56908Y42263D01*
X56411Y42911D01*
X55773Y43401D01*
X55675Y43482D01*
X55611Y44087D01*
X59039Y47515D01*
X59304Y47912D01*
X59310Y47943D01*
X61780Y50413D01*
X62509Y50293D01*
X62575Y50195D01*
X64394Y48376D01*
X64790Y48111D01*
X65259Y48018D01*
X65417D01*
Y43546D01*
X66028D01*
Y42452D01*
X65916Y42377D01*
X65522Y41788D01*
X65384Y41093D01*
Y37550D01*
X65522Y36855D01*
X65916Y36266D01*
X66505Y35872D01*
X66922Y35789D01*
X67138Y35156D01*
X66540Y34558D01*
X65223D01*
X63786Y35995D01*
Y36717D01*
X63878Y36855D01*
X64016Y37550D01*
Y41093D01*
X63878Y41788D01*
X63484Y42377D01*
X62895Y42771D01*
X62200Y42909D01*
X61505Y42771D01*
X60916Y42377D01*
X60522Y41788D01*
X60384Y41093D01*
Y37550D01*
X60522Y36855D01*
X60916Y36266D01*
X61505Y35872D01*
X61543Y35530D01*
X61628Y35101D01*
X61871Y34737D01*
X63965Y32643D01*
X63965Y32643D01*
X64329Y32400D01*
X64758Y32315D01*
X64758Y32315D01*
X67004D01*
X67005Y32315D01*
X67434Y32400D01*
X67798Y32643D01*
X70712Y35558D01*
X70712Y35558D01*
X70769Y35642D01*
X71505Y35872D01*
X72200Y35734D01*
X72873Y35868D01*
X73018Y35651D01*
X73607Y35257D01*
X74302Y35119D01*
X74997Y35257D01*
X75586Y35651D01*
X75980Y36240D01*
X76118Y36935D01*
X75980Y37630D01*
X75586Y38219D01*
X74997Y38613D01*
X74302Y38751D01*
X74016Y38986D01*
Y41093D01*
X73905Y41653D01*
X74234Y42252D01*
X77680D01*
X77926Y42007D01*
X77926Y42007D01*
X77926Y42007D01*
X79526Y40407D01*
X79526Y40407D01*
X79890Y40164D01*
X80319Y40078D01*
X80319Y40078D01*
X99400D01*
X99400Y40078D01*
X99829Y40164D01*
X100193Y40407D01*
X106065Y46278D01*
X107207D01*
X107316Y46116D01*
X107905Y45722D01*
X108600Y45584D01*
X108736Y45611D01*
X109200Y45230D01*
Y1884D01*
X91286Y1884D01*
X90906Y2348D01*
X90916Y2400D01*
X90778Y3095D01*
X90476Y3546D01*
Y5330D01*
X94273Y9127D01*
X94273Y9127D01*
X98770Y13624D01*
X100286D01*
X100461Y13361D01*
X101213Y12859D01*
X102100Y12682D01*
X102987Y12859D01*
X103739Y13361D01*
X104241Y14113D01*
X104418Y15000D01*
X104241Y15887D01*
X103739Y16639D01*
X102987Y17141D01*
X102100Y17318D01*
X101213Y17141D01*
X100461Y16639D01*
X100286Y16376D01*
X98200D01*
X98200Y16376D01*
X97673Y16272D01*
X97227Y15973D01*
X97227Y15973D01*
X95231Y13977D01*
X94676Y14207D01*
Y20897D01*
X94745Y20999D01*
X94849Y21525D01*
Y24636D01*
X94914Y24733D01*
X95449Y25082D01*
X95509Y25070D01*
X100154D01*
X100481Y25135D01*
X100653Y25250D01*
X100776D01*
X101317Y25108D01*
Y23527D01*
X105483D01*
Y25108D01*
X105083D01*
Y28054D01*
X101717D01*
Y27493D01*
X101007D01*
Y27812D01*
X100942Y28139D01*
X100757Y28415D01*
X100481Y28600D01*
X100154Y28665D01*
X97399D01*
Y28809D01*
X97294Y29336D01*
X96996Y29783D01*
X96996Y29783D01*
X96299Y30480D01*
X96193Y31012D01*
X95799Y31601D01*
X95210Y31995D01*
X94515Y32133D01*
X93820Y31995D01*
X93327Y31665D01*
X92912Y31748D01*
X92679Y31855D01*
X92674Y31879D01*
X92490Y32155D01*
X92213Y32340D01*
X91887Y32405D01*
X87241D01*
X86915Y32340D01*
X86638Y32155D01*
X86453Y31879D01*
X86388Y31552D01*
Y29663D01*
X86453Y29336D01*
X86638Y29060D01*
X86915Y28875D01*
X87241Y28810D01*
X90162D01*
X90400Y28454D01*
X92097Y26757D01*
Y25097D01*
X91887Y24925D01*
X87241D01*
X86915Y24860D01*
X86638Y24675D01*
X86453Y24398D01*
X86388Y24072D01*
Y22992D01*
X85763Y22366D01*
X84960D01*
Y23167D01*
X81240D01*
Y19290D01*
X81830D01*
Y18207D01*
X79557Y15933D01*
X79004Y16229D01*
X79016Y16290D01*
Y19833D01*
X78884Y20496D01*
X78951Y20831D01*
X78951Y20831D01*
Y21543D01*
X79113Y21652D01*
X79507Y22241D01*
X79645Y22936D01*
X79507Y23631D01*
X79113Y24220D01*
X78524Y24614D01*
X77829Y24752D01*
X77134Y24614D01*
X76545Y24220D01*
X76536Y24206D01*
X75939Y24148D01*
X75379Y24707D01*
X75015Y24950D01*
X74586Y25036D01*
X74586Y25036D01*
X61740D01*
X61274Y25128D01*
X60580Y24990D01*
X59990Y24597D01*
X59597Y24007D01*
X59459Y23312D01*
X59597Y22617D01*
X59990Y22028D01*
X60580Y21635D01*
X60603Y21630D01*
X60703Y21467D01*
X60821Y20975D01*
X60522Y20528D01*
X60384Y19833D01*
Y16716D01*
X60221Y16683D01*
X59632Y16290D01*
X59238Y15701D01*
X59100Y15006D01*
X59238Y14311D01*
X59632Y13722D01*
X60221Y13328D01*
X60916Y13190D01*
X61611Y13328D01*
X62200Y13722D01*
X62594Y14311D01*
X62644Y14562D01*
X62895Y14612D01*
X63484Y15006D01*
X63878Y15595D01*
X64016Y16290D01*
Y19833D01*
X63910Y20368D01*
X63948Y20563D01*
X64376Y20991D01*
X65165D01*
X65495Y20391D01*
X65384Y19833D01*
Y16548D01*
X65045Y16210D01*
X64802Y15846D01*
X64717Y15417D01*
X64717Y15416D01*
Y6480D01*
X64705Y6478D01*
X64116Y6084D01*
X63722Y5495D01*
X63584Y4800D01*
X63722Y4105D01*
X63844Y3923D01*
X63523Y3323D01*
X15307D01*
X2923Y15707D01*
Y79593D01*
X4126Y80796D01*
X4710Y80531D01*
X4807Y79792D01*
X5169Y78917D01*
X5746Y78165D01*
X6498Y77587D01*
X7374Y77225D01*
X8314Y77101D01*
X9254Y77225D01*
X10130Y77587D01*
X10882Y78165D01*
X11459Y78917D01*
X11821Y79792D01*
X11945Y80732D01*
X11821Y81672D01*
X11459Y82548D01*
X10882Y83300D01*
X10130Y83877D01*
X9254Y84240D01*
X8516Y84337D01*
X8250Y84920D01*
X16876Y93546D01*
X16972Y93690D01*
X17170Y93765D01*
X17642Y93813D01*
X17710Y93796D01*
D02*
G37*
%LPC*%
G36*
X8314Y131607D02*
X7374Y131483D01*
X6498Y131121D01*
X5746Y130544D01*
X5169Y129792D01*
X4807Y128916D01*
X4683Y127976D01*
X4807Y127036D01*
X5169Y126161D01*
X5746Y125409D01*
X6498Y124832D01*
X7374Y124469D01*
X8314Y124345D01*
X9254Y124469D01*
X10130Y124832D01*
X10882Y125409D01*
X11459Y126161D01*
X11821Y127036D01*
X11945Y127976D01*
X11821Y128916D01*
X11459Y129792D01*
X10882Y130544D01*
X10130Y131121D01*
X9254Y131483D01*
X8314Y131607D01*
D02*
G37*
G36*
X96362Y141462D02*
X90438D01*
Y135538D01*
X96362D01*
Y141462D01*
D02*
G37*
G36*
X93400Y121488D02*
X92627Y121386D01*
X91906Y121088D01*
X91287Y120613D01*
X90835Y120024D01*
X90605Y119978D01*
X90016Y119584D01*
X89622Y118995D01*
X89484Y118300D01*
X89622Y117605D01*
X90016Y117016D01*
X90605Y116622D01*
X91198Y116504D01*
X91287Y116387D01*
X91906Y115912D01*
X92627Y115614D01*
X93400Y115512D01*
X94173Y115614D01*
X94894Y115912D01*
X95513Y116387D01*
X95987Y117006D01*
X96286Y117727D01*
X96388Y118500D01*
X96286Y119273D01*
X95987Y119994D01*
X95513Y120613D01*
X94894Y121088D01*
X94173Y121386D01*
X93400Y121488D01*
D02*
G37*
G36*
Y101488D02*
X92627Y101386D01*
X91986Y101120D01*
X91600Y101197D01*
X90905Y101059D01*
X90316Y100665D01*
X89922Y100076D01*
X89784Y99381D01*
X89922Y98686D01*
X90316Y98097D01*
X90480Y97988D01*
X90514Y97727D01*
X90812Y97006D01*
X91287Y96387D01*
X91906Y95912D01*
X92627Y95614D01*
X93400Y95512D01*
X94173Y95614D01*
X94894Y95912D01*
X95513Y96387D01*
X95987Y97006D01*
X96286Y97727D01*
X96388Y98500D01*
X96286Y99273D01*
X95987Y99994D01*
X95513Y100613D01*
X94894Y101087D01*
X94173Y101386D01*
X93400Y101488D01*
D02*
G37*
G36*
X79427Y100897D02*
X78978Y100807D01*
X78597Y100553D01*
X78342Y100172D01*
X78253Y99723D01*
Y94920D01*
X78342Y94471D01*
X78597Y94090D01*
X78978Y93835D01*
X79427Y93746D01*
X79876Y93835D01*
X80257Y94090D01*
X80511Y94471D01*
X80601Y94920D01*
Y99723D01*
X80511Y100172D01*
X80257Y100553D01*
X79876Y100807D01*
X79427Y100897D01*
D02*
G37*
G36*
X37945Y119424D02*
X36872D01*
Y117800D01*
X40049D01*
X39999Y118051D01*
X39517Y118772D01*
X38796Y119255D01*
X37945Y119424D01*
D02*
G37*
G36*
X40049Y116600D02*
X36872D01*
Y114976D01*
X37945D01*
X38796Y115146D01*
X39517Y115628D01*
X39999Y116349D01*
X40049Y116600D01*
D02*
G37*
G36*
X8314Y68615D02*
X7374Y68491D01*
X6498Y68129D01*
X5746Y67552D01*
X5169Y66800D01*
X4807Y65924D01*
X4683Y64984D01*
X4807Y64044D01*
X5169Y63169D01*
X5746Y62416D01*
X6498Y61839D01*
X7374Y61477D01*
X8314Y61353D01*
X9254Y61477D01*
X10130Y61839D01*
X10882Y62416D01*
X11459Y63169D01*
X11821Y64044D01*
X11945Y64984D01*
X11821Y65924D01*
X11459Y66800D01*
X10882Y67552D01*
X10130Y68129D01*
X9254Y68491D01*
X8314Y68615D01*
D02*
G37*
G36*
X20125Y52867D02*
X19185Y52743D01*
X18309Y52381D01*
X17558Y51804D01*
X16980Y51052D01*
X16618Y50176D01*
X16494Y49236D01*
X16618Y48296D01*
X16980Y47420D01*
X17558Y46668D01*
X18309Y46091D01*
X19185Y45729D01*
X20125Y45605D01*
X21065Y45729D01*
X21940Y46091D01*
X22693Y46668D01*
X23270Y47420D01*
X23632Y48296D01*
X23756Y49236D01*
X23632Y50176D01*
X23270Y51052D01*
X22693Y51804D01*
X21940Y52381D01*
X21065Y52743D01*
X20125Y52867D01*
D02*
G37*
G36*
X8314D02*
X7374Y52743D01*
X6498Y52381D01*
X5746Y51804D01*
X5169Y51052D01*
X4807Y50176D01*
X4683Y49236D01*
X4807Y48296D01*
X5169Y47420D01*
X5746Y46668D01*
X6498Y46091D01*
X7374Y45729D01*
X8314Y45605D01*
X9254Y45729D01*
X10130Y46091D01*
X10882Y46668D01*
X11459Y47420D01*
X11821Y48296D01*
X11945Y49236D01*
X11821Y50176D01*
X11459Y51052D01*
X10882Y51804D01*
X10130Y52381D01*
X9254Y52743D01*
X8314Y52867D01*
D02*
G37*
G36*
Y37119D02*
X7374Y36995D01*
X6498Y36633D01*
X5746Y36056D01*
X5169Y35304D01*
X4807Y34428D01*
X4683Y33488D01*
X4807Y32548D01*
X5169Y31672D01*
X5746Y30920D01*
X6498Y30343D01*
X7374Y29981D01*
X8314Y29857D01*
X9254Y29981D01*
X10130Y30343D01*
X10882Y30920D01*
X11459Y31672D01*
X11821Y32548D01*
X11945Y33488D01*
X11821Y34428D01*
X11459Y35304D01*
X10882Y36056D01*
X10130Y36633D01*
X9254Y36995D01*
X8314Y37119D01*
D02*
G37*
G36*
X41272Y28470D02*
X36529D01*
Y24554D01*
X34008Y22032D01*
X33487Y22136D01*
X31913D01*
X31371Y22028D01*
X30912Y21722D01*
X30606Y21263D01*
X30498Y20721D01*
Y18753D01*
X30606Y18211D01*
X30912Y17752D01*
X31371Y17446D01*
X31913Y17338D01*
X33487D01*
X34029Y17446D01*
X34488Y17752D01*
X34794Y18211D01*
X34902Y18753D01*
Y19754D01*
X38614Y23467D01*
X38614Y23467D01*
X38656Y23530D01*
X41272D01*
Y28470D01*
D02*
G37*
G36*
X105483Y22327D02*
X104000D01*
Y20746D01*
X105483D01*
Y22327D01*
D02*
G37*
G36*
X102800D02*
X101317D01*
Y20746D01*
X102800D01*
Y22327D01*
D02*
G37*
G36*
X49809Y25468D02*
X48530D01*
X48046Y25372D01*
X47636Y25098D01*
X47362Y24688D01*
X47266Y24204D01*
Y23439D01*
X47120Y23410D01*
X46757Y23167D01*
X46757Y23167D01*
X37748Y14158D01*
X37228Y14262D01*
X35653D01*
X35185Y14169D01*
X33826Y15528D01*
X33462Y15771D01*
X33033Y15856D01*
X33033Y15856D01*
X24335D01*
X24335Y15856D01*
X23905Y15771D01*
X23836Y15725D01*
X23352Y16122D01*
X23632Y16800D01*
X23756Y17740D01*
X23632Y18680D01*
X23270Y19556D01*
X22693Y20308D01*
X21940Y20885D01*
X21065Y21247D01*
X20125Y21371D01*
X19185Y21247D01*
X18309Y20885D01*
X17558Y20308D01*
X16980Y19556D01*
X16618Y18680D01*
X16494Y17740D01*
X16618Y16800D01*
X16980Y15924D01*
X17558Y15172D01*
X18309Y14595D01*
X19185Y14233D01*
X20125Y14109D01*
X21065Y14233D01*
X21634Y14468D01*
X21973Y13960D01*
X20018Y12004D01*
X19870Y11783D01*
X18546D01*
Y8417D01*
X25454D01*
Y8477D01*
X33514D01*
X33964Y8026D01*
X34361Y7761D01*
X34830Y7668D01*
X39110D01*
X39579Y7761D01*
X39976Y8026D01*
X40857Y8908D01*
X45775D01*
X45816Y8847D01*
X46405Y8454D01*
X47100Y8315D01*
X47795Y8454D01*
X48384Y8847D01*
X48778Y9437D01*
X48916Y10131D01*
X48778Y10826D01*
X48384Y11416D01*
X47795Y11809D01*
X47100Y11947D01*
X46405Y11809D01*
X45816Y11416D01*
X45775Y11355D01*
X40351D01*
X39882Y11262D01*
X39485Y10997D01*
X39226Y10737D01*
X38938Y10807D01*
X38642Y11002D01*
Y11880D01*
X47614Y20852D01*
X47636Y20850D01*
X48046Y20576D01*
X48530Y20480D01*
X49809D01*
X50293Y20576D01*
X50703Y20850D01*
X50977Y21260D01*
X51073Y21744D01*
Y24204D01*
X50977Y24688D01*
X50703Y25098D01*
X50293Y25372D01*
X49809Y25468D01*
D02*
G37*
G36*
X8314Y21371D02*
X7374Y21247D01*
X6498Y20885D01*
X5746Y20308D01*
X5169Y19556D01*
X4807Y18680D01*
X4683Y17740D01*
X4807Y16800D01*
X5169Y15924D01*
X5746Y15172D01*
X6498Y14595D01*
X7374Y14233D01*
X8314Y14109D01*
X9254Y14233D01*
X10130Y14595D01*
X10882Y15172D01*
X11459Y15924D01*
X11821Y16800D01*
X11945Y17740D01*
X11821Y18680D01*
X11459Y19556D01*
X10882Y20308D01*
X10130Y20885D01*
X9254Y21247D01*
X8314Y21371D01*
D02*
G37*
%LPD*%
D17*
X23732Y72952D02*
D03*
X17629D02*
D03*
D18*
X67100Y45327D02*
D03*
Y48673D02*
D03*
X28179Y125400D02*
D03*
Y122054D02*
D03*
X103400Y26273D02*
D03*
Y22927D02*
D03*
X101100Y85595D02*
D03*
Y88942D02*
D03*
D29*
X69700Y53528D02*
D03*
Y57072D02*
D03*
X27800Y131728D02*
D03*
Y135272D02*
D03*
X65900Y53528D02*
D03*
Y57072D02*
D03*
X44200Y74028D02*
D03*
Y77572D02*
D03*
X91600Y52972D02*
D03*
Y49428D02*
D03*
X74435Y49428D02*
D03*
Y52972D02*
D03*
X83100Y21228D02*
D03*
Y24772D02*
D03*
D30*
X30728Y94100D02*
D03*
X34272D02*
D03*
X96172Y84900D02*
D03*
X92628D02*
D03*
X79672Y103800D02*
D03*
X76128D02*
D03*
X9228Y41300D02*
D03*
X12772D02*
D03*
X27761Y73960D02*
D03*
X31305D02*
D03*
X63100Y124800D02*
D03*
X66643D02*
D03*
X92628Y88700D02*
D03*
X96172D02*
D03*
X60872Y104500D02*
D03*
X57328D02*
D03*
X66643Y128500D02*
D03*
X63100D02*
D03*
X35028Y70700D02*
D03*
X38572D02*
D03*
D31*
X21273Y41100D02*
D03*
X17927D02*
D03*
X28027Y77600D02*
D03*
X31373D02*
D03*
X33473Y111400D02*
D03*
X30127D02*
D03*
X26327Y104900D02*
D03*
X29673D02*
D03*
X30873Y32600D02*
D03*
X27527D02*
D03*
X18173Y25900D02*
D03*
X14827D02*
D03*
X20327Y10100D02*
D03*
X23673D02*
D03*
X57027Y112400D02*
D03*
X60373D02*
D03*
X60773Y108100D02*
D03*
X57427D02*
D03*
X96127Y64500D02*
D03*
X99473D02*
D03*
D34*
X25100Y58200D02*
D03*
D36*
X96139Y84079D02*
X96565Y84506D01*
X86021Y82853D02*
X88505D01*
X94123Y82357D02*
X95845Y84079D01*
X96565Y84506D02*
Y84800D01*
X95845Y84079D02*
X96139D01*
D37*
X67282Y126946D02*
X69488Y124740D01*
X51612Y102060D02*
X52016Y102464D01*
X66643Y128500D02*
X66722D01*
X67282Y127940D01*
Y126946D02*
Y127940D01*
X66643Y124800D02*
X66703Y124740D01*
X69488D01*
X69548Y124680D01*
X90213Y91688D02*
X94400D01*
X86000Y95900D02*
X90213Y91688D01*
X52016Y102464D02*
Y103116D01*
X50783Y102060D02*
X51612D01*
X52016Y103116D02*
X52200Y103300D01*
X86000Y95900D02*
Y104800D01*
X27800Y122239D02*
Y122535D01*
X23700Y119001D02*
X23884Y119186D01*
X24746D02*
X27800Y122239D01*
X23884Y119186D02*
X24746D01*
X24240Y113101D02*
X24440Y113300D01*
X20111Y112221D02*
X20991Y113101D01*
X24240D01*
X24440Y113300D02*
X24700D01*
X28035Y122300D02*
X36048D01*
D39*
X63440Y51060D02*
X65259Y49241D01*
X63440Y51060D02*
Y55364D01*
X64409Y56333D01*
X85344Y84811D02*
X92224D01*
Y88689D01*
X75545Y96579D02*
Y102844D01*
X75499Y59517D02*
Y63176D01*
X69700Y57465D02*
X73448D01*
X69684Y57481D02*
Y63266D01*
X48080Y78825D02*
X51976D01*
X43861Y78410D02*
X44255D01*
X41348Y80924D02*
Y82443D01*
X65240Y56333D02*
X66077Y57170D01*
X44000Y43454D02*
X53091D01*
X28827Y9700D02*
X34021D01*
X34830Y8891D01*
X39110D01*
X40351Y10131D01*
X63869Y22214D02*
X73683D01*
X62752Y21097D02*
X63869Y22214D01*
X40351Y10131D02*
X47100D01*
X83054Y21143D02*
X86270D01*
X58174Y48381D02*
Y48537D01*
X63100Y53463D01*
X53091Y43454D02*
X53248D01*
X58174Y48381D01*
X64409Y56333D02*
X65240D01*
X66077Y57170D02*
Y57288D01*
X63440Y53803D02*
Y55364D01*
X63100Y53463D02*
X63440Y53803D01*
X75503Y13753D02*
X79107D01*
X74690Y6690D02*
Y7817D01*
X70100Y2100D02*
X74690Y6690D01*
X72200Y13873D02*
X74753Y11320D01*
Y7880D02*
Y11320D01*
X74690Y7817D02*
X74753Y7880D01*
X72200Y13873D02*
Y18061D01*
X14800Y2100D02*
X70100D01*
X74800Y14456D02*
Y21097D01*
Y14456D02*
X75503Y13753D01*
X79107D02*
X83054Y17700D01*
X65747Y96534D02*
Y100555D01*
X79200Y74500D02*
X81647Y76947D01*
X19629Y88971D02*
X28027Y80573D01*
X19629Y88971D02*
Y92567D01*
Y95990D01*
X14744Y87682D02*
X19629Y92567D01*
X32744Y45856D02*
X33321D01*
X34000Y45177D01*
Y43454D02*
Y45177D01*
X14744Y63856D02*
X32744Y45856D01*
X28027Y77600D02*
Y80573D01*
X47729Y73010D02*
X51179D01*
X75590Y93890D02*
Y96534D01*
X70000Y88300D02*
X75590Y93890D01*
X75545Y96579D02*
X75590Y96534D01*
X70000Y78300D02*
X75590D01*
X62700D02*
X70000D01*
Y88300D01*
X54200Y40700D02*
Y41728D01*
X53091Y42837D02*
X54200Y41728D01*
X53091Y42837D02*
Y43454D01*
X89564Y23127D02*
X90019D01*
X90600Y22546D01*
Y19200D02*
Y22546D01*
X86800Y14900D02*
X87400Y16000D01*
X90600Y19200D01*
X86270Y21143D02*
X88228Y23102D01*
X89508D01*
X47026Y73713D02*
Y77673D01*
Y73713D02*
X47729Y73010D01*
X18914Y107500D02*
X23899D01*
X26722Y110323D01*
X9512Y112228D02*
X12078Y109662D01*
X16751D01*
X18914Y107500D01*
X26722Y110323D02*
X29233D01*
X29630Y106386D02*
Y110161D01*
X30239D01*
X29395D02*
X29630D01*
X30239D02*
X30500Y109900D01*
X29233Y110323D02*
X29395Y110161D01*
X8314Y112228D02*
X9512D01*
X25419Y124072D02*
X28504Y127156D01*
X16100Y98900D02*
X22100Y104900D01*
X26228D01*
X66976Y101783D02*
X67871D01*
X68094Y102006D01*
X65747Y100555D02*
X66976Y101783D01*
X88505Y82853D02*
X90380D01*
X90793Y82440D01*
X93020D01*
X41521Y39955D02*
Y47456D01*
X66630Y49241D02*
X67100Y48772D01*
X65259Y49241D02*
X66630D01*
X62139Y18000D02*
X62200Y18061D01*
X62752Y20699D02*
Y21097D01*
X73683Y22214D02*
X74800Y21097D01*
X62200Y18258D02*
Y20148D01*
X62752Y20699D01*
X21837Y120506D02*
X23620Y122289D01*
X23636D01*
X25419Y124072D01*
Y124072D01*
X1700Y80100D02*
X16011Y94411D01*
X47026Y77673D02*
X47321Y77967D01*
Y78065D01*
X44600D02*
X47321D01*
X79200Y74000D02*
Y74500D01*
X81647Y76947D02*
X85334D01*
X44255Y78410D02*
X44600Y78065D01*
X41348Y80924D02*
X43861Y78410D01*
X21066Y38675D02*
Y40598D01*
X20844Y38452D02*
X21066Y38675D01*
Y40598D02*
X21568Y41100D01*
X14744Y63856D02*
Y87682D01*
X19629Y95990D02*
X20111Y96472D01*
X1700Y15200D02*
Y80100D01*
X38320Y42775D02*
X39000Y43454D01*
X38320Y40435D02*
Y42775D01*
X35886Y38000D02*
X38320Y40435D01*
X41521Y37479D02*
X45022Y33978D01*
X41521Y39955D02*
X41521Y39955D01*
Y37479D02*
Y39955D01*
X1700Y15200D02*
X14800Y2100D01*
X81982Y84812D02*
X85324D01*
X81279Y84109D02*
X81982Y84812D01*
X81279Y79125D02*
Y84109D01*
X75590Y78300D02*
X80454D01*
X81279Y79125D01*
X52066Y78916D02*
X62084D01*
X62700Y78300D01*
X75590Y63266D02*
Y78300D01*
X19211Y120506D02*
X21837D01*
X18800Y120095D02*
X19211Y120506D01*
X85324Y84812D02*
X85334Y84821D01*
X28827Y9700D02*
Y11132D01*
X24369Y9700D02*
X28827D01*
X23968Y10100D02*
X24369Y9700D01*
X28827Y11132D02*
X28991Y11296D01*
X29630Y106386D02*
X30216Y105800D01*
X21568Y41100D02*
X22348Y40321D01*
X69684Y57481D02*
X69700Y57465D01*
X92224Y88689D02*
X92235Y88700D01*
X75500Y102889D02*
X75545Y102844D01*
X83054Y17700D02*
Y21143D01*
X69523Y57288D02*
X69700Y57465D01*
X66077Y57288D02*
X69523D01*
X75499Y63176D02*
X75590Y63266D01*
X73448Y57465D02*
X75499Y59517D01*
X45022Y31921D02*
Y33978D01*
X25700Y38000D02*
X35886D01*
X22348Y40321D02*
X23380D01*
X25700Y38000D01*
X51976Y78825D02*
X52066Y78916D01*
X47321Y78065D02*
X48080Y78825D01*
X92206Y88729D02*
X92235Y88700D01*
X86495Y88729D02*
X92206D01*
X86466Y88758D02*
X86495Y88729D01*
X85334Y84821D02*
X85344Y84811D01*
D40*
X37800Y93316D02*
Y101786D01*
X38700Y102685D01*
Y103000D01*
D41*
X98362Y26372D02*
X103400D01*
X97834Y26900D02*
X98362Y26372D01*
X63659Y58985D02*
Y63147D01*
X77400Y20402D02*
X77829Y20831D01*
X61500Y23914D02*
X74586D01*
X77400Y20402D02*
Y21100D01*
X77829Y20831D02*
Y22936D01*
X58231Y52559D02*
X63540Y57868D01*
Y58866D01*
X63659Y58985D01*
Y63147D02*
X63675Y63163D01*
X32140Y32000D02*
X41325D01*
X44069Y29256D02*
X48414D01*
X41325Y32000D02*
X44069Y29256D01*
X20811Y11211D02*
X24335Y14735D01*
X33033D02*
X35200Y12568D01*
X24335Y14735D02*
X33033D01*
X35200Y12568D02*
X35241D01*
X36472Y11337D01*
Y11296D02*
Y11337D01*
X49000Y29842D02*
Y32200D01*
X48414Y29256D02*
X49000Y29842D01*
X74586Y23914D02*
X77400Y21100D01*
X72200Y37918D02*
X72829Y37289D01*
X73580D02*
X73934Y36935D01*
X74302D01*
X72200Y37918D02*
Y39321D01*
X72829Y37289D02*
X73580D01*
X57783Y57183D02*
Y62479D01*
X36167Y49156D02*
X49756D01*
X57783Y57183D01*
X52542Y46116D02*
X58231Y51805D01*
X61691Y58491D02*
Y62459D01*
X58231Y51805D02*
Y52559D01*
X50756Y47556D02*
X61691Y58491D01*
X41620Y47556D02*
X50756D01*
X61691Y62459D02*
X61710Y62479D01*
X77400Y18458D02*
Y20402D01*
X67200Y16683D02*
Y18258D01*
X65838Y5881D02*
Y15417D01*
X66519Y16002D02*
X67200Y16683D01*
X65838Y15417D02*
X66424Y16002D01*
X66519D01*
X69919Y42214D02*
X71079Y43374D01*
X78145D02*
X78719Y42800D01*
X71079Y43374D02*
X78145D01*
X78719Y42800D02*
X80319Y41200D01*
X69919Y36351D02*
Y42214D01*
X78719Y42800D02*
X78719D01*
X81910Y53274D02*
Y53706D01*
X80451Y55165D02*
X81910Y53706D01*
Y53274D02*
X84091Y51093D01*
Y49950D02*
Y51093D01*
Y49950D02*
X85569Y48472D01*
X84091Y55914D02*
X84101Y55905D01*
X84091Y55914D02*
Y57786D01*
X79527Y62350D02*
X84091Y57786D01*
X96565Y84800D02*
Y88700D01*
X98928Y22828D02*
X103400D01*
X57328Y104561D02*
X57489Y104400D01*
X57328Y104561D02*
Y108100D01*
X84101Y55905D02*
X88667D01*
X79527Y62350D02*
Y63266D01*
X88667Y55905D02*
X91600Y52972D01*
X80319Y41200D02*
X99400D01*
X31769Y73960D02*
Y77500D01*
X41651Y68882D02*
Y74949D01*
Y68882D02*
X44000Y66533D01*
X37456Y79144D02*
X41651Y74949D01*
X44257Y84143D02*
X45552Y82848D01*
X44000Y64809D02*
Y66533D01*
X45552Y82848D02*
X47516Y80884D01*
X37456Y79144D02*
Y83557D01*
X38042Y84143D01*
X44257D01*
X101100Y89130D02*
X101880Y88350D01*
X101400Y75550D02*
X102475Y76624D01*
X98700Y72850D02*
X101400Y75550D01*
X98792Y65280D02*
X99572Y64500D01*
X29307Y58800D02*
Y64501D01*
Y56016D02*
Y58800D01*
X25100Y58200D02*
X25674Y58774D01*
X27160D01*
X27186Y58800D01*
X29307D01*
X103400Y104369D02*
Y108500D01*
X102600Y103569D02*
X103400Y104369D01*
X102600Y103200D02*
Y103569D01*
X70902Y67400D02*
X71488Y66814D01*
X58359Y67400D02*
X70902D01*
X71488Y64848D02*
Y66814D01*
X57773Y62479D02*
Y66814D01*
X58359Y67400D01*
X16011Y94411D02*
Y98900D01*
X73502Y97341D02*
Y99815D01*
Y97341D02*
X73521Y97321D01*
X69873Y131027D02*
X73500Y127400D01*
Y99817D02*
X73502Y99815D01*
X73500Y99817D02*
Y127400D01*
X71553Y99751D02*
X71825Y100023D01*
X71553Y97321D02*
Y99751D01*
X71239Y121000D02*
X71825Y120414D01*
Y100023D02*
Y120414D01*
X63704Y121000D02*
X71239D01*
X78743Y114700D02*
X89200D01*
X76934Y115821D02*
Y116509D01*
Y115821D02*
X77812Y114943D01*
X78501D02*
X78743Y114700D01*
X77812Y114943D02*
X78501D01*
X64400Y112834D02*
X66588Y115022D01*
X68666Y115900D02*
Y117100D01*
X67788Y115022D02*
X68666Y115900D01*
X66588Y115022D02*
X67788D01*
X63869Y101081D02*
X66000Y103211D01*
X61810Y96534D02*
Y101285D01*
X64400Y103874D02*
Y112834D01*
X61810Y101285D02*
X64400Y103874D01*
X63869Y96624D02*
Y101081D01*
X66000Y103211D02*
X67900Y105112D01*
Y109134D01*
X68666Y109900D01*
X85353Y80865D02*
X89964D01*
X90535Y80740D02*
X91227Y80048D01*
X89964Y80865D02*
X90088Y80740D01*
X90535D01*
X91227Y80048D02*
X95096D01*
X90074Y63880D02*
Y70456D01*
X85353Y72991D02*
X89802D01*
X92500Y70293D01*
X90074Y63880D02*
X93434Y60520D01*
X85334Y73010D02*
X85353Y72991D01*
X85334Y71042D02*
X89488D01*
X90074Y70456D01*
X92500Y63717D02*
Y70293D01*
Y63717D02*
X94096Y62120D01*
X93434Y60520D02*
X102166D01*
X41521Y47456D02*
X41620Y47556D01*
X29307Y56016D02*
X36167Y49156D01*
X57964Y96624D02*
Y100681D01*
X60233Y102951D01*
Y103640D01*
X60993Y104400D01*
X61111D01*
X57873Y96534D02*
X57964Y96624D01*
X48838Y93123D02*
X48838D01*
X50674Y94959D01*
X51658D02*
X51919Y95220D01*
X50674Y94959D02*
X51658D01*
X47126Y87466D02*
Y91411D01*
X48838Y93123D01*
X48750Y86790D02*
X52066D01*
X47126Y87466D02*
X47712Y86880D01*
X45526Y92668D02*
X45945Y93087D01*
X48659Y86880D02*
X48750Y86790D01*
X45526Y86803D02*
X47419Y84911D01*
X45526Y86803D02*
Y92668D01*
X47419Y84911D02*
X51977D01*
X45945Y93087D02*
Y93455D01*
X47712Y86880D02*
X48659D01*
X48711Y22374D02*
X49300Y22963D01*
X47550Y22374D02*
X48711D01*
X37743Y12568D02*
X47550Y22374D01*
X37547Y12568D02*
X37743D01*
X36472Y11493D02*
X37547Y12568D01*
X20811Y10880D02*
Y11211D01*
X20031Y10100D02*
X20811Y10880D01*
X38699Y26200D02*
X39683D01*
X37821Y25322D02*
X38699Y26200D01*
X37821Y24260D02*
Y25322D01*
X34003Y20442D02*
X37821Y24260D01*
X33806Y20442D02*
X34003D01*
X32732Y19367D02*
X33806Y20442D01*
X32732Y19170D02*
Y19367D01*
X60548Y117845D02*
X63704Y121000D01*
X57728Y117200D02*
X59770D01*
X60415Y117845D01*
X60548D01*
X100651Y80033D02*
X100707Y79977D01*
X100651Y80033D02*
Y85146D01*
X101100Y85595D01*
X56200Y109228D02*
Y109400D01*
Y109228D02*
X57328Y108100D01*
X78206Y111300D02*
X78306Y111200D01*
X77280Y51308D02*
Y52321D01*
X77272Y52329D02*
Y57964D01*
Y52329D02*
X77280Y52321D01*
X77272Y57964D02*
X77280Y57972D01*
X94096Y62120D02*
X101504D01*
X61131Y131027D02*
X69873D01*
X103676Y78018D02*
Y87764D01*
X103090Y88350D02*
X103676Y87764D01*
X101880Y88350D02*
X103090D01*
X101100Y89130D02*
Y89139D01*
X99572Y64500D02*
X99670D01*
X98792Y65280D02*
Y65773D01*
X98700Y65865D02*
X98792Y65773D01*
X98700Y65865D02*
Y72850D01*
X78306Y111200D02*
X89000D01*
X76934Y110028D02*
X78206Y111300D01*
X106862Y67479D02*
Y119934D01*
X101504Y62120D02*
X106862Y67479D01*
X104738Y121962D02*
X104834D01*
X93400Y128500D02*
X98200D01*
X104738Y121962D01*
X104834D02*
X106862Y119934D01*
X103400Y128000D02*
X108462Y122938D01*
Y66816D02*
Y122938D01*
X102166Y60520D02*
X108462Y66816D01*
X103400Y128000D02*
Y128500D01*
X102475Y76624D02*
Y76817D01*
X103676Y78018D01*
X59858Y132300D02*
X61131Y131027D01*
X77468Y63176D02*
X77558Y63266D01*
X77468Y60438D02*
Y63176D01*
X77280Y60250D02*
X77468Y60438D01*
X77280Y57972D02*
Y60250D01*
X20111Y112221D02*
X21068Y113177D01*
X60283Y108688D02*
Y112400D01*
Y108688D02*
X60872Y108100D01*
Y104639D02*
X61111Y104400D01*
X60872Y104639D02*
Y108100D01*
X43200Y106217D02*
X43617Y105800D01*
X43200Y106217D02*
Y107600D01*
X29000Y64809D02*
X29307Y64501D01*
X98900Y22800D02*
X98928Y22828D01*
X54884Y96084D02*
Y104218D01*
X54110Y90727D02*
X54200Y90817D01*
X52066Y90727D02*
X54110D01*
X54200Y95400D02*
X54884Y96084D01*
X54200Y90817D02*
Y95400D01*
X27800Y122535D02*
X28035Y122300D01*
X94700Y68948D02*
X95775Y67873D01*
Y67442D02*
Y67873D01*
Y67442D02*
X95930Y67287D01*
Y64500D02*
Y67287D01*
X19400Y32400D02*
X25600Y26200D01*
X18572D02*
X25117D01*
X18272Y25900D02*
X18572Y26200D01*
X25600D02*
X26101D01*
X76934Y109900D02*
Y110028D01*
X99400Y41200D02*
X105600Y47400D01*
X108600D01*
X64758Y33436D02*
X67005D01*
X62664Y35530D02*
X64758Y33436D01*
X67005D02*
X69919Y36351D01*
X62200Y39124D02*
X62664Y38660D01*
Y35530D02*
Y38660D01*
X47516Y80884D02*
X52066D01*
X77200Y18258D02*
X77400Y18458D01*
X74430Y53135D02*
X74435Y53129D01*
X30972Y32600D02*
X31554Y32017D01*
X32123D01*
X32140Y32000D01*
X91046Y75500D02*
X95047D01*
X90524Y74979D02*
X91046Y75500D01*
X85334Y74979D02*
X90524D01*
X25117Y26200D02*
X25600D01*
X26101D02*
X27428Y27528D01*
Y32600D01*
X12968Y41300D02*
X17432D01*
X17631Y41100D01*
X67150Y39174D02*
X67200Y39124D01*
X67150Y39174D02*
Y45178D01*
X67100Y45228D02*
X67150Y45178D01*
X52646Y109540D02*
X53284Y108902D01*
Y105818D02*
Y108902D01*
Y105818D02*
X54884Y104218D01*
X74435Y49271D02*
Y49350D01*
X75392Y50306D01*
X76263D01*
X77272Y51316D01*
X80341Y48247D01*
D42*
X96023Y27299D02*
Y28809D01*
X94515Y30317D02*
X96023Y28809D01*
X93473Y21525D02*
Y27327D01*
X89564Y30608D02*
X90942D01*
X91373Y30176D01*
Y29427D02*
Y30176D01*
Y29427D02*
X93473Y27327D01*
X89100Y5900D02*
X93300Y10100D01*
X98200Y15000D01*
X93300Y21352D02*
X93473Y21525D01*
X93300Y10100D02*
Y21352D01*
X96023Y27299D02*
X96454Y26867D01*
X97832D01*
X89100Y2400D02*
Y5900D01*
X13200Y104795D02*
X15687Y107281D01*
X13730Y96000D02*
Y96233D01*
X13200Y96763D02*
X13730Y96233D01*
X13200Y96763D02*
Y104795D01*
X28231Y127300D02*
X33722D01*
X57024Y112493D02*
X57117Y112400D01*
X33058Y127964D02*
X33722Y127300D01*
X27800Y126869D02*
Y129000D01*
X46900Y128983D02*
X53400Y122483D01*
X54279Y112493D02*
X57024D01*
X53400Y113372D02*
X54279Y112493D01*
X53400Y113372D02*
Y122483D01*
X98200Y15000D02*
X102100D01*
X43091Y134124D02*
X46021D01*
X30800Y133245D02*
X32386Y134831D01*
X33058Y127964D02*
Y128037D01*
X30800Y130295D02*
X33058Y128037D01*
X42384Y134831D02*
X43091Y134124D01*
X32386Y134831D02*
X42384D01*
X30800Y130295D02*
Y133245D01*
X33722Y127300D02*
X36048D01*
X27800Y126869D02*
X28231Y127300D01*
X46021Y134124D02*
X46900Y133245D01*
Y128983D02*
Y133245D01*
X27800Y129000D02*
Y131335D01*
Y126865D02*
Y126869D01*
D46*
X20111Y64976D02*
Y65781D01*
X22856Y68526D01*
Y72900D01*
X20111Y80723D02*
Y80724D01*
D47*
X20125Y127976D02*
D03*
Y112228D02*
D03*
Y96480D02*
D03*
Y80732D02*
D03*
Y64984D02*
D03*
Y49236D02*
D03*
Y33488D02*
D03*
Y17740D02*
D03*
X8314Y127976D02*
D03*
Y112228D02*
D03*
Y96480D02*
D03*
Y80732D02*
D03*
Y64984D02*
D03*
Y49236D02*
D03*
Y33488D02*
D03*
Y17740D02*
D03*
D48*
X85400Y138800D02*
D03*
X80600Y9600D02*
D03*
X9500Y138800D02*
D03*
D49*
X75400D02*
D03*
X65400D02*
D03*
X55400D02*
D03*
X45400D02*
D03*
X70600Y9600D02*
D03*
X60600D02*
D03*
X19500Y138800D02*
D03*
D50*
X85293Y126597D02*
D03*
X98400Y3703D02*
D03*
Y103500D02*
D03*
Y133500D02*
D03*
D51*
X47300Y62300D02*
D03*
X36100Y67800D02*
D03*
X35100Y73800D02*
D03*
X45946Y59970D02*
D03*
X61274Y23312D02*
D03*
X94515Y30317D02*
D03*
X90300Y26900D02*
D03*
X87500D02*
D03*
X91644Y44394D02*
D03*
X93120Y47460D02*
D03*
X94400Y44394D02*
D03*
X49000Y32200D02*
D03*
X47100Y10131D02*
D03*
X60916Y15006D02*
D03*
X74302Y36935D02*
D03*
X74435Y54940D02*
D03*
X68100Y52300D02*
D03*
X71300Y50000D02*
D03*
X52542Y46116D02*
D03*
X77829Y22936D02*
D03*
X1600Y102100D02*
D03*
X4200Y104938D02*
D03*
X1600D02*
D03*
X4200Y102100D02*
D03*
X1600Y99262D02*
D03*
X4200D02*
D03*
X4600Y86724D02*
D03*
X2000D02*
D03*
X10000Y72200D02*
D03*
X7200D02*
D03*
Y75300D02*
D03*
X4300D02*
D03*
X15000Y57000D02*
D03*
X11000D02*
D03*
X17000Y55000D02*
D03*
X54960Y58593D02*
D03*
X89100Y2400D02*
D03*
X72900Y85600D02*
D03*
X15687Y107281D02*
D03*
X36500Y60832D02*
D03*
X102600Y103200D02*
D03*
X48020Y57759D02*
D03*
X68094Y102006D02*
D03*
X94400Y91688D02*
D03*
X95303Y94509D02*
D03*
X49800Y122300D02*
D03*
Y118800D02*
D03*
X13730Y96000D02*
D03*
X45945Y93455D02*
D03*
X78900Y75533D02*
D03*
X37900Y93500D02*
D03*
X52200Y103300D02*
D03*
X16100Y131400D02*
D03*
X13000Y55000D02*
D03*
X91300Y118300D02*
D03*
X102300Y97300D02*
D03*
X91600Y99381D02*
D03*
X30500Y109900D02*
D03*
X46675Y122300D02*
D03*
Y118800D02*
D03*
X20844Y38452D02*
D03*
X56200Y109400D02*
D03*
X61300Y134900D02*
D03*
X40300Y140900D02*
D03*
X72900Y81000D02*
D03*
X101600Y69050D02*
D03*
X65400Y4800D02*
D03*
X89000Y114700D02*
D03*
Y111200D02*
D03*
X56981Y73283D02*
D03*
X78900Y85600D02*
D03*
X78898Y80681D02*
D03*
X66900D02*
D03*
Y75533D02*
D03*
X72900D02*
D03*
X66900Y85600D02*
D03*
X41700Y131593D02*
D03*
X42400Y129300D02*
D03*
X31914Y126744D02*
D03*
X15700Y126000D02*
D03*
X27800Y140500D02*
D03*
X30300D02*
D03*
X32100Y138216D02*
D03*
X80800Y108200D02*
D03*
X72900Y70500D02*
D03*
X44200Y131300D02*
D03*
X40300Y138100D02*
D03*
X27800D02*
D03*
X22400Y132200D02*
D03*
Y134800D02*
D03*
X19500Y133100D02*
D03*
X17000Y134400D02*
D03*
X23700Y119001D02*
D03*
X24700Y113300D02*
D03*
X76800Y124200D02*
D03*
X69548Y124680D02*
D03*
X86000Y104800D02*
D03*
X38700Y103000D02*
D03*
X43200Y107600D02*
D03*
X66900Y70500D02*
D03*
X78900D02*
D03*
X4600Y89562D02*
D03*
X2000Y92400D02*
D03*
X4600D02*
D03*
X2000Y89562D02*
D03*
X4300Y72200D02*
D03*
X10000Y75300D02*
D03*
X51919Y95220D02*
D03*
X13000Y59000D02*
D03*
X15000Y53000D02*
D03*
X101203Y75747D02*
D03*
X91000Y107700D02*
D03*
X108600Y47400D02*
D03*
D52*
X39367Y89898D02*
D03*
X40970Y114028D02*
D03*
X42058Y111828D02*
D03*
D53*
X102100Y15000D02*
D03*
X18800Y120095D02*
D03*
D54*
X26499Y26000D02*
D03*
X38901D02*
D03*
D55*
X51179Y90727D02*
D03*
Y88758D02*
D03*
Y86790D02*
D03*
Y84821D02*
D03*
Y82853D02*
D03*
Y80884D02*
D03*
Y78916D02*
D03*
Y76947D02*
D03*
Y74979D02*
D03*
Y73010D02*
D03*
Y71042D02*
D03*
Y69073D02*
D03*
X86021D02*
D03*
Y71042D02*
D03*
Y73010D02*
D03*
Y74979D02*
D03*
Y76947D02*
D03*
Y78916D02*
D03*
Y80884D02*
D03*
Y82853D02*
D03*
Y84821D02*
D03*
Y86790D02*
D03*
Y88758D02*
D03*
Y90727D02*
D03*
D56*
X57773Y62479D02*
D03*
X59742D02*
D03*
X61710D02*
D03*
X63679D02*
D03*
X65647D02*
D03*
X67616D02*
D03*
X69584D02*
D03*
X71553D02*
D03*
X73521D02*
D03*
X75490D02*
D03*
X77458D02*
D03*
X79427D02*
D03*
Y97321D02*
D03*
X77458D02*
D03*
X75490D02*
D03*
X73521D02*
D03*
X71553D02*
D03*
X69584D02*
D03*
X67616D02*
D03*
X65647D02*
D03*
X63679D02*
D03*
X61710D02*
D03*
X59742D02*
D03*
X57773D02*
D03*
D57*
X45429Y32226D02*
D03*
X52910D02*
D03*
X49169Y22974D02*
D03*
D58*
X97832Y26867D02*
D03*
X89564Y30608D02*
D03*
Y23127D02*
D03*
D59*
X36440Y11863D02*
D03*
X32700Y19737D02*
D03*
X28960Y11863D02*
D03*
D60*
X57728Y132200D02*
D03*
Y127200D02*
D03*
Y122200D02*
D03*
Y117200D02*
D03*
X36272Y132200D02*
D03*
Y127200D02*
D03*
Y122200D02*
D03*
Y117200D02*
D03*
D61*
X77200Y18061D02*
D03*
X72200D02*
D03*
X67200D02*
D03*
X62200D02*
D03*
X77200Y39321D02*
D03*
X72200D02*
D03*
X67200D02*
D03*
X62200D02*
D03*
D62*
X76843Y117100D02*
D03*
D63*
X68757D02*
D03*
X76843Y109900D02*
D03*
X68757D02*
D03*
D64*
X93400Y138500D02*
D03*
D65*
X103400D02*
D03*
Y128500D02*
D03*
X93400D02*
D03*
Y118500D02*
D03*
X103400D02*
D03*
X93400Y108500D02*
D03*
X103400D02*
D03*
X93400Y98500D02*
D03*
X103400D02*
D03*
D66*
X85560Y55549D02*
D03*
X80441D02*
D03*
X85560Y48856D02*
D03*
X80441D02*
D03*
D67*
X100707Y79977D02*
D03*
X95589D02*
D03*
D68*
X101400Y75550D02*
D03*
Y69250D02*
D03*
D69*
X29000Y64860D02*
D03*
X34000D02*
D03*
X39000D02*
D03*
X44000D02*
D03*
X29000Y43403D02*
D03*
X34000D02*
D03*
X39000D02*
D03*
X44000D02*
D03*
D70*
X42574Y105800D02*
D03*
X51826Y102060D02*
D03*
Y109540D02*
D03*
X31174Y85500D02*
D03*
X40426Y81760D02*
D03*
Y89240D02*
D03*
D71*
X95300Y69337D02*
D03*
Y74455D02*
D03*
D72*
X49700Y96700D02*
D03*
X54200Y40700D02*
D03*
X28900Y99000D02*
D03*
X86800Y14900D02*
D03*
D73*
X45400Y82696D02*
D03*
D74*
X50700Y143800D02*
X98100D01*
X50100D02*
X50700D01*
X47300Y62094D02*
X47446Y61948D01*
Y61615D02*
Y61948D01*
Y61615D02*
X47600Y61461D01*
Y58386D02*
Y61461D01*
Y58386D02*
X48020Y57966D01*
Y57759D02*
Y57966D01*
X45946Y59970D02*
X46092Y60116D01*
Y60886D01*
X47300Y62094D01*
Y62300D01*
X57111Y127300D02*
X59208Y125203D01*
X59611Y124800D02*
X63100D01*
X59208Y125203D02*
X59611Y124800D01*
X38939Y71160D02*
X39000D01*
X31067Y82150D02*
Y85799D01*
Y82150D02*
X39000Y74217D01*
Y71160D02*
Y74217D01*
X38939Y70000D02*
Y71336D01*
X33700Y98107D02*
Y99178D01*
X31533Y95940D02*
X33700Y98107D01*
X28900Y99000D02*
X33522D01*
X31533Y94100D02*
Y95940D01*
X30728Y94100D02*
X31174Y93654D01*
Y85500D02*
Y93654D01*
X39000Y64860D02*
Y70000D01*
X63100Y124800D02*
Y128500D01*
X33700Y99178D02*
Y110921D01*
X33522Y99000D02*
X33700Y99178D01*
X15200Y122020D02*
X16642Y123461D01*
X16749D01*
X16856Y123568D01*
X56742Y122300D02*
X57372Y122929D01*
X33768Y110989D02*
Y111400D01*
X39000Y63086D02*
Y64860D01*
X50300Y129063D02*
Y142800D01*
Y129063D02*
X52063Y127300D01*
X50300Y142800D02*
X50700Y143200D01*
X45932Y59848D02*
X48020Y57759D01*
X39492Y62594D02*
X39856D01*
X42602Y59848D01*
X45932D01*
X39000Y63086D02*
X39492Y62594D01*
X21948Y123576D02*
X25100Y126729D01*
X21941Y123576D02*
X21948D01*
X21934Y123568D02*
X21941Y123576D01*
X33300Y111869D02*
Y113178D01*
X33700Y110921D02*
X33768Y110989D01*
X98100Y143800D02*
X103400Y138500D01*
X50100Y143800D02*
X50700Y143200D01*
X25100Y126729D02*
Y142863D01*
X26037Y143800D01*
X50100D01*
X16856Y123568D02*
X21934D01*
X15200Y118637D02*
Y122020D01*
Y118637D02*
X17018Y116819D01*
X22232D01*
X22631Y116420D02*
X30058D01*
X33300Y113178D01*
X22232Y116819D02*
X22631Y116420D01*
X52063Y127300D02*
X57111D01*
X57372Y122929D02*
Y122964D01*
X59208Y124800D01*
Y125203D01*
D75*
X85400Y67400D02*
X85500Y67300D01*
D76*
X17344Y72900D02*
Y77956D01*
X20111Y80723D01*
%TF.MD5,be91e431e20923b064d4e0750088b920*%
M02*
