%TF.GenerationSoftware,Altium Limited,Altium Designer,20.2.5 (213)*%
G04 Layer_Color=6740479*
%FSLAX25Y25*%
%MOIN*%
%TF.SameCoordinates,C9AA4840-3426-47ED-90B3-6D3E683A03ED*%
%TF.FilePolarity,Positive*%
%TF.FileFunction,Other,Bottom_Courtyard*%
%TF.Part,Single*%
G01*
G75*
%TA.AperFunction,NonConductor*%
%ADD78C,0.00394*%
%ADD136C,0.00197*%
D78*
X30731Y26000D02*
X34668D01*
X32700Y24032D02*
Y27968D01*
X66632Y79900D02*
X70569D01*
X68600Y77931D02*
Y81868D01*
X49169Y25631D02*
Y29568D01*
X47201Y27600D02*
X51138D01*
X93698Y24899D02*
Y28836D01*
X91729Y26867D02*
X95666D01*
X30731Y15800D02*
X34668D01*
X32700Y13832D02*
Y17768D01*
X45031Y124700D02*
X48968D01*
X47000Y122731D02*
Y126669D01*
X67731Y28691D02*
X71668D01*
X69700Y26723D02*
Y30660D01*
X70832Y117100D02*
X74769D01*
X72800Y115131D02*
Y119069D01*
X83001Y50234D02*
Y54171D01*
X81032Y52202D02*
X84969D01*
X31319Y94100D02*
X33681D01*
X32500Y92919D02*
Y95281D01*
X98148Y78009D02*
Y81946D01*
X96179Y79977D02*
X100117D01*
X99432Y72400D02*
X103368D01*
X101400Y70432D02*
Y74369D01*
X20681Y71180D02*
Y74724D01*
X18909Y72952D02*
X22452D01*
X94400Y83719D02*
Y86081D01*
X93219Y84900D02*
X95581D01*
X68519Y55300D02*
X70881D01*
X69700Y54119D02*
Y56481D01*
X26619Y133500D02*
X28981D01*
X27800Y132319D02*
Y134681D01*
X77900Y102619D02*
Y104981D01*
X76719Y103800D02*
X79081D01*
X64719Y55300D02*
X67081D01*
X65900Y54119D02*
Y56481D01*
X36500Y52163D02*
Y56100D01*
X34532Y54132D02*
X38469D01*
X11000Y40119D02*
Y42481D01*
X9819Y41300D02*
X12181D01*
X29533Y72779D02*
Y75141D01*
X28352Y73960D02*
X30714D01*
X19600Y40017D02*
Y42183D01*
X18517Y41100D02*
X20683D01*
X29700Y76517D02*
Y78683D01*
X28617Y77600D02*
X30783D01*
X47200Y103832D02*
Y107768D01*
X45232Y105800D02*
X49169D01*
X31800Y110317D02*
Y112483D01*
X30717Y111400D02*
X32883D01*
X28000Y103817D02*
Y105983D01*
X26917Y104900D02*
X29083D01*
X29200Y31517D02*
Y33683D01*
X28117Y32600D02*
X30283D01*
X16500Y24817D02*
Y26983D01*
X15417Y25900D02*
X17583D01*
X66017Y47000D02*
X68183D01*
X67100Y45917D02*
Y48083D01*
X22000Y9017D02*
Y11183D01*
X20917Y10100D02*
X23083D01*
X43019Y75800D02*
X45381D01*
X44200Y74619D02*
Y76981D01*
X90419Y51200D02*
X92781D01*
X91600Y50019D02*
Y52381D01*
X64872Y123619D02*
Y125981D01*
X63691Y124800D02*
X66053D01*
X73254Y51200D02*
X75617D01*
X74435Y50019D02*
Y52381D01*
X94400Y87519D02*
Y89881D01*
X93219Y88700D02*
X95581D01*
X27096Y123727D02*
X29261D01*
X28179Y122644D02*
Y124810D01*
X58700Y111317D02*
Y113483D01*
X57617Y112400D02*
X59783D01*
X59100Y107017D02*
Y109183D01*
X58017Y108100D02*
X60183D01*
X102317Y24600D02*
X104483D01*
X103400Y23517D02*
Y25683D01*
X70832Y109900D02*
X74769D01*
X72800Y107931D02*
Y111869D01*
X97800Y63417D02*
Y65583D01*
X96717Y64500D02*
X98883D01*
X100017Y87269D02*
X102183D01*
X101100Y86186D02*
Y88351D01*
X59100Y103319D02*
Y105681D01*
X57919Y104500D02*
X60281D01*
X81919Y23000D02*
X84281D01*
X83100Y21819D02*
Y24181D01*
X35800Y83531D02*
Y87468D01*
X33832Y85500D02*
X37769D01*
X93332Y71896D02*
X97269D01*
X95300Y69928D02*
Y73865D01*
X63691Y128500D02*
X66053D01*
X64872Y127319D02*
Y129681D01*
X35619Y70700D02*
X37981D01*
X36800Y69519D02*
Y71881D01*
D136*
X22661Y21669D02*
Y30331D01*
X42739Y21669D02*
Y30331D01*
X22661Y21669D02*
X42739D01*
X22661Y30331D02*
X42739D01*
X88974Y59526D02*
Y100274D01*
X48226Y59526D02*
Y100274D01*
Y59526D02*
X88974D01*
X48226Y100274D02*
X88974D01*
X42280Y34982D02*
X56059D01*
X42280Y20218D02*
X56059D01*
X42280D02*
Y34982D01*
X56059Y20218D02*
Y34982D01*
X86119Y33757D02*
X101277D01*
X86119Y19978D02*
X101277D01*
Y33757D01*
X86119Y19978D02*
Y33757D01*
X25810Y8221D02*
Y23379D01*
X39590Y8221D02*
Y23379D01*
X25810D02*
X39590D01*
X25810Y8221D02*
X39590D01*
X61567Y113873D02*
Y135527D01*
X32433Y113873D02*
Y135527D01*
X61567D01*
X32433Y113873D02*
X61567D01*
X80330Y14223D02*
Y43160D01*
X59070Y14223D02*
Y43160D01*
Y14223D02*
X80330D01*
X59070Y43160D02*
X80330D01*
X79296Y113360D02*
Y120840D01*
X66304Y113360D02*
Y120840D01*
X79296D01*
X66304Y113360D02*
X79296D01*
X77489Y59289D02*
X88512D01*
X77489Y45116D02*
X88512D01*
X77489D02*
Y59289D01*
X88512Y45116D02*
Y59289D01*
X28760Y92132D02*
Y96069D01*
X36240Y92132D02*
Y96069D01*
X28760Y92132D02*
X36240D01*
X28760Y96069D02*
X36240D01*
X91967Y82733D02*
X104329D01*
X91967Y77221D02*
X104329D01*
Y82733D01*
X91967Y77221D02*
Y82733D01*
X98644Y66219D02*
Y78581D01*
X104156Y66219D02*
Y78581D01*
X98644D02*
X104156D01*
X98644Y66219D02*
X104156D01*
X14972Y75708D02*
X26389D01*
X14972Y70196D02*
X26389D01*
Y75708D01*
X14972Y70196D02*
Y75708D01*
X90660Y86869D02*
X98140D01*
X90660Y82932D02*
X98140D01*
Y86869D01*
X90660Y82932D02*
Y86869D01*
X71668Y51560D02*
Y59040D01*
X67731Y51560D02*
Y59040D01*
Y51560D02*
X71668D01*
X67731Y59040D02*
X71668D01*
X29768Y129760D02*
Y137240D01*
X25831Y129760D02*
Y137240D01*
Y129760D02*
X29768D01*
X25831Y137240D02*
X29768D01*
X74160Y105769D02*
X81640D01*
X74160Y101831D02*
X81640D01*
Y105769D01*
X74160Y101831D02*
Y105769D01*
X67869Y51560D02*
Y59040D01*
X63932Y51560D02*
Y59040D01*
Y51560D02*
X67869D01*
X63932Y59040D02*
X67869D01*
X25673Y68698D02*
X47327D01*
X25673Y39565D02*
X47327D01*
X25673D02*
Y68698D01*
X47327Y39565D02*
Y68698D01*
X7260Y39331D02*
X14740D01*
X7260Y43268D02*
X14740D01*
X7260Y39331D02*
Y43268D01*
X14740Y39331D02*
Y43268D01*
X25793Y71991D02*
X33273D01*
X25793Y75928D02*
X33273D01*
X25793Y71991D02*
Y75928D01*
X33273Y71991D02*
Y75928D01*
X16057Y42872D02*
X23143D01*
X16057Y39328D02*
X23143D01*
Y42872D01*
X16057Y39328D02*
Y42872D01*
X26157Y75828D02*
X33243D01*
X26157Y79372D02*
X33243D01*
X26157Y75828D02*
Y79372D01*
X33243Y75828D02*
Y79372D01*
X39818Y98910D02*
X54582D01*
X39818Y112690D02*
X54582D01*
X39818Y98910D02*
Y112690D01*
X54582Y98910D02*
Y112690D01*
X28257Y113172D02*
X35343D01*
X28257Y109628D02*
X35343D01*
Y113172D01*
X28257Y109628D02*
Y113172D01*
X24457Y103128D02*
X31543D01*
X24457Y106672D02*
X31543D01*
X24457Y103128D02*
Y106672D01*
X31543Y103128D02*
Y106672D01*
X25657Y34372D02*
X32743D01*
X25657Y30828D02*
X32743D01*
Y34372D01*
X25657Y30828D02*
Y34372D01*
X12957Y27672D02*
X20043D01*
X12957Y24128D02*
X20043D01*
Y27672D01*
X12957Y24128D02*
Y27672D01*
X68872Y43457D02*
Y50543D01*
X65328Y43457D02*
Y50543D01*
Y43457D02*
X68872D01*
X65328Y50543D02*
X68872D01*
X18457Y11872D02*
X25543D01*
X18457Y8328D02*
X25543D01*
Y11872D01*
X18457Y8328D02*
Y11872D01*
X46169Y72060D02*
Y79540D01*
X42232Y72060D02*
Y79540D01*
Y72060D02*
X46169D01*
X42232Y79540D02*
X46169D01*
X89631Y47460D02*
Y54940D01*
X93568Y47460D02*
Y54940D01*
X89631D02*
X93568D01*
X89631Y47460D02*
X93568D01*
X61132Y122831D02*
X68612D01*
X61132Y126769D02*
X68612D01*
X61132Y122831D02*
Y126769D01*
X68612Y122831D02*
Y126769D01*
X76404Y47460D02*
Y54940D01*
X72467Y47460D02*
Y54940D01*
Y47460D02*
X76404D01*
X72467Y54940D02*
X76404D01*
X90660Y86731D02*
X98140D01*
X90660Y90668D02*
X98140D01*
X90660Y86731D02*
Y90668D01*
X98140Y86731D02*
Y90668D01*
X26407Y120184D02*
Y127270D01*
X29950Y120184D02*
Y127270D01*
X26407D02*
X29950D01*
X26407Y120184D02*
X29950D01*
X55157Y110628D02*
X62243D01*
X55157Y114172D02*
X62243D01*
X55157Y110628D02*
Y114172D01*
X62243Y110628D02*
Y114172D01*
X55557Y109872D02*
X62643D01*
X55557Y106328D02*
X62643D01*
Y109872D01*
X55557Y106328D02*
Y109872D01*
X101628Y21057D02*
Y28143D01*
X105172Y21057D02*
Y28143D01*
X101628D02*
X105172D01*
X101628Y21057D02*
X105172D01*
X79296Y106160D02*
Y113640D01*
X66304Y106160D02*
Y113640D01*
X79296D01*
X66304Y106160D02*
X79296D01*
X94257Y62728D02*
X101343D01*
X94257Y66272D02*
X101343D01*
X94257Y62728D02*
Y66272D01*
X101343Y62728D02*
Y66272D01*
X102872Y83725D02*
Y90812D01*
X99328Y83725D02*
Y90812D01*
Y83725D02*
X102872D01*
X99328Y90812D02*
X102872D01*
X55360Y106468D02*
X62840D01*
X55360Y102532D02*
X62840D01*
Y106468D01*
X55360Y102532D02*
Y106468D01*
X85069Y19260D02*
Y26740D01*
X81132Y19260D02*
Y26740D01*
Y19260D02*
X85069D01*
X81132Y26740D02*
X85069D01*
X28418Y78610D02*
X43182D01*
X28418Y92390D02*
X43182D01*
X28418Y78610D02*
Y92390D01*
X43182Y78610D02*
Y92390D01*
X98056Y65715D02*
Y78077D01*
X92544Y65715D02*
Y78077D01*
Y65715D02*
X98056D01*
X92544Y78077D02*
X98056D01*
X68612Y126532D02*
Y130468D01*
X61132Y126532D02*
Y130468D01*
X68612D01*
X61132Y126532D02*
X68612D01*
X33060Y68731D02*
Y72668D01*
X40540Y68731D02*
Y72668D01*
X33060Y68731D02*
X40540D01*
X33060Y72668D02*
X40540D01*
%TF.MD5,010eb77602c565d5cbab19b8e3cd450a*%
M02*
