%TF.GenerationSoftware,Altium Limited,Altium Designer,20.2.5 (213)*%
G04 Layer_Color=14186556*
%FSLAX25Y25*%
%MOIN*%
%TF.SameCoordinates,C9AA4840-3426-47ED-90B3-6D3E683A03ED*%
%TF.FilePolarity,Positive*%
%TF.FileFunction,Other,Bottom_Designator*%
%TF.Part,Single*%
G01*
G75*
%TA.AperFunction,NonConductor*%
%ADD80C,0.01000*%
%ADD137C,0.00450*%
D80*
X28501Y92101D02*
X27502Y91101D01*
X25502D01*
X24503Y92101D01*
Y96099D01*
X25502Y97099D01*
X27502D01*
X28501Y96099D01*
X30501Y92101D02*
X31500Y91101D01*
X33500D01*
X34499Y92101D01*
Y93100D01*
X33500Y94100D01*
X32500D01*
X33500D01*
X34499Y95100D01*
Y96099D01*
X33500Y97099D01*
X31500D01*
X30501Y96099D01*
X36499Y92101D02*
X37498Y91101D01*
X39498D01*
X40497Y92101D01*
Y93100D01*
X39498Y94100D01*
X40497Y95100D01*
Y96099D01*
X39498Y97099D01*
X37498D01*
X36499Y96099D01*
Y95100D01*
X37498Y94100D01*
X36499Y93100D01*
Y92101D01*
X37498Y94100D02*
X39498D01*
X68870Y130499D02*
X69870Y131499D01*
X71869D01*
X72869Y130499D01*
Y126501D01*
X71869Y125501D01*
X69870D01*
X68870Y126501D01*
X62872Y125501D02*
X66871D01*
X62872Y129500D01*
Y130499D01*
X63872Y131499D01*
X65871D01*
X66871Y130499D01*
X60873D02*
X59873Y131499D01*
X57874D01*
X56874Y130499D01*
Y126501D01*
X57874Y125501D01*
X59873D01*
X60873Y126501D01*
Y130499D01*
X32801Y68701D02*
X31802Y67701D01*
X29802D01*
X28803Y68701D01*
Y72699D01*
X29802Y73699D01*
X31802D01*
X32801Y72699D01*
X34801Y68701D02*
X35800Y67701D01*
X37800D01*
X38799Y68701D01*
Y69700D01*
X37800Y70700D01*
X36800D01*
X37800D01*
X38799Y71700D01*
Y72699D01*
X37800Y73699D01*
X35800D01*
X34801Y72699D01*
X40799Y67701D02*
X44797D01*
Y68701D01*
X40799Y72699D01*
Y73699D01*
D137*
X31034Y25000D02*
Y27000D01*
X32034D01*
X32367Y26666D01*
Y25333D01*
X32034Y25000D01*
X31034D01*
X34366Y27000D02*
X33033D01*
X34366Y25667D01*
Y25333D01*
X34033Y25000D01*
X33367D01*
X33033Y25333D01*
X67600Y82399D02*
Y81733D01*
Y82066D01*
X69600D01*
Y82399D01*
Y81733D01*
X67933Y79400D02*
X67600Y79733D01*
Y80400D01*
X67933Y80733D01*
X69266D01*
X69600Y80400D01*
Y79733D01*
X69266Y79400D01*
X67600Y77401D02*
X67933Y78067D01*
X68600Y78734D01*
X69266D01*
X69600Y78400D01*
Y77734D01*
X69266Y77401D01*
X68933D01*
X68600Y77734D01*
Y78734D01*
X49836Y27933D02*
X48503D01*
X48170Y28266D01*
Y28933D01*
X48503Y29266D01*
X49836D01*
X50169Y28933D01*
Y28266D01*
X49503Y28600D02*
X50169Y27933D01*
Y28266D02*
X49836Y27933D01*
X50169Y25934D02*
Y27267D01*
X48836Y25934D01*
X48503D01*
X48170Y26267D01*
Y26934D01*
X48503Y27267D01*
X91199Y25868D02*
X91865D01*
X91532D01*
Y27867D01*
X91199D01*
X91865D01*
X94198Y26201D02*
X93864Y25868D01*
X93198D01*
X92865Y26201D01*
Y27534D01*
X93198Y27867D01*
X93864D01*
X94198Y27534D01*
X94864D02*
X95197Y27867D01*
X95864D01*
X96197Y27534D01*
Y26201D01*
X95864Y25868D01*
X95197D01*
X94864Y26201D01*
Y26534D01*
X95197Y26867D01*
X96197D01*
X31034Y40459D02*
X32367D01*
X32700Y40126D01*
Y39459D01*
X32367Y39126D01*
X31034D01*
X30701Y39459D01*
Y40126D01*
X31367Y39792D02*
X30701Y40459D01*
Y40126D02*
X31034Y40459D01*
X32700Y42458D02*
Y41125D01*
X31700D01*
X32034Y41792D01*
Y42125D01*
X31700Y42458D01*
X31034D01*
X30701Y42125D01*
Y41458D01*
X31034Y41125D01*
X48333Y125700D02*
Y124034D01*
X48000Y123700D01*
X47333D01*
X47000Y124034D01*
Y125700D01*
X46334Y123700D02*
X45667D01*
X46000D01*
Y125700D01*
X46334Y125366D01*
X68700Y32024D02*
Y31357D01*
Y31690D01*
X70700D01*
Y32024D01*
Y31357D01*
X69033Y29025D02*
X68700Y29358D01*
Y30024D01*
X69033Y30358D01*
X70366D01*
X70700Y30024D01*
Y29358D01*
X70366Y29025D01*
X70700Y28358D02*
Y27692D01*
Y28025D01*
X68700D01*
X69033Y28358D01*
Y26692D02*
X68700Y26359D01*
Y25692D01*
X69033Y25359D01*
X70366D01*
X70700Y25692D01*
Y26359D01*
X70366Y26692D01*
X69033D01*
X75466Y116100D02*
Y118100D01*
X74466D01*
X74133Y117766D01*
Y117100D01*
X74466Y116767D01*
X75466D01*
X74799D02*
X74133Y116100D01*
X73466Y117766D02*
X73133Y118100D01*
X72467D01*
X72134Y117766D01*
Y117433D01*
X72467Y117100D01*
X72800D01*
X72467D01*
X72134Y116767D01*
Y116434D01*
X72467Y116100D01*
X73133D01*
X73466Y116434D01*
X71467D02*
X71134Y116100D01*
X70467D01*
X70134Y116434D01*
Y117766D01*
X70467Y118100D01*
X71134D01*
X71467Y117766D01*
Y117433D01*
X71134Y117100D01*
X70134D01*
X82001Y56868D02*
X84000Y55535D01*
X82001D02*
X84000Y56868D01*
X82001Y54868D02*
Y53535D01*
Y54202D01*
X84000D01*
Y52869D02*
X82667D01*
X82001Y52202D01*
X82667Y51536D01*
X84000D01*
X83000D01*
Y52869D01*
X82001Y50870D02*
X84000D01*
Y49537D01*
Y47537D02*
Y48870D01*
X82667Y47537D01*
X82334D01*
X82001Y47871D01*
Y48537D01*
X82334Y48870D01*
X94482Y78977D02*
Y80977D01*
X95815D01*
X97815Y78977D02*
X96482D01*
Y80977D01*
X97815D01*
X96482Y79977D02*
X97148D01*
X98481Y78977D02*
Y80977D01*
X99481D01*
X99814Y80643D01*
Y79311D01*
X99481Y78977D01*
X98481D01*
X100481Y79311D02*
X100814Y78977D01*
X101480D01*
X101813Y79311D01*
Y79644D01*
X101480Y79977D01*
X101147D01*
X101480D01*
X101813Y80310D01*
Y80643D01*
X101480Y80977D01*
X100814D01*
X100481Y80643D01*
X102400Y69068D02*
X100400D01*
Y70401D01*
X102400Y72400D02*
Y71067D01*
X100400D01*
Y72400D01*
X101400Y71067D02*
Y71734D01*
X102400Y73066D02*
X100400D01*
Y74066D01*
X100734Y74399D01*
X102067D01*
X102400Y74066D01*
Y73066D01*
X100400Y75066D02*
Y75732D01*
Y75399D01*
X102400D01*
X102067Y75066D01*
X19348Y73952D02*
Y71952D01*
X20347D01*
X20681Y72286D01*
Y72952D01*
X20347Y73285D01*
X19348D01*
X20014D02*
X20681Y73952D01*
X21347D02*
X22014D01*
X21680D01*
Y71952D01*
X21347Y72286D01*
X93067Y84233D02*
X92734Y83900D01*
X92067D01*
X91734Y84233D01*
Y85566D01*
X92067Y85900D01*
X92734D01*
X93067Y85566D01*
X95066Y85900D02*
X93734D01*
X95066Y84567D01*
Y84233D01*
X94733Y83900D01*
X94067D01*
X93734Y84233D01*
X96733Y85900D02*
Y83900D01*
X95733Y84900D01*
X97066D01*
X69033Y56633D02*
X68700Y56966D01*
Y57632D01*
X69033Y57966D01*
X70366D01*
X70700Y57632D01*
Y56966D01*
X70366Y56633D01*
X70700Y54633D02*
Y55966D01*
X69367Y54633D01*
X69033D01*
X68700Y54967D01*
Y55633D01*
X69033Y55966D01*
X68700Y52634D02*
Y53967D01*
X69700D01*
X69367Y53301D01*
Y52967D01*
X69700Y52634D01*
X70366D01*
X70700Y52967D01*
Y53634D01*
X70366Y53967D01*
X27134Y134833D02*
X26800Y135166D01*
Y135833D01*
X27134Y136166D01*
X28466D01*
X28800Y135833D01*
Y135166D01*
X28466Y134833D01*
X28800Y132834D02*
Y134166D01*
X27467Y132834D01*
X27134D01*
X26800Y133167D01*
Y133833D01*
X27134Y134166D01*
X26800Y130834D02*
X27134Y131501D01*
X27800Y132167D01*
X28466D01*
X28800Y131834D01*
Y131167D01*
X28466Y130834D01*
X28133D01*
X27800Y131167D01*
Y132167D01*
X76567Y103133D02*
X76234Y102800D01*
X75567D01*
X75234Y103133D01*
Y104466D01*
X75567Y104800D01*
X76234D01*
X76567Y104466D01*
X78566Y104800D02*
X77234D01*
X78566Y103467D01*
Y103133D01*
X78233Y102800D01*
X77567D01*
X77234Y103133D01*
X79233D02*
X79566Y102800D01*
X80233D01*
X80566Y103133D01*
Y103467D01*
X80233Y103800D01*
X79899D01*
X80233D01*
X80566Y104133D01*
Y104466D01*
X80233Y104800D01*
X79566D01*
X79233Y104466D01*
X65233Y56300D02*
X64900Y56633D01*
Y57299D01*
X65233Y57632D01*
X66566D01*
X66900Y57299D01*
Y56633D01*
X66566Y56300D01*
X65233Y55633D02*
X64900Y55300D01*
Y54633D01*
X65233Y54300D01*
X65567D01*
X65900Y54633D01*
Y54967D01*
Y54633D01*
X66233Y54300D01*
X66566D01*
X66900Y54633D01*
Y55300D01*
X66566Y55633D01*
X66900Y53634D02*
Y52967D01*
Y53301D01*
X64900D01*
X65233Y53634D01*
X35500Y56631D02*
Y55964D01*
Y56297D01*
X37500D01*
Y56631D01*
Y55964D01*
X35833Y53632D02*
X35500Y53965D01*
Y54631D01*
X35833Y54965D01*
X37166D01*
X37500Y54631D01*
Y53965D01*
X37166Y53632D01*
X35500Y52965D02*
Y51632D01*
X35833D01*
X37166Y52965D01*
X37500D01*
X12333Y41967D02*
X12666Y42300D01*
X13333D01*
X13666Y41967D01*
Y40634D01*
X13333Y40300D01*
X12666D01*
X12333Y40634D01*
X11666Y41967D02*
X11333Y42300D01*
X10667D01*
X10334Y41967D01*
Y41633D01*
X10667Y41300D01*
X11000D01*
X10667D01*
X10334Y40967D01*
Y40634D01*
X10667Y40300D01*
X11333D01*
X11666Y40634D01*
X9667Y41967D02*
X9334Y42300D01*
X8667D01*
X8334Y41967D01*
Y41633D01*
X8667Y41300D01*
X9001D01*
X8667D01*
X8334Y40967D01*
Y40634D01*
X8667Y40300D01*
X9334D01*
X9667Y40634D01*
X30866Y74626D02*
X31199Y74959D01*
X31866D01*
X32199Y74626D01*
Y73293D01*
X31866Y72960D01*
X31199D01*
X30866Y73293D01*
X30200Y74626D02*
X29866Y74959D01*
X29200D01*
X28867Y74626D01*
Y74293D01*
X29200Y73960D01*
X29533D01*
X29200D01*
X28867Y73627D01*
Y73293D01*
X29200Y72960D01*
X29866D01*
X30200Y73293D01*
X27200Y72960D02*
Y74959D01*
X28200Y73960D01*
X26867D01*
X16934Y42100D02*
Y40100D01*
X17934D01*
X18267Y40433D01*
Y41100D01*
X17934Y41433D01*
X16934D01*
X17601D02*
X18267Y42100D01*
X18934Y40433D02*
X19267Y40100D01*
X19933D01*
X20266Y40433D01*
Y40767D01*
X19933Y41100D01*
X19600D01*
X19933D01*
X20266Y41433D01*
Y41766D01*
X19933Y42100D01*
X19267D01*
X18934Y41766D01*
X20933Y40433D02*
X21266Y40100D01*
X21933D01*
X22266Y40433D01*
Y40767D01*
X21933Y41100D01*
X21599D01*
X21933D01*
X22266Y41433D01*
Y41766D01*
X21933Y42100D01*
X21266D01*
X20933Y41766D01*
X32366Y76600D02*
Y78600D01*
X31366D01*
X31033Y78267D01*
Y77600D01*
X31366Y77267D01*
X32366D01*
X31699D02*
X31033Y76600D01*
X30366Y78267D02*
X30033Y78600D01*
X29367D01*
X29034Y78267D01*
Y77933D01*
X29367Y77600D01*
X29700D01*
X29367D01*
X29034Y77267D01*
Y76934D01*
X29367Y76600D01*
X30033D01*
X30366Y76934D01*
X27367Y76600D02*
Y78600D01*
X28367Y77600D01*
X27034D01*
X22541Y104134D02*
Y105467D01*
X22874Y105800D01*
X23541D01*
X23874Y105467D01*
Y104134D01*
X23541Y103801D01*
X22874D01*
X23208Y104467D02*
X22541Y103801D01*
X22874D02*
X22541Y104134D01*
X20542Y105800D02*
X21208Y105467D01*
X21875Y104800D01*
Y104134D01*
X21542Y103801D01*
X20875D01*
X20542Y104134D01*
Y104467D01*
X20875Y104800D01*
X21875D01*
X51127Y113399D02*
Y111400D01*
X52127D01*
X52460Y111733D01*
Y112400D01*
X52127Y112733D01*
X51127D01*
X51793D02*
X52460Y113399D01*
X54459D02*
X53126D01*
X54459Y112066D01*
Y111733D01*
X54126Y111400D01*
X53460D01*
X53126Y111733D01*
X56459Y111400D02*
X55792Y111733D01*
X55126Y112400D01*
Y113066D01*
X55459Y113399D01*
X56125D01*
X56459Y113066D01*
Y112733D01*
X56125Y112400D01*
X55126D01*
X8673Y102901D02*
Y104900D01*
X7673D01*
X7340Y104567D01*
Y103900D01*
X7673Y103567D01*
X8673D01*
X8006D02*
X7340Y102901D01*
X5341D02*
X6674D01*
X5341Y104234D01*
Y104567D01*
X5674Y104900D01*
X6340D01*
X6674Y104567D01*
X4674D02*
X4341Y104900D01*
X3675D01*
X3341Y104567D01*
Y104234D01*
X3675Y103900D01*
X3341Y103567D01*
Y103234D01*
X3675Y102901D01*
X4341D01*
X4674Y103234D01*
Y103567D01*
X4341Y103900D01*
X4674Y104234D01*
Y104567D01*
X4341Y103900D02*
X3675D01*
X48527Y34599D02*
Y32600D01*
X49527D01*
X49860Y32933D01*
Y33600D01*
X49527Y33933D01*
X48527D01*
X49194D02*
X49860Y34599D01*
X51859D02*
X50526D01*
X51859Y33266D01*
Y32933D01*
X51526Y32600D01*
X50860D01*
X50526Y32933D01*
X52526Y34266D02*
X52859Y34599D01*
X53525D01*
X53859Y34266D01*
Y32933D01*
X53525Y32600D01*
X52859D01*
X52526Y32933D01*
Y33266D01*
X52859Y33600D01*
X53859D01*
X35827Y27899D02*
Y25900D01*
X36827D01*
X37160Y26233D01*
Y26900D01*
X36827Y27233D01*
X35827D01*
X36494D02*
X37160Y27899D01*
X37826Y26233D02*
X38160Y25900D01*
X38826D01*
X39159Y26233D01*
Y26566D01*
X38826Y26900D01*
X38493D01*
X38826D01*
X39159Y27233D01*
Y27566D01*
X38826Y27899D01*
X38160D01*
X37826Y27566D01*
X39826Y26233D02*
X40159Y25900D01*
X40825D01*
X41159Y26233D01*
Y27566D01*
X40825Y27899D01*
X40159D01*
X39826Y27566D01*
Y26233D01*
X69099Y26340D02*
X67100D01*
Y25340D01*
X67433Y25007D01*
X68100D01*
X68433Y25340D01*
Y26340D01*
Y25674D02*
X69099Y25007D01*
X67433Y24341D02*
X67100Y24007D01*
Y23341D01*
X67433Y23008D01*
X67766D01*
X68100Y23341D01*
Y23674D01*
Y23341D01*
X68433Y23008D01*
X68766D01*
X69099Y23341D01*
Y24007D01*
X68766Y24341D01*
X69099Y22341D02*
Y21675D01*
Y22008D01*
X67100D01*
X67433Y22341D01*
X41327Y12099D02*
Y10100D01*
X42327D01*
X42660Y10433D01*
Y11100D01*
X42327Y11433D01*
X41327D01*
X41993D02*
X42660Y12099D01*
X44659D02*
X43326D01*
X44659Y10766D01*
Y10433D01*
X44326Y10100D01*
X43660D01*
X43326Y10433D01*
X45326Y10100D02*
X46659D01*
Y10433D01*
X45326Y11766D01*
Y12099D01*
X43534Y77133D02*
X43200Y77466D01*
Y78132D01*
X43534Y78466D01*
X44866D01*
X45200Y78132D01*
Y77466D01*
X44866Y77133D01*
X45200Y75134D02*
Y76466D01*
X43867Y75134D01*
X43534D01*
X43200Y75467D01*
Y76133D01*
X43534Y76466D01*
X43200Y74467D02*
Y73134D01*
X43534D01*
X44866Y74467D01*
X45200D01*
X92266Y49867D02*
X92600Y49534D01*
Y48867D01*
X92266Y48534D01*
X90934D01*
X90600Y48867D01*
Y49534D01*
X90934Y49867D01*
X90600Y51866D02*
Y50533D01*
X91933Y51866D01*
X92266D01*
X92600Y51533D01*
Y50867D01*
X92266Y50533D01*
Y52533D02*
X92600Y52866D01*
Y53533D01*
X92266Y53866D01*
X91933D01*
X91600Y53533D01*
X91267Y53866D01*
X90934D01*
X90600Y53533D01*
Y52866D01*
X90934Y52533D01*
X91267D01*
X91600Y52866D01*
X91933Y52533D01*
X92266D01*
X91600Y52866D02*
Y53533D01*
X66205Y125467D02*
X66538Y125800D01*
X67204D01*
X67537Y125467D01*
Y124134D01*
X67204Y123800D01*
X66538D01*
X66205Y124134D01*
X64205Y123800D02*
X65538D01*
X64205Y125133D01*
Y125467D01*
X64538Y125800D01*
X65205D01*
X65538Y125467D01*
X63539Y124134D02*
X63205Y123800D01*
X62539D01*
X62206Y124134D01*
Y125467D01*
X62539Y125800D01*
X63205D01*
X63539Y125467D01*
Y125133D01*
X63205Y124800D01*
X62206D01*
X73769Y52533D02*
X73436Y52866D01*
Y53532D01*
X73769Y53866D01*
X75102D01*
X75435Y53532D01*
Y52866D01*
X75102Y52533D01*
X73769Y51866D02*
X73436Y51533D01*
Y50867D01*
X73769Y50533D01*
X74102D01*
X74435Y50867D01*
Y51200D01*
Y50867D01*
X74769Y50533D01*
X75102D01*
X75435Y50867D01*
Y51533D01*
X75102Y51866D01*
X73769Y49867D02*
X73436Y49534D01*
Y48867D01*
X73769Y48534D01*
X75102D01*
X75435Y48867D01*
Y49534D01*
X75102Y49867D01*
X73769D01*
X95733Y89367D02*
X96066Y89700D01*
X96733D01*
X97066Y89367D01*
Y88034D01*
X96733Y87700D01*
X96066D01*
X95733Y88034D01*
X95066Y89367D02*
X94733Y89700D01*
X94067D01*
X93734Y89367D01*
Y89033D01*
X94067Y88700D01*
X94400D01*
X94067D01*
X93734Y88367D01*
Y88034D01*
X94067Y87700D01*
X94733D01*
X95066Y88034D01*
X91734Y87700D02*
X93067D01*
X91734Y89033D01*
Y89367D01*
X92067Y89700D01*
X92734D01*
X93067Y89367D01*
X27179Y121061D02*
X29178D01*
Y122061D01*
X28845Y122394D01*
X28179D01*
X27845Y122061D01*
Y121061D01*
Y121727D02*
X27179Y122394D01*
X28845Y123060D02*
X29178Y123394D01*
Y124060D01*
X28845Y124393D01*
X28512D01*
X28179Y124060D01*
Y123727D01*
Y124060D01*
X27845Y124393D01*
X27512D01*
X27179Y124060D01*
Y123394D01*
X27512Y123060D01*
X27179Y126393D02*
Y125060D01*
X28512Y126393D01*
X28845D01*
X29178Y126059D01*
Y125393D01*
X28845Y125060D01*
X61366Y111400D02*
Y113400D01*
X60366D01*
X60033Y113066D01*
Y112400D01*
X60366Y112067D01*
X61366D01*
X60699D02*
X60033Y111400D01*
X59367Y113066D02*
X59033Y113400D01*
X58367D01*
X58034Y113066D01*
Y112733D01*
X58367Y112400D01*
X58700D01*
X58367D01*
X58034Y112067D01*
Y111734D01*
X58367Y111400D01*
X59033D01*
X59367Y111734D01*
X56034Y113400D02*
X57367D01*
Y112400D01*
X56701Y112733D01*
X56367D01*
X56034Y112400D01*
Y111734D01*
X56367Y111400D01*
X57034D01*
X57367Y111734D01*
X56434Y109100D02*
Y107100D01*
X57434D01*
X57767Y107433D01*
Y108100D01*
X57434Y108433D01*
X56434D01*
X57101D02*
X57767Y109100D01*
X58434Y107433D02*
X58767Y107100D01*
X59433D01*
X59766Y107433D01*
Y107767D01*
X59433Y108100D01*
X59100D01*
X59433D01*
X59766Y108433D01*
Y108766D01*
X59433Y109100D01*
X58767D01*
X58434Y108766D01*
X61766Y107100D02*
X61099Y107433D01*
X60433Y108100D01*
Y108766D01*
X60766Y109100D01*
X61433D01*
X61766Y108766D01*
Y108433D01*
X61433Y108100D01*
X60433D01*
X102400Y21934D02*
X104400D01*
Y22934D01*
X104067Y23267D01*
X103400D01*
X103067Y22934D01*
Y21934D01*
Y22601D02*
X102400Y23267D01*
X104067Y23934D02*
X104400Y24267D01*
Y24933D01*
X104067Y25266D01*
X103733D01*
X103400Y24933D01*
Y24600D01*
Y24933D01*
X103067Y25266D01*
X102734D01*
X102400Y24933D01*
Y24267D01*
X102734Y23934D01*
X104400Y25933D02*
Y27266D01*
X104067D01*
X102734Y25933D01*
X102400D01*
X75466Y108900D02*
Y110900D01*
X74466D01*
X74133Y110566D01*
Y109900D01*
X74466Y109567D01*
X75466D01*
X74799D02*
X74133Y108900D01*
X73466Y110566D02*
X73133Y110900D01*
X72467D01*
X72134Y110566D01*
Y110233D01*
X72467Y109900D01*
X72800D01*
X72467D01*
X72134Y109567D01*
Y109234D01*
X72467Y108900D01*
X73133D01*
X73466Y109234D01*
X71467Y110566D02*
X71134Y110900D01*
X70467D01*
X70134Y110566D01*
Y110233D01*
X70467Y109900D01*
X70134Y109567D01*
Y109234D01*
X70467Y108900D01*
X71134D01*
X71467Y109234D01*
Y109567D01*
X71134Y109900D01*
X71467Y110233D01*
Y110566D01*
X71134Y109900D02*
X70467D01*
X100466Y63500D02*
Y65500D01*
X99466D01*
X99133Y65166D01*
Y64500D01*
X99466Y64167D01*
X100466D01*
X99799D02*
X99133Y63500D01*
X97467D02*
Y65500D01*
X98466Y64500D01*
X97134D01*
X96467Y65166D02*
X96134Y65500D01*
X95467D01*
X95134Y65166D01*
Y63834D01*
X95467Y63500D01*
X96134D01*
X96467Y63834D01*
Y65166D01*
X102100Y89601D02*
X100100D01*
Y88601D01*
X100434Y88268D01*
X101100D01*
X101433Y88601D01*
Y89601D01*
Y88935D02*
X102100Y88268D01*
Y86602D02*
X100100D01*
X101100Y87602D01*
Y86269D01*
X102100Y85602D02*
Y84936D01*
Y85269D01*
X100100D01*
X100434Y85602D01*
X57767Y103833D02*
X57434Y103500D01*
X56767D01*
X56434Y103833D01*
Y105166D01*
X56767Y105500D01*
X57434D01*
X57767Y105166D01*
X58434Y103833D02*
X58767Y103500D01*
X59433D01*
X59766Y103833D01*
Y104167D01*
X59433Y104500D01*
X59100D01*
X59433D01*
X59766Y104833D01*
Y105166D01*
X59433Y105500D01*
X58767D01*
X58434Y105166D01*
X61766Y103500D02*
X60433D01*
Y104500D01*
X61099Y104167D01*
X61433D01*
X61766Y104500D01*
Y105166D01*
X61433Y105500D01*
X60766D01*
X60433Y105166D01*
X82433Y24333D02*
X82100Y24666D01*
Y25332D01*
X82433Y25666D01*
X83766D01*
X84100Y25332D01*
Y24666D01*
X83766Y24333D01*
X82433Y23666D02*
X82100Y23333D01*
Y22667D01*
X82433Y22333D01*
X82767D01*
X83100Y22667D01*
Y23000D01*
Y22667D01*
X83433Y22333D01*
X83766D01*
X84100Y22667D01*
Y23333D01*
X83766Y23666D01*
X82100Y20334D02*
X82433Y21001D01*
X83100Y21667D01*
X83766D01*
X84100Y21334D01*
Y20667D01*
X83766Y20334D01*
X83433D01*
X83100Y20667D01*
Y21667D01*
X38299Y86500D02*
X37633D01*
X37966D01*
Y84500D01*
X38299D01*
X37633D01*
X35300Y86167D02*
X35633Y86500D01*
X36300D01*
X36633Y86167D01*
Y84834D01*
X36300Y84500D01*
X35633D01*
X35300Y84834D01*
X34634Y86167D02*
X34301Y86500D01*
X33634D01*
X33301Y86167D01*
Y85833D01*
X33634Y85500D01*
X33301Y85167D01*
Y84834D01*
X33634Y84500D01*
X34301D01*
X34634Y84834D01*
Y85167D01*
X34301Y85500D01*
X34634Y85833D01*
Y86167D01*
X34301Y85500D02*
X33634D01*
X94301Y75562D02*
X96300D01*
Y74229D01*
X94301Y72229D02*
Y73562D01*
X96300D01*
Y72229D01*
X95300Y73562D02*
Y72896D01*
X94301Y71563D02*
X96300D01*
Y70563D01*
X95967Y70230D01*
X94634D01*
X94301Y70563D01*
Y71563D01*
X96300Y68231D02*
Y69564D01*
X94967Y68231D01*
X94634D01*
X94301Y68564D01*
Y69230D01*
X94634Y69564D01*
%TF.MD5,14279bf69d794e6a82d981dd8ee950a7*%
M02*
