%TF.GenerationSoftware,Altium Limited,Altium Designer,20.2.5 (213)*%
G04 Layer_Color=8388736*
%FSLAX25Y25*%
%MOIN*%
%TF.SameCoordinates,C9AA4840-3426-47ED-90B3-6D3E683A03ED*%
%TF.FilePolarity,Negative*%
%TF.FileFunction,Soldermask,Top*%
%TF.Part,Single*%
G01*
G75*
%TA.AperFunction,SMDPad,CuDef*%
%ADD96R,0.03477X0.03320*%
%ADD99R,0.04147X0.04343*%
%ADD100R,0.03320X0.03477*%
%ADD102R,0.03162X0.02965*%
%ADD104R,0.02965X0.03162*%
%ADD107C,0.04800*%
%TA.AperFunction,ComponentPad*%
%ADD109C,0.06800*%
%ADD110R,0.06706X0.06706*%
%ADD111C,0.06706*%
%TA.AperFunction,ViaPad*%
%ADD112C,0.04343*%
%ADD113C,0.03162*%
%ADD114C,0.03200*%
%ADD115C,0.04147*%
%TA.AperFunction,SMDPad,CuDef*%
%ADD117R,0.03162X0.04737*%
G04:AMPARAMS|DCode=118|XSize=70.99mil|YSize=47.37mil|CornerRadius=7.94mil|HoleSize=0mil|Usage=FLASHONLY|Rotation=0.000|XOffset=0mil|YOffset=0mil|HoleType=Round|Shape=RoundedRectangle|*
%AMROUNDEDRECTD118*
21,1,0.07099,0.03150,0,0,0.0*
21,1,0.05512,0.04737,0,0,0.0*
1,1,0.01587,0.02756,-0.01575*
1,1,0.01587,-0.02756,-0.01575*
1,1,0.01587,-0.02756,0.01575*
1,1,0.01587,0.02756,0.01575*
%
%ADD118ROUNDEDRECTD118*%
G04:AMPARAMS|DCode=119|XSize=19.81mil|YSize=25.72mil|CornerRadius=5.18mil|HoleSize=0mil|Usage=FLASHONLY|Rotation=0.000|XOffset=0mil|YOffset=0mil|HoleType=Round|Shape=RoundedRectangle|*
%AMROUNDEDRECTD119*
21,1,0.01981,0.01535,0,0,0.0*
21,1,0.00945,0.02572,0,0,0.0*
1,1,0.01036,0.00472,-0.00768*
1,1,0.01036,-0.00472,-0.00768*
1,1,0.01036,-0.00472,0.00768*
1,1,0.01036,0.00472,0.00768*
%
%ADD119ROUNDEDRECTD119*%
%ADD120R,0.10446X0.07493*%
%ADD121R,0.01784X0.03162*%
%ADD122R,0.05721X0.04540*%
%ADD123R,0.03280X0.04068*%
%ADD124R,0.21272X0.21272*%
%ADD125O,0.04934X0.01784*%
%ADD126O,0.01784X0.04934*%
G04:AMPARAMS|DCode=127|XSize=21.39mil|YSize=37.53mil|CornerRadius=5.34mil|HoleSize=0mil|Usage=FLASHONLY|Rotation=0.000|XOffset=0mil|YOffset=0mil|HoleType=Round|Shape=RoundedRectangle|*
%AMROUNDEDRECTD127*
21,1,0.02139,0.02685,0,0,0.0*
21,1,0.01071,0.03753,0,0,0.0*
1,1,0.01068,0.00535,-0.01343*
1,1,0.01068,-0.00535,-0.01343*
1,1,0.01068,-0.00535,0.01343*
1,1,0.01068,0.00535,0.01343*
%
%ADD127ROUNDEDRECTD127*%
G04:AMPARAMS|DCode=128|XSize=72.17mil|YSize=64.3mil|CornerRadius=9.63mil|HoleSize=0mil|Usage=FLASHONLY|Rotation=0.000|XOffset=0mil|YOffset=0mil|HoleType=Round|Shape=RoundedRectangle|*
%AMROUNDEDRECTD128*
21,1,0.07217,0.04504,0,0,0.0*
21,1,0.05291,0.06430,0,0,0.0*
1,1,0.01926,0.02646,-0.02252*
1,1,0.01926,-0.02646,-0.02252*
1,1,0.01926,-0.02646,0.02252*
1,1,0.01926,0.02646,0.02252*
%
%ADD128ROUNDEDRECTD128*%
G04:AMPARAMS|DCode=129|XSize=47.37mil|YSize=86.74mil|CornerRadius=13.84mil|HoleSize=0mil|Usage=FLASHONLY|Rotation=180.000|XOffset=0mil|YOffset=0mil|HoleType=Round|Shape=RoundedRectangle|*
%AMROUNDEDRECTD129*
21,1,0.04737,0.05906,0,0,180.0*
21,1,0.01968,0.08674,0,0,180.0*
1,1,0.02769,-0.00984,0.02953*
1,1,0.02769,0.00984,0.02953*
1,1,0.02769,0.00984,-0.02953*
1,1,0.02769,-0.00984,-0.02953*
%
%ADD129ROUNDEDRECTD129*%
%ADD130R,0.05524X0.14973*%
%ADD131R,0.05328X0.09461*%
%ADD132R,0.05918X0.07887*%
%ADD133R,0.04737X0.04737*%
%ADD134R,0.04737X0.03162*%
%ADD135R,0.04737X0.04737*%
D96*
X32228Y139200D02*
D03*
X35772D02*
D03*
X27289Y100100D02*
D03*
X30832D02*
D03*
X39772Y88700D02*
D03*
X36228D02*
D03*
X64219Y100287D02*
D03*
X67762D02*
D03*
X71319Y100758D02*
D03*
X74862D02*
D03*
X77172Y96900D02*
D03*
X73628D02*
D03*
X75830Y57847D02*
D03*
X79373D02*
D03*
X72341Y57906D02*
D03*
X68798D02*
D03*
D99*
X66349Y17913D02*
D03*
X72451D02*
D03*
D100*
X42700Y53328D02*
D03*
Y56872D02*
D03*
X42800Y23328D02*
D03*
Y26872D02*
D03*
X42300Y122428D02*
D03*
Y125972D02*
D03*
X34200Y53228D02*
D03*
Y56772D02*
D03*
X92600Y79572D02*
D03*
Y76028D02*
D03*
X55500Y79572D02*
D03*
Y76028D02*
D03*
X101700Y92672D02*
D03*
Y89128D02*
D03*
D102*
X26061Y52700D02*
D03*
X29408D02*
D03*
X31373Y119600D02*
D03*
X28027D02*
D03*
X47280Y109595D02*
D03*
X50626D02*
D03*
X26061Y57400D02*
D03*
X29408D02*
D03*
X57073Y131200D02*
D03*
X53727D02*
D03*
X73073D02*
D03*
X69727D02*
D03*
X56727Y44500D02*
D03*
X60073D02*
D03*
D104*
X101600Y60427D02*
D03*
Y63773D02*
D03*
X28500Y25127D02*
D03*
Y28473D02*
D03*
Y44127D02*
D03*
Y47473D02*
D03*
Y34627D02*
D03*
Y37973D02*
D03*
X96400Y69773D02*
D03*
Y66427D02*
D03*
X51800Y23427D02*
D03*
Y26773D02*
D03*
X81000Y101473D02*
D03*
Y98127D02*
D03*
X79760Y124438D02*
D03*
Y127785D02*
D03*
X60400Y127773D02*
D03*
Y124427D02*
D03*
X57190Y99837D02*
D03*
Y96490D02*
D03*
X56200Y89427D02*
D03*
Y92773D02*
D03*
X92500Y68648D02*
D03*
Y65302D02*
D03*
X77749Y117779D02*
D03*
Y121125D02*
D03*
X103300Y54373D02*
D03*
Y51027D02*
D03*
X92500Y59127D02*
D03*
Y62473D02*
D03*
X56500Y66273D02*
D03*
Y62927D02*
D03*
X55800Y69444D02*
D03*
Y72791D02*
D03*
D107*
X51700Y89400D02*
D03*
X81800Y113100D02*
D03*
X24916Y28470D02*
D03*
D109*
X20125Y127976D02*
D03*
Y112228D02*
D03*
Y96480D02*
D03*
Y80732D02*
D03*
Y64984D02*
D03*
Y49236D02*
D03*
Y33488D02*
D03*
Y17740D02*
D03*
X8314Y127976D02*
D03*
Y112228D02*
D03*
Y96480D02*
D03*
Y80732D02*
D03*
Y64984D02*
D03*
Y49236D02*
D03*
Y33488D02*
D03*
Y17740D02*
D03*
D110*
X85400Y138800D02*
D03*
X80600Y9600D02*
D03*
X9500Y138800D02*
D03*
D111*
X75400D02*
D03*
X65400D02*
D03*
X55400D02*
D03*
X45400D02*
D03*
X70600Y9600D02*
D03*
X60600D02*
D03*
X19500Y138800D02*
D03*
D112*
X85293Y126597D02*
D03*
X98400Y3703D02*
D03*
Y103500D02*
D03*
Y133500D02*
D03*
D113*
X47300Y62300D02*
D03*
X36100Y67800D02*
D03*
X35100Y73800D02*
D03*
X45946Y59970D02*
D03*
X61274Y23312D02*
D03*
X94515Y30317D02*
D03*
X90300Y26900D02*
D03*
X87500D02*
D03*
X91644Y44394D02*
D03*
X93120Y47460D02*
D03*
X94400Y44394D02*
D03*
X49000Y32200D02*
D03*
X47100Y10131D02*
D03*
X60916Y15006D02*
D03*
X74302Y36935D02*
D03*
X74435Y54940D02*
D03*
X68100Y52300D02*
D03*
X71300Y50000D02*
D03*
X52542Y46116D02*
D03*
X77829Y22936D02*
D03*
X1600Y102100D02*
D03*
X4200Y104938D02*
D03*
X1600D02*
D03*
X4200Y102100D02*
D03*
X1600Y99262D02*
D03*
X4200D02*
D03*
X4600Y86724D02*
D03*
X2000D02*
D03*
X10000Y72200D02*
D03*
X7200D02*
D03*
Y75300D02*
D03*
X4300D02*
D03*
X15000Y57000D02*
D03*
X11000D02*
D03*
X17000Y55000D02*
D03*
X54960Y58593D02*
D03*
X89100Y2400D02*
D03*
X72900Y85600D02*
D03*
X15687Y107281D02*
D03*
X36500Y60832D02*
D03*
X102600Y103200D02*
D03*
X48020Y57759D02*
D03*
X68094Y102006D02*
D03*
X94400Y91688D02*
D03*
X95303Y94509D02*
D03*
X49800Y122300D02*
D03*
Y118800D02*
D03*
X13730Y96000D02*
D03*
X45945Y93455D02*
D03*
X78900Y75533D02*
D03*
X37900Y93500D02*
D03*
X52200Y103300D02*
D03*
X16100Y131400D02*
D03*
X13000Y55000D02*
D03*
X91300Y118300D02*
D03*
X102300Y97300D02*
D03*
X91600Y99381D02*
D03*
X30500Y109900D02*
D03*
X46675Y122300D02*
D03*
Y118800D02*
D03*
X20844Y38452D02*
D03*
X56200Y109400D02*
D03*
X61300Y134900D02*
D03*
X40300Y140900D02*
D03*
X72900Y81000D02*
D03*
X101600Y69050D02*
D03*
X65400Y4800D02*
D03*
X89000Y114700D02*
D03*
Y111200D02*
D03*
X56981Y73283D02*
D03*
X78900Y85600D02*
D03*
X78898Y80681D02*
D03*
X66900D02*
D03*
Y75533D02*
D03*
X72900D02*
D03*
X66900Y85600D02*
D03*
X41700Y131593D02*
D03*
X42400Y129300D02*
D03*
X31914Y126744D02*
D03*
X15700Y126000D02*
D03*
X27800Y140500D02*
D03*
X30300D02*
D03*
X32100Y138216D02*
D03*
X80800Y108200D02*
D03*
X72900Y70500D02*
D03*
X44200Y131300D02*
D03*
X40300Y138100D02*
D03*
X27800D02*
D03*
X22400Y132200D02*
D03*
Y134800D02*
D03*
X19500Y133100D02*
D03*
X17000Y134400D02*
D03*
X23700Y119001D02*
D03*
X24700Y113300D02*
D03*
X76800Y124200D02*
D03*
X69548Y124680D02*
D03*
X86000Y104800D02*
D03*
X38700Y103000D02*
D03*
X43200Y107600D02*
D03*
X66900Y70500D02*
D03*
X78900D02*
D03*
X4600Y89562D02*
D03*
X2000Y92400D02*
D03*
X4600D02*
D03*
X2000Y89562D02*
D03*
X4300Y72200D02*
D03*
X10000Y75300D02*
D03*
X51919Y95220D02*
D03*
X13000Y59000D02*
D03*
X15000Y53000D02*
D03*
X101203Y75747D02*
D03*
X91000Y107700D02*
D03*
X108600Y47400D02*
D03*
D114*
X39367Y89898D02*
D03*
X40970Y114028D02*
D03*
X42058Y111828D02*
D03*
D115*
X102100Y15000D02*
D03*
X18800Y120095D02*
D03*
D117*
X28360Y124776D02*
D03*
X32100D02*
D03*
X35840D02*
D03*
Y134224D02*
D03*
X32100D02*
D03*
X28360D02*
D03*
X61628Y30377D02*
D03*
X57888Y39825D02*
D03*
X65368D02*
D03*
X73289Y127435D02*
D03*
X65808D02*
D03*
X69548Y117987D02*
D03*
X58700Y48276D02*
D03*
X54960Y57724D02*
D03*
X62440D02*
D03*
X37010Y15896D02*
D03*
X29530D02*
D03*
X33270Y6447D02*
D03*
X47100Y16824D02*
D03*
X50840Y7376D02*
D03*
X43360D02*
D03*
X35745Y114424D02*
D03*
X28265D02*
D03*
X32005Y104976D02*
D03*
D118*
X29400Y91566D02*
D03*
D119*
X26841Y87727D02*
D03*
X29400D02*
D03*
X31959D02*
D03*
X26841Y95405D02*
D03*
X29400D02*
D03*
X31959D02*
D03*
D120*
X38000Y41400D02*
D03*
D121*
X33079Y35750D02*
D03*
X35047D02*
D03*
X37016D02*
D03*
X38984D02*
D03*
X40953D02*
D03*
X42921D02*
D03*
X33079Y47050D02*
D03*
X35047D02*
D03*
X37016D02*
D03*
X38984D02*
D03*
X40953D02*
D03*
X42921D02*
D03*
D122*
X82205Y25200D02*
D03*
X70394D02*
D03*
D123*
X101780Y84600D02*
D03*
X93020D02*
D03*
D124*
X74214Y77426D02*
D03*
D125*
X87305Y87269D02*
D03*
Y85300D02*
D03*
Y83332D02*
D03*
Y81363D02*
D03*
Y79395D02*
D03*
Y77426D02*
D03*
Y75458D02*
D03*
Y73489D02*
D03*
Y71521D02*
D03*
Y69552D02*
D03*
Y67584D02*
D03*
X61124D02*
D03*
Y69552D02*
D03*
Y71521D02*
D03*
Y73489D02*
D03*
Y75458D02*
D03*
Y77426D02*
D03*
Y79395D02*
D03*
Y81363D02*
D03*
Y83332D02*
D03*
Y85300D02*
D03*
Y87269D02*
D03*
D126*
X84057Y64335D02*
D03*
X82088D02*
D03*
X80120D02*
D03*
X78151D02*
D03*
X76183D02*
D03*
X74214D02*
D03*
X72246D02*
D03*
X70277D02*
D03*
X68309D02*
D03*
X66340D02*
D03*
X64372D02*
D03*
Y90517D02*
D03*
X66340D02*
D03*
X68309D02*
D03*
X70277D02*
D03*
X72246D02*
D03*
X74214D02*
D03*
X76183D02*
D03*
X78151D02*
D03*
X80120D02*
D03*
X82088D02*
D03*
X84057D02*
D03*
D127*
X51553Y126098D02*
D03*
X49584D02*
D03*
X47616D02*
D03*
X45647D02*
D03*
X51553Y114680D02*
D03*
X49584D02*
D03*
X47616D02*
D03*
X45647D02*
D03*
D128*
X48600Y120389D02*
D03*
D129*
X100100Y38400D02*
D03*
D130*
X30595Y69100D02*
D03*
X42406D02*
D03*
D131*
X72551Y109800D02*
D03*
X66449D02*
D03*
D132*
X41348Y82443D02*
D03*
X30324D02*
D03*
D133*
X82249Y32200D02*
D03*
X88351D02*
D03*
X38751Y22400D02*
D03*
X32649D02*
D03*
Y27600D02*
D03*
X38751D02*
D03*
D134*
X39595Y104363D02*
D03*
Y96883D02*
D03*
X49044Y100623D02*
D03*
X99124Y50300D02*
D03*
X89676Y46560D02*
D03*
Y54040D02*
D03*
D135*
X38300Y53249D02*
D03*
Y59351D02*
D03*
X47367Y22249D02*
D03*
Y28351D02*
D03*
%TF.MD5,d03778cf9c86ed5850a5b12262d7e5cc*%
M02*
