%TF.GenerationSoftware,Altium Limited,Altium Designer,20.2.5 (213)*%
G04 Layer_Color=16711935*
%FSLAX25Y25*%
%MOIN*%
%TF.SameCoordinates,C9AA4840-3426-47ED-90B3-6D3E683A03ED*%
%TF.FilePolarity,Negative*%
%TF.FileFunction,Soldermask,Bot*%
%TF.Part,Single*%
G01*
G75*
%TA.AperFunction,SMDPad,CuDef*%
%ADD83R,0.04343X0.04540*%
%ADD84O,0.06706X0.01902*%
%ADD85O,0.01902X0.06706*%
G04:AMPARAMS|DCode=86|XSize=33.59mil|YSize=45.4mil|CornerRadius=10.4mil|HoleSize=0mil|Usage=FLASHONLY|Rotation=180.000|XOffset=0mil|YOffset=0mil|HoleType=Round|Shape=RoundedRectangle|*
%AMROUNDEDRECTD86*
21,1,0.03359,0.02461,0,0,180.0*
21,1,0.01280,0.04540,0,0,180.0*
1,1,0.02080,-0.00640,0.01230*
1,1,0.02080,0.00640,0.01230*
1,1,0.02080,0.00640,-0.01230*
1,1,0.02080,-0.00640,-0.01230*
%
%ADD86ROUNDEDRECTD86*%
G04:AMPARAMS|DCode=87|XSize=31.62mil|YSize=59.18mil|CornerRadius=6.36mil|HoleSize=0mil|Usage=FLASHONLY|Rotation=270.000|XOffset=0mil|YOffset=0mil|HoleType=Round|Shape=RoundedRectangle|*
%AMROUNDEDRECTD87*
21,1,0.03162,0.04646,0,0,270.0*
21,1,0.01890,0.05918,0,0,270.0*
1,1,0.01272,-0.02323,-0.00945*
1,1,0.01272,-0.02323,0.00945*
1,1,0.01272,0.02323,0.00945*
1,1,0.01272,0.02323,-0.00945*
%
%ADD87ROUNDEDRECTD87*%
G04:AMPARAMS|DCode=88|XSize=39.5mil|YSize=43.43mil|CornerRadius=11.87mil|HoleSize=0mil|Usage=FLASHONLY|Rotation=0.000|XOffset=0mil|YOffset=0mil|HoleType=Round|Shape=RoundedRectangle|*
%AMROUNDEDRECTD88*
21,1,0.03950,0.01968,0,0,0.0*
21,1,0.01575,0.04343,0,0,0.0*
1,1,0.02375,0.00787,-0.00984*
1,1,0.02375,-0.00787,-0.00984*
1,1,0.02375,-0.00787,0.00984*
1,1,0.02375,0.00787,0.00984*
%
%ADD88ROUNDEDRECTD88*%
%ADD89O,0.06509X0.03162*%
%ADD90O,0.03162X0.06706*%
%ADD91R,0.04737X0.06115*%
%ADD92R,0.04737X0.06115*%
%ADD93R,0.05524X0.05524*%
%TA.AperFunction,BGAPad,CuDef*%
%ADD94C,0.05524*%
%TA.AperFunction,SMDPad,CuDef*%
%ADD95R,0.04737X0.05524*%
%ADD96R,0.03477X0.03320*%
%ADD97R,0.03950X0.03556*%
%ADD98R,0.03950X0.03950*%
%ADD99R,0.04147X0.04343*%
%ADD100R,0.03320X0.03477*%
%ADD101O,0.03162X0.06509*%
%ADD102R,0.03162X0.02965*%
G04:AMPARAMS|DCode=103|XSize=33.59mil|YSize=45.4mil|CornerRadius=10.4mil|HoleSize=0mil|Usage=FLASHONLY|Rotation=90.000|XOffset=0mil|YOffset=0mil|HoleType=Round|Shape=RoundedRectangle|*
%AMROUNDEDRECTD103*
21,1,0.03359,0.02461,0,0,90.0*
21,1,0.01280,0.04540,0,0,90.0*
1,1,0.02080,0.01230,0.00640*
1,1,0.02080,0.01230,-0.00640*
1,1,0.02080,-0.01230,-0.00640*
1,1,0.02080,-0.01230,0.00640*
%
%ADD103ROUNDEDRECTD103*%
%ADD104R,0.02965X0.03162*%
%ADD105R,0.03556X0.03950*%
%ADD106C,0.05800*%
%ADD107C,0.04800*%
%ADD108C,0.03800*%
%TA.AperFunction,ComponentPad*%
%ADD109C,0.06800*%
%ADD110R,0.06706X0.06706*%
%ADD111C,0.06706*%
%TA.AperFunction,ViaPad*%
%ADD112C,0.04343*%
%ADD113C,0.03162*%
%ADD114C,0.03200*%
%ADD115C,0.04147*%
D83*
X26499Y26000D02*
D03*
X38901D02*
D03*
D84*
X51179Y90727D02*
D03*
Y88758D02*
D03*
Y86790D02*
D03*
Y84821D02*
D03*
Y82853D02*
D03*
Y80884D02*
D03*
Y78916D02*
D03*
Y76947D02*
D03*
Y74979D02*
D03*
Y73010D02*
D03*
Y71042D02*
D03*
Y69073D02*
D03*
X86021D02*
D03*
Y71042D02*
D03*
Y73010D02*
D03*
Y74979D02*
D03*
Y76947D02*
D03*
Y78916D02*
D03*
Y80884D02*
D03*
Y82853D02*
D03*
Y84821D02*
D03*
Y86790D02*
D03*
Y88758D02*
D03*
Y90727D02*
D03*
D85*
X57773Y62479D02*
D03*
X59742D02*
D03*
X61710D02*
D03*
X63679D02*
D03*
X65647D02*
D03*
X67616D02*
D03*
X69584D02*
D03*
X71553D02*
D03*
X73521D02*
D03*
X75490D02*
D03*
X77458D02*
D03*
X79427D02*
D03*
Y97321D02*
D03*
X77458D02*
D03*
X75490D02*
D03*
X73521D02*
D03*
X71553D02*
D03*
X69584D02*
D03*
X67616D02*
D03*
X65647D02*
D03*
X63679D02*
D03*
X61710D02*
D03*
X59742D02*
D03*
X57773D02*
D03*
D86*
X45429Y32226D02*
D03*
X52910D02*
D03*
X49169Y22974D02*
D03*
D87*
X97832Y26867D02*
D03*
X89564Y30608D02*
D03*
Y23127D02*
D03*
D88*
X36440Y11863D02*
D03*
X32700Y19737D02*
D03*
X28960Y11863D02*
D03*
D89*
X57728Y132200D02*
D03*
Y127200D02*
D03*
Y122200D02*
D03*
Y117200D02*
D03*
X36272Y132200D02*
D03*
Y127200D02*
D03*
Y122200D02*
D03*
Y117200D02*
D03*
D90*
X77200Y18061D02*
D03*
X72200D02*
D03*
X67200D02*
D03*
X62200D02*
D03*
X77200Y39321D02*
D03*
X72200D02*
D03*
X67200D02*
D03*
X62200D02*
D03*
D91*
X76843Y117100D02*
D03*
D92*
X68757D02*
D03*
X76843Y109900D02*
D03*
X68757D02*
D03*
D93*
X93400Y138500D02*
D03*
D94*
X103400D02*
D03*
Y128500D02*
D03*
X93400D02*
D03*
Y118500D02*
D03*
X103400D02*
D03*
X93400Y108500D02*
D03*
X103400D02*
D03*
X93400Y98500D02*
D03*
X103400D02*
D03*
D95*
X85560Y55549D02*
D03*
X80441D02*
D03*
X85560Y48856D02*
D03*
X80441D02*
D03*
D96*
X30728Y94100D02*
D03*
X34272D02*
D03*
X96172Y84900D02*
D03*
X92628D02*
D03*
X79672Y103800D02*
D03*
X76128D02*
D03*
X9228Y41300D02*
D03*
X12772D02*
D03*
X27761Y73960D02*
D03*
X31305D02*
D03*
X63100Y124800D02*
D03*
X66643D02*
D03*
X92628Y88700D02*
D03*
X96172D02*
D03*
X60872Y104500D02*
D03*
X57328D02*
D03*
X66643Y128500D02*
D03*
X63100D02*
D03*
X35028Y70700D02*
D03*
X38572D02*
D03*
D97*
X100707Y79977D02*
D03*
X95589D02*
D03*
D98*
X101400Y75550D02*
D03*
Y69250D02*
D03*
D99*
X23732Y72952D02*
D03*
X17629D02*
D03*
D100*
X69700Y53528D02*
D03*
Y57072D02*
D03*
X27800Y131728D02*
D03*
Y135272D02*
D03*
X65900Y53528D02*
D03*
Y57072D02*
D03*
X44200Y74028D02*
D03*
Y77572D02*
D03*
X91600Y52972D02*
D03*
Y49428D02*
D03*
X74435Y49428D02*
D03*
Y52972D02*
D03*
X83100Y21228D02*
D03*
Y24772D02*
D03*
D101*
X29000Y64860D02*
D03*
X34000D02*
D03*
X39000D02*
D03*
X44000D02*
D03*
X29000Y43403D02*
D03*
X34000D02*
D03*
X39000D02*
D03*
X44000D02*
D03*
D102*
X21273Y41100D02*
D03*
X17927D02*
D03*
X28027Y77600D02*
D03*
X31373D02*
D03*
X33473Y111400D02*
D03*
X30127D02*
D03*
X26327Y104900D02*
D03*
X29673D02*
D03*
X30873Y32600D02*
D03*
X27527D02*
D03*
X18173Y25900D02*
D03*
X14827D02*
D03*
X20327Y10100D02*
D03*
X23673D02*
D03*
X57027Y112400D02*
D03*
X60373D02*
D03*
X60773Y108100D02*
D03*
X57427D02*
D03*
X96127Y64500D02*
D03*
X99473D02*
D03*
D103*
X42574Y105800D02*
D03*
X51826Y102060D02*
D03*
Y109540D02*
D03*
X31174Y85500D02*
D03*
X40426Y81760D02*
D03*
Y89240D02*
D03*
D104*
X67100Y45327D02*
D03*
Y48673D02*
D03*
X28179Y125400D02*
D03*
Y122054D02*
D03*
X103400Y26273D02*
D03*
Y22927D02*
D03*
X101100Y85595D02*
D03*
Y88942D02*
D03*
D105*
X95300Y69337D02*
D03*
Y74455D02*
D03*
D106*
X49700Y96700D02*
D03*
X54200Y40700D02*
D03*
X28900Y99000D02*
D03*
X86800Y14900D02*
D03*
D107*
X25100Y58200D02*
D03*
D108*
X45400Y82696D02*
D03*
D109*
X20125Y127976D02*
D03*
Y112228D02*
D03*
Y96480D02*
D03*
Y80732D02*
D03*
Y64984D02*
D03*
Y49236D02*
D03*
Y33488D02*
D03*
Y17740D02*
D03*
X8314Y127976D02*
D03*
Y112228D02*
D03*
Y96480D02*
D03*
Y80732D02*
D03*
Y64984D02*
D03*
Y49236D02*
D03*
Y33488D02*
D03*
Y17740D02*
D03*
D110*
X85400Y138800D02*
D03*
X80600Y9600D02*
D03*
X9500Y138800D02*
D03*
D111*
X75400D02*
D03*
X65400D02*
D03*
X55400D02*
D03*
X45400D02*
D03*
X70600Y9600D02*
D03*
X60600D02*
D03*
X19500Y138800D02*
D03*
D112*
X85293Y126597D02*
D03*
X98400Y3703D02*
D03*
Y103500D02*
D03*
Y133500D02*
D03*
D113*
X47300Y62300D02*
D03*
X36100Y67800D02*
D03*
X35100Y73800D02*
D03*
X45946Y59970D02*
D03*
X61274Y23312D02*
D03*
X94515Y30317D02*
D03*
X90300Y26900D02*
D03*
X87500D02*
D03*
X91644Y44394D02*
D03*
X93120Y47460D02*
D03*
X94400Y44394D02*
D03*
X49000Y32200D02*
D03*
X47100Y10131D02*
D03*
X60916Y15006D02*
D03*
X74302Y36935D02*
D03*
X74435Y54940D02*
D03*
X68100Y52300D02*
D03*
X71300Y50000D02*
D03*
X52542Y46116D02*
D03*
X77829Y22936D02*
D03*
X1600Y102100D02*
D03*
X4200Y104938D02*
D03*
X1600D02*
D03*
X4200Y102100D02*
D03*
X1600Y99262D02*
D03*
X4200D02*
D03*
X4600Y86724D02*
D03*
X2000D02*
D03*
X10000Y72200D02*
D03*
X7200D02*
D03*
Y75300D02*
D03*
X4300D02*
D03*
X15000Y57000D02*
D03*
X11000D02*
D03*
X17000Y55000D02*
D03*
X54960Y58593D02*
D03*
X89100Y2400D02*
D03*
X72900Y85600D02*
D03*
X15687Y107281D02*
D03*
X36500Y60832D02*
D03*
X102600Y103200D02*
D03*
X48020Y57759D02*
D03*
X68094Y102006D02*
D03*
X94400Y91688D02*
D03*
X95303Y94509D02*
D03*
X49800Y122300D02*
D03*
Y118800D02*
D03*
X13730Y96000D02*
D03*
X45945Y93455D02*
D03*
X78900Y75533D02*
D03*
X37900Y93500D02*
D03*
X52200Y103300D02*
D03*
X16100Y131400D02*
D03*
X13000Y55000D02*
D03*
X91300Y118300D02*
D03*
X102300Y97300D02*
D03*
X91600Y99381D02*
D03*
X30500Y109900D02*
D03*
X46675Y122300D02*
D03*
Y118800D02*
D03*
X20844Y38452D02*
D03*
X56200Y109400D02*
D03*
X61300Y134900D02*
D03*
X40300Y140900D02*
D03*
X72900Y81000D02*
D03*
X101600Y69050D02*
D03*
X65400Y4800D02*
D03*
X89000Y114700D02*
D03*
Y111200D02*
D03*
X56981Y73283D02*
D03*
X78900Y85600D02*
D03*
X78898Y80681D02*
D03*
X66900D02*
D03*
Y75533D02*
D03*
X72900D02*
D03*
X66900Y85600D02*
D03*
X41700Y131593D02*
D03*
X42400Y129300D02*
D03*
X31914Y126744D02*
D03*
X15700Y126000D02*
D03*
X27800Y140500D02*
D03*
X30300D02*
D03*
X32100Y138216D02*
D03*
X80800Y108200D02*
D03*
X72900Y70500D02*
D03*
X44200Y131300D02*
D03*
X40300Y138100D02*
D03*
X27800D02*
D03*
X22400Y132200D02*
D03*
Y134800D02*
D03*
X19500Y133100D02*
D03*
X17000Y134400D02*
D03*
X23700Y119001D02*
D03*
X24700Y113300D02*
D03*
X76800Y124200D02*
D03*
X69548Y124680D02*
D03*
X86000Y104800D02*
D03*
X38700Y103000D02*
D03*
X43200Y107600D02*
D03*
X66900Y70500D02*
D03*
X78900D02*
D03*
X4600Y89562D02*
D03*
X2000Y92400D02*
D03*
X4600D02*
D03*
X2000Y89562D02*
D03*
X4300Y72200D02*
D03*
X10000Y75300D02*
D03*
X51919Y95220D02*
D03*
X13000Y59000D02*
D03*
X15000Y53000D02*
D03*
X101203Y75747D02*
D03*
X91000Y107700D02*
D03*
X108600Y47400D02*
D03*
D114*
X39367Y89898D02*
D03*
X40970Y114028D02*
D03*
X42058Y111828D02*
D03*
D115*
X102100Y15000D02*
D03*
X18800Y120095D02*
D03*
%TF.MD5,f8a1d075cf0becce27c478bfbf4a6c3b*%
M02*
