%TF.GenerationSoftware,Altium Limited,Altium Designer,20.2.5 (213)*%
G04 Layer_Color=128*
%FSLAX25Y25*%
%MOIN*%
%TF.SameCoordinates,C9AA4840-3426-47ED-90B3-6D3E683A03ED*%
%TF.FilePolarity,Positive*%
%TF.FileFunction,Paste,Bot*%
%TF.Part,Single*%
G01*
G75*
%TA.AperFunction,SMDPad,CuDef*%
%ADD17R,0.03347X0.03543*%
%ADD18R,0.02165X0.02362*%
%ADD29R,0.02520X0.02677*%
%ADD30R,0.02677X0.02520*%
%ADD31R,0.02362X0.02165*%
%ADD34C,0.04000*%
%ADD54R,0.03543X0.03740*%
%ADD55O,0.05906X0.01102*%
%ADD56O,0.01102X0.05906*%
G04:AMPARAMS|DCode=57|XSize=25.59mil|YSize=37.4mil|CornerRadius=6.4mil|HoleSize=0mil|Usage=FLASHONLY|Rotation=180.000|XOffset=0mil|YOffset=0mil|HoleType=Round|Shape=RoundedRectangle|*
%AMROUNDEDRECTD57*
21,1,0.02559,0.02461,0,0,180.0*
21,1,0.01280,0.03740,0,0,180.0*
1,1,0.01280,-0.00640,0.01230*
1,1,0.01280,0.00640,0.01230*
1,1,0.01280,0.00640,-0.01230*
1,1,0.01280,-0.00640,-0.01230*
%
%ADD57ROUNDEDRECTD57*%
G04:AMPARAMS|DCode=58|XSize=23.62mil|YSize=51.18mil|CornerRadius=2.36mil|HoleSize=0mil|Usage=FLASHONLY|Rotation=270.000|XOffset=0mil|YOffset=0mil|HoleType=Round|Shape=RoundedRectangle|*
%AMROUNDEDRECTD58*
21,1,0.02362,0.04646,0,0,270.0*
21,1,0.01890,0.05118,0,0,270.0*
1,1,0.00472,-0.02323,-0.00945*
1,1,0.00472,-0.02323,0.00945*
1,1,0.00472,0.02323,0.00945*
1,1,0.00472,0.02323,-0.00945*
%
%ADD58ROUNDEDRECTD58*%
G04:AMPARAMS|DCode=59|XSize=31.5mil|YSize=35.43mil|CornerRadius=7.87mil|HoleSize=0mil|Usage=FLASHONLY|Rotation=0.000|XOffset=0mil|YOffset=0mil|HoleType=Round|Shape=RoundedRectangle|*
%AMROUNDEDRECTD59*
21,1,0.03150,0.01968,0,0,0.0*
21,1,0.01575,0.03543,0,0,0.0*
1,1,0.01575,0.00787,-0.00984*
1,1,0.01575,-0.00787,-0.00984*
1,1,0.01575,-0.00787,0.00984*
1,1,0.01575,0.00787,0.00984*
%
%ADD59ROUNDEDRECTD59*%
%ADD60O,0.05709X0.02362*%
%ADD61O,0.02362X0.05906*%
%ADD62R,0.03937X0.05315*%
%ADD63R,0.03937X0.05315*%
%ADD64R,0.04724X0.04724*%
%TA.AperFunction,BGAPad,CuDef*%
%ADD65C,0.04724*%
%TA.AperFunction,SMDPad,CuDef*%
%ADD66R,0.03937X0.04724*%
%ADD67R,0.03150X0.02756*%
%ADD68R,0.03150X0.03150*%
%ADD69O,0.02362X0.05709*%
G04:AMPARAMS|DCode=70|XSize=25.59mil|YSize=37.4mil|CornerRadius=6.4mil|HoleSize=0mil|Usage=FLASHONLY|Rotation=90.000|XOffset=0mil|YOffset=0mil|HoleType=Round|Shape=RoundedRectangle|*
%AMROUNDEDRECTD70*
21,1,0.02559,0.02461,0,0,90.0*
21,1,0.01280,0.03740,0,0,90.0*
1,1,0.01280,0.01230,0.00640*
1,1,0.01280,0.01230,-0.00640*
1,1,0.01280,-0.01230,-0.00640*
1,1,0.01280,-0.01230,0.00640*
%
%ADD70ROUNDEDRECTD70*%
%ADD71R,0.02756X0.03150*%
%ADD72C,0.05000*%
%ADD73C,0.03000*%
D17*
X23732Y72952D02*
D03*
X17629D02*
D03*
D18*
X67100Y45327D02*
D03*
Y48673D02*
D03*
X28179Y125400D02*
D03*
Y122054D02*
D03*
X103400Y26273D02*
D03*
Y22927D02*
D03*
X101100Y85595D02*
D03*
Y88942D02*
D03*
D29*
X69700Y53528D02*
D03*
Y57072D02*
D03*
X27800Y131728D02*
D03*
Y135272D02*
D03*
X65900Y53528D02*
D03*
Y57072D02*
D03*
X44200Y74028D02*
D03*
Y77572D02*
D03*
X91600Y52972D02*
D03*
Y49428D02*
D03*
X74435Y49428D02*
D03*
Y52972D02*
D03*
X83100Y21228D02*
D03*
Y24772D02*
D03*
D30*
X30728Y94100D02*
D03*
X34272D02*
D03*
X96172Y84900D02*
D03*
X92628D02*
D03*
X79672Y103800D02*
D03*
X76128D02*
D03*
X9228Y41300D02*
D03*
X12772D02*
D03*
X27761Y73960D02*
D03*
X31305D02*
D03*
X63100Y124800D02*
D03*
X66643D02*
D03*
X92628Y88700D02*
D03*
X96172D02*
D03*
X60872Y104500D02*
D03*
X57328D02*
D03*
X66643Y128500D02*
D03*
X63100D02*
D03*
X35028Y70700D02*
D03*
X38572D02*
D03*
D31*
X21273Y41100D02*
D03*
X17927D02*
D03*
X28027Y77600D02*
D03*
X31373D02*
D03*
X33473Y111400D02*
D03*
X30127D02*
D03*
X26327Y104900D02*
D03*
X29673D02*
D03*
X30873Y32600D02*
D03*
X27527D02*
D03*
X18173Y25900D02*
D03*
X14827D02*
D03*
X20327Y10100D02*
D03*
X23673D02*
D03*
X57027Y112400D02*
D03*
X60373D02*
D03*
X60773Y108100D02*
D03*
X57427D02*
D03*
X96127Y64500D02*
D03*
X99473D02*
D03*
D34*
X25100Y58200D02*
D03*
D54*
X26499Y26000D02*
D03*
X38901D02*
D03*
D55*
X51179Y90727D02*
D03*
Y88758D02*
D03*
Y86790D02*
D03*
Y84821D02*
D03*
Y82853D02*
D03*
Y80884D02*
D03*
Y78916D02*
D03*
Y76947D02*
D03*
Y74979D02*
D03*
Y73010D02*
D03*
Y71042D02*
D03*
Y69073D02*
D03*
X86021D02*
D03*
Y71042D02*
D03*
Y73010D02*
D03*
Y74979D02*
D03*
Y76947D02*
D03*
Y78916D02*
D03*
Y80884D02*
D03*
Y82853D02*
D03*
Y84821D02*
D03*
Y86790D02*
D03*
Y88758D02*
D03*
Y90727D02*
D03*
D56*
X57773Y62479D02*
D03*
X59742D02*
D03*
X61710D02*
D03*
X63679D02*
D03*
X65647D02*
D03*
X67616D02*
D03*
X69584D02*
D03*
X71553D02*
D03*
X73521D02*
D03*
X75490D02*
D03*
X77458D02*
D03*
X79427D02*
D03*
Y97321D02*
D03*
X77458D02*
D03*
X75490D02*
D03*
X73521D02*
D03*
X71553D02*
D03*
X69584D02*
D03*
X67616D02*
D03*
X65647D02*
D03*
X63679D02*
D03*
X61710D02*
D03*
X59742D02*
D03*
X57773D02*
D03*
D57*
X45429Y32226D02*
D03*
X52910D02*
D03*
X49169Y22974D02*
D03*
D58*
X97832Y26867D02*
D03*
X89564Y30608D02*
D03*
Y23127D02*
D03*
D59*
X36440Y11863D02*
D03*
X32700Y19737D02*
D03*
X28960Y11863D02*
D03*
D60*
X57728Y132200D02*
D03*
Y127200D02*
D03*
Y122200D02*
D03*
Y117200D02*
D03*
X36272Y132200D02*
D03*
Y127200D02*
D03*
Y122200D02*
D03*
Y117200D02*
D03*
D61*
X77200Y18061D02*
D03*
X72200D02*
D03*
X67200D02*
D03*
X62200D02*
D03*
X77200Y39321D02*
D03*
X72200D02*
D03*
X67200D02*
D03*
X62200D02*
D03*
D62*
X76843Y117100D02*
D03*
D63*
X68757D02*
D03*
X76843Y109900D02*
D03*
X68757D02*
D03*
D64*
X93400Y138500D02*
D03*
D65*
X103400D02*
D03*
Y128500D02*
D03*
X93400D02*
D03*
Y118500D02*
D03*
X103400D02*
D03*
X93400Y108500D02*
D03*
X103400D02*
D03*
X93400Y98500D02*
D03*
X103400D02*
D03*
D66*
X85560Y55549D02*
D03*
X80441D02*
D03*
X85560Y48856D02*
D03*
X80441D02*
D03*
D67*
X100707Y79977D02*
D03*
X95589D02*
D03*
D68*
X101400Y75550D02*
D03*
Y69250D02*
D03*
D69*
X29000Y64860D02*
D03*
X34000D02*
D03*
X39000D02*
D03*
X44000D02*
D03*
X29000Y43403D02*
D03*
X34000D02*
D03*
X39000D02*
D03*
X44000D02*
D03*
D70*
X42574Y105800D02*
D03*
X51826Y102060D02*
D03*
Y109540D02*
D03*
X31174Y85500D02*
D03*
X40426Y81760D02*
D03*
Y89240D02*
D03*
D71*
X95300Y69337D02*
D03*
Y74455D02*
D03*
D72*
X49700Y96700D02*
D03*
X54200Y40700D02*
D03*
X28900Y99000D02*
D03*
X86800Y14900D02*
D03*
D73*
X45400Y82696D02*
D03*
%TF.MD5,f7b9267c18530dae97b17949d15fac75*%
M02*
