%TF.GenerationSoftware,Altium Limited,Altium Designer,20.2.5 (213)*%
G04 Layer_Color=32768*
%FSLAX25Y25*%
%MOIN*%
%TF.SameCoordinates,C9AA4840-3426-47ED-90B3-6D3E683A03ED*%
%TF.FilePolarity,Positive*%
%TF.FileFunction,Other,Top_Assembly*%
%TF.Part,Single*%
G01*
G75*
%TA.AperFunction,NonConductor*%
%ADD77C,0.00984*%
%ADD78C,0.00394*%
D77*
X27092Y125000D02*
G03*
X27092Y125000I-492J0D01*
G01*
X66652Y36428D02*
G03*
X66652Y36428I-492J0D01*
G01*
X43485Y105155D02*
G03*
X43485Y105155I-492J0D01*
G01*
X93566Y54832D02*
G03*
X93566Y54832I-492J0D01*
G01*
X74572Y124037D02*
G03*
X74572Y124037I-492J0D01*
G01*
X63724Y54326D02*
G03*
X63724Y54326I-492J0D01*
G01*
X38294Y12498D02*
G03*
X38294Y12498I-492J0D01*
G01*
X43060Y10774D02*
G03*
X43060Y10774I-492J0D01*
G01*
X37029Y111026D02*
G03*
X37029Y111026I-492J0D01*
G01*
D78*
X33597Y96566D02*
G03*
X33597Y96566I-197J0D01*
G01*
X31959Y92550D02*
G03*
X31959Y92550I-1575J0D01*
G01*
X42528Y43959D02*
G03*
X42528Y43959I-1969J0D01*
G01*
X84482Y22177D02*
G03*
X84482Y22177I-197J0D01*
G01*
X100286Y82708D02*
G03*
X100286Y82708I-197J0D01*
G01*
X86616Y87859D02*
G03*
X86616Y87859I-1969J0D01*
G01*
X50962Y123145D02*
G03*
X50962Y123145I-1575J0D01*
G01*
X38006Y126744D02*
Y132256D01*
X26195D02*
X38006D01*
X26195Y126744D02*
X38006D01*
X26195D02*
Y132256D01*
X55722Y32345D02*
Y37857D01*
X67533Y32345D02*
Y37857D01*
X55722Y32345D02*
X67533D01*
X55722Y37857D02*
X67533D01*
X25266Y87432D02*
Y95700D01*
X33534Y87432D02*
Y95700D01*
X25266Y87432D02*
X33534D01*
X25266Y95700D02*
X33534D01*
X31898Y35298D02*
Y47502D01*
X44102Y35298D02*
Y47502D01*
X31898Y35298D02*
X44102D01*
X31898Y47502D02*
X44102D01*
X70591Y21361D02*
X82009D01*
X70591D02*
Y29039D01*
X82009D01*
Y21361D02*
Y29039D01*
X100943Y81942D02*
Y87257D01*
X93857Y81942D02*
Y87257D01*
Y81942D02*
X100943D01*
X93857Y87257D02*
X100943D01*
X66053Y19684D02*
X72746D01*
X66053Y16141D02*
X72746D01*
X66053D02*
Y19684D01*
X72746Y16141D02*
Y19684D01*
X100517Y60033D02*
X102683D01*
X100517Y64167D02*
X102683D01*
X100517Y60033D02*
Y64167D01*
X102683Y60033D02*
Y64167D01*
X60238Y63450D02*
Y91402D01*
X88191Y63450D02*
Y91402D01*
X60238Y63450D02*
X88191D01*
X60238Y91402D02*
X88191D01*
X44663Y126295D02*
X52537D01*
X44663Y114483D02*
X52537D01*
Y126295D01*
X44663Y114483D02*
Y126295D01*
X28232Y77368D02*
X44768D01*
X28232Y60832D02*
X44768D01*
X28232D02*
Y77368D01*
X44768Y60832D02*
Y77368D01*
X65366Y104682D02*
Y114918D01*
X73634Y104682D02*
Y114918D01*
X65366D02*
X73634D01*
X65366Y104682D02*
X73634D01*
X29143Y78900D02*
X42529D01*
X29143Y85986D02*
X42529D01*
Y78900D02*
Y85986D01*
X29143Y78900D02*
Y85986D01*
X81855Y34070D02*
X88745D01*
X81855Y30330D02*
X88745D01*
X81855D02*
Y34070D01*
X88745Y30330D02*
Y34070D01*
X41519Y52935D02*
X43881D01*
X41519Y57265D02*
X43881D01*
X41519Y52935D02*
Y57265D01*
X43881Y52935D02*
Y57265D01*
X41619Y22935D02*
Y27265D01*
X43981Y22935D02*
Y27265D01*
X41619Y22935D02*
X43981D01*
X41619Y27265D02*
X43981D01*
X39145Y20530D02*
Y24270D01*
X32255Y20530D02*
Y24270D01*
Y20530D02*
X39145D01*
X32255Y24270D02*
X39145D01*
X31835Y138019D02*
Y140381D01*
X36165Y138019D02*
Y140381D01*
X31835D02*
X36165D01*
X31835Y138019D02*
X36165D01*
X27417Y24733D02*
Y28867D01*
X29583Y24733D02*
Y28867D01*
X27417Y24733D02*
X29583D01*
X27417Y28867D02*
X29583D01*
X27417Y43733D02*
X29583D01*
X27417Y47867D02*
X29583D01*
X27417Y43733D02*
Y47867D01*
X29583Y43733D02*
Y47867D01*
X27417Y34233D02*
Y38367D01*
X29583Y34233D02*
Y38367D01*
X27417Y34233D02*
X29583D01*
X27417Y38367D02*
X29583D01*
X25668Y51617D02*
Y53783D01*
X29802Y51617D02*
Y53783D01*
X25668D02*
X29802D01*
X25668Y51617D02*
X29802D01*
X27633Y118517D02*
X31767D01*
X27633Y120683D02*
X31767D01*
Y118517D02*
Y120683D01*
X27633Y118517D02*
Y120683D01*
X41119Y122035D02*
X43481D01*
X41119Y126365D02*
X43481D01*
X41119Y122035D02*
Y126365D01*
X43481Y122035D02*
Y126365D01*
X26895Y101281D02*
X31226D01*
X26895Y98919D02*
X31226D01*
X26895D02*
Y101281D01*
X31226Y98919D02*
Y101281D01*
X35835Y87519D02*
X40165D01*
X35835Y89881D02*
X40165D01*
Y87519D02*
Y89881D01*
X35835Y87519D02*
Y89881D01*
X41563Y94718D02*
Y106528D01*
X47075Y94718D02*
Y106528D01*
X41563D02*
X47075D01*
X41563Y94718D02*
X47075D01*
X46886Y108512D02*
Y110677D01*
X51020Y108512D02*
Y110677D01*
X46886D02*
X51020D01*
X46886Y108512D02*
X51020D01*
X36430Y52855D02*
Y59745D01*
X40170Y52855D02*
Y59745D01*
X36430Y52855D02*
X40170D01*
X36430Y59745D02*
X40170D01*
X25668Y58483D02*
X29802D01*
X25668Y56317D02*
X29802D01*
X25668D02*
Y58483D01*
X29802Y56317D02*
Y58483D01*
X33019Y52835D02*
X35381D01*
X33019Y57165D02*
X35381D01*
X33019Y52835D02*
Y57165D01*
X35381Y52835D02*
Y57165D01*
X32255Y25730D02*
Y29470D01*
X39145Y25730D02*
Y29470D01*
X32255D02*
X39145D01*
X32255Y25730D02*
X39145D01*
X45497Y21855D02*
Y28745D01*
X49237Y21855D02*
Y28745D01*
X45497Y21855D02*
X49237D01*
X45497Y28745D02*
X49237D01*
X63825Y101468D02*
X68156D01*
X63825Y99106D02*
X68156D01*
X63825D02*
Y101468D01*
X68156Y99106D02*
Y101468D01*
X70925Y101939D02*
X75256D01*
X70925Y99577D02*
X75256D01*
X70925D02*
Y101939D01*
X75256Y99577D02*
Y101939D01*
X73235Y95719D02*
X77565D01*
X73235Y98081D02*
X77565D01*
Y95719D02*
Y98081D01*
X73235Y95719D02*
Y98081D01*
X95317Y70167D02*
X97483D01*
X95317Y66033D02*
X97483D01*
Y70167D01*
X95317Y66033D02*
Y70167D01*
X93781Y75635D02*
Y79965D01*
X91419Y75635D02*
Y79965D01*
X93781D01*
X91419Y75635D02*
X93781D01*
X75436Y59028D02*
X79767D01*
X75436Y56666D02*
X79767D01*
X75436D02*
Y59028D01*
X79767Y56666D02*
Y59028D01*
X56681Y75635D02*
Y79965D01*
X54319Y75635D02*
Y79965D01*
X56681D01*
X54319Y75635D02*
X56681D01*
X68404Y56724D02*
X72735D01*
X68404Y59087D02*
X72735D01*
Y56724D02*
Y59087D01*
X68404Y56724D02*
Y59087D01*
X50717Y23033D02*
Y27167D01*
X52883Y23033D02*
Y27167D01*
X50717Y23033D02*
X52883D01*
X50717Y27167D02*
X52883D01*
X102881Y88735D02*
Y93065D01*
X100519Y88735D02*
Y93065D01*
X102881D01*
X100519Y88735D02*
X102881D01*
X79917Y101867D02*
X82083D01*
X79917Y97733D02*
X82083D01*
Y101867D01*
X79917Y97733D02*
Y101867D01*
X91644Y44394D02*
X97156D01*
X91644Y56205D02*
X97156D01*
Y44394D02*
Y56205D01*
X91644Y44394D02*
Y56205D01*
X78678Y124045D02*
Y128178D01*
X80843Y124045D02*
Y128178D01*
X78678Y124045D02*
X80843D01*
X78678Y128178D02*
X80843D01*
X59317Y128167D02*
X61483D01*
X59317Y124033D02*
X61483D01*
Y128167D01*
X59317Y124033D02*
Y128167D01*
X53333Y130117D02*
X57467D01*
X53333Y132283D02*
X57467D01*
Y130117D02*
Y132283D01*
X53333Y130117D02*
Y132283D01*
X56107Y100231D02*
X58272D01*
X56107Y96097D02*
X58272D01*
Y100231D01*
X56107Y96097D02*
Y100231D01*
X55117Y89033D02*
Y93167D01*
X57283Y89033D02*
Y93167D01*
X55117Y89033D02*
X57283D01*
X55117Y93167D02*
X57283D01*
X91417Y69042D02*
X93583D01*
X91417Y64908D02*
X93583D01*
Y69042D01*
X91417Y64908D02*
Y69042D01*
X63643Y125467D02*
X75454D01*
X63643Y119955D02*
X75454D01*
Y125467D01*
X63643Y119955D02*
Y125467D01*
X69333Y130117D02*
X73467D01*
X69333Y132283D02*
X73467D01*
Y130117D02*
Y132283D01*
X69333Y130117D02*
Y132283D01*
X76666Y117385D02*
X78831D01*
X76666Y121519D02*
X78831D01*
X76666Y117385D02*
Y121519D01*
X78831Y117385D02*
Y121519D01*
X104383Y50633D02*
Y54767D01*
X102217Y50633D02*
Y54767D01*
X104383D01*
X102217Y50633D02*
X104383D01*
X91417Y58733D02*
X93583D01*
X91417Y62867D02*
X93583D01*
X91417Y58733D02*
Y62867D01*
X93583Y58733D02*
Y62867D01*
X52794Y50244D02*
Y55756D01*
X64605Y50244D02*
Y55756D01*
X52794Y50244D02*
X64605D01*
X52794Y55756D02*
X64605D01*
X56333Y45583D02*
X60467D01*
X56333Y43417D02*
X60467D01*
X56333D02*
Y45583D01*
X60467Y43417D02*
Y45583D01*
X55417Y66667D02*
X57583D01*
X55417Y62533D02*
X57583D01*
Y66667D01*
X55417Y62533D02*
Y66667D01*
X54717Y69050D02*
Y73184D01*
X56883Y69050D02*
Y73184D01*
X54717Y69050D02*
X56883D01*
X54717Y73184D02*
X56883D01*
X27364Y13927D02*
X39175D01*
X27364Y8415D02*
X39175D01*
Y13927D01*
X27364Y8415D02*
Y13927D01*
X53005Y9344D02*
Y14856D01*
X41194Y9344D02*
Y14856D01*
X53005D01*
X41194Y9344D02*
X53005D01*
X26099Y112456D02*
X37910D01*
X26099Y106944D02*
X37910D01*
Y112456D01*
X26099Y106944D02*
Y112456D01*
%TF.MD5,a9f6531990e21be46582fc034a64301e*%
M02*
