M48
;Layer_Color=9474304
;FILE_FORMAT=2:5
INCH,LZ
;TYPE=PLATED
T1F00S00C0.01181
T2F00S00C0.01200
T3F00S00C0.01968
T4F00S00C0.03543
T5F00S00C0.05315
%
T01
X00471Y0010131
X0049Y00322
X0052542Y0046116
X0020844Y0038452
X0017Y0055
X0013
X0015Y0053
X00681Y00523
X00713Y005
X0074435Y005494
X0074302Y0036935
X0077829Y0022936
X00875Y00269
X00903
X0094515Y0030317
X00944Y0044394
X0091644
X009312Y004746
X01086Y00474
X00891Y00024
X00654Y00048
X0060916Y0015006
X0061274Y0023312
X00669Y00705
Y0075533
Y0080681
Y00856
X00729
Y0081
Y0075533
Y00705
X00789
Y0075533
X0078898Y0080681
X00789Y00856
X00944Y0091688
X0095303Y0094509
X00916Y0099381
X0091Y01077
X0089Y01112
Y01147
X00913Y01183
X0086Y01048
X00808Y01082
X0068094Y0102006
X0069548Y012468
X00768Y01242
X00613Y01349
X0056981Y0073283
X0101203Y0075747
X01016Y006905
X01023Y00973
X01026Y01032
X00522Y01033
X0051919Y009522
X0045945Y0093455
X00379Y00935
X00387Y0103
X00432Y01076
X0046675Y01188
X00498
Y01223
X0046675
X00424Y01293
X00417Y0131593
X00442Y01313
X00403Y01381
Y01409
X00303Y01405
X00278
Y01381
X00321Y0138216
X0031914Y0126744
X00224Y01322
Y01348
X00195Y01331
X0017Y01344
X00161Y01314
X00157Y0126
X00237Y0119001
X00247Y01133
X00305Y01099
X0015687Y0107281
X001373Y0096
X00046Y00924
X0002
Y0089562
X00046
Y0086724
X0002
X00016Y0099262
X00042
Y01021
X00016
Y0104938
X00042
X00043Y00753
X00072
X001
Y00722
X00072
X00043
X0011Y0057
X0015
X0013Y0059
X00365Y0060832
X00361Y00678
X00351Y00738
X00473Y00623
X0045946Y005997
X004802Y0057759
X005496Y0058593
X00562Y01094
T02
X0039367Y0089898
X0042058Y0111828
X004097Y0114028
T03
X01021Y0015
X00188Y0120095
T04
X00606Y00096
X00706
X00806
X00984Y0003703
Y01035
Y01335
X00854Y01388
X00754
X00654
X0085293Y0126597
X00554Y01388
X00454
X00195
X00095
T05
X0008314Y001774
X0020125
Y0033488
X0008314
Y0049236
X0020125
Y0064984
X0008314
Y0080732
X0020125
Y009648
X0008314
Y0112228
X0020125
Y0127976
X0008314
M30
