%TF.GenerationSoftware,Altium Limited,Altium Designer,20.2.5 (213)*%
G04 Layer_Color=128*
%FSLAX25Y25*%
%MOIN*%
%TF.SameCoordinates,C9AA4840-3426-47ED-90B3-6D3E683A03ED*%
%TF.FilePolarity,Positive*%
%TF.FileFunction,Drillmap*%
%TF.Part,Single*%
G01*
G75*
%TA.AperFunction,NonConductor*%
%ADD140C,0.00500*%
D140*
X17468Y127976D02*
X22783D01*
X20125Y125319D02*
Y130634D01*
X17468Y112228D02*
X22783D01*
X20125Y109571D02*
Y114886D01*
X17468Y96480D02*
X22783D01*
X20125Y93823D02*
Y99138D01*
X17468Y80732D02*
X22783D01*
X20125Y78075D02*
Y83390D01*
X17468Y64984D02*
X22783D01*
X20125Y62327D02*
Y67642D01*
X17468Y49236D02*
X22783D01*
X20125Y46579D02*
Y51894D01*
X17468Y33488D02*
X22783D01*
X20125Y30830D02*
Y36145D01*
X17468Y17740D02*
X22783D01*
X20125Y15082D02*
Y20398D01*
X5657Y127976D02*
X10971D01*
X8314Y125319D02*
Y130634D01*
X5657Y112228D02*
X10971D01*
X8314Y109571D02*
Y114886D01*
X5657Y96480D02*
X10971D01*
X8314Y93823D02*
Y99138D01*
X5657Y80732D02*
X10971D01*
X8314Y78075D02*
Y83390D01*
X5657Y64984D02*
X10971D01*
X8314Y62327D02*
Y67642D01*
X5657Y49236D02*
X10971D01*
X8314Y46579D02*
Y51894D01*
X5657Y33488D02*
X10971D01*
X8314Y30830D02*
Y36145D01*
X5657Y17740D02*
X10971D01*
X8314Y15082D02*
Y20398D01*
X83628Y138800D02*
X87172D01*
X85400Y137028D02*
Y140572D01*
X73628Y138800D02*
X77172D01*
X75400Y137028D02*
Y140572D01*
X63628Y138800D02*
X67172D01*
X65400Y137028D02*
Y140572D01*
X53628Y138800D02*
X57172D01*
X55400Y137028D02*
Y140572D01*
X43628Y138800D02*
X47172D01*
X45400Y137028D02*
Y140572D01*
X78828Y9600D02*
X82372D01*
X80600Y7828D02*
Y11372D01*
X68828Y9600D02*
X72372D01*
X70600Y7828D02*
Y11372D01*
X58828Y9600D02*
X62372D01*
X60600Y7828D02*
Y11372D01*
X7728Y138800D02*
X11272D01*
X9500Y137028D02*
Y140572D01*
X17728Y138800D02*
X21272D01*
X19500Y137028D02*
Y140572D01*
X83522Y126597D02*
X87065D01*
X85293Y124825D02*
Y128368D01*
X96628Y3703D02*
X100172D01*
X98400Y1932D02*
Y5475D01*
X96628Y103500D02*
X100172D01*
X98400Y101728D02*
Y105272D01*
X96628Y133500D02*
X100172D01*
X98400Y131728D02*
Y135272D01*
X46709Y62300D02*
X47891D01*
X47300Y61709D02*
Y62890D01*
X35509Y67800D02*
X36691D01*
X36100Y67210D02*
Y68391D01*
X34509Y73800D02*
X35691D01*
X35100Y73210D02*
Y74391D01*
X45355Y59970D02*
X46536D01*
X45946Y59380D02*
Y60561D01*
X60684Y23312D02*
X61865D01*
X61274Y22722D02*
Y23903D01*
X93925Y30317D02*
X95106D01*
X94515Y29726D02*
Y30907D01*
X89710Y26900D02*
X90891D01*
X90300Y26309D02*
Y27491D01*
X86910Y26900D02*
X88090D01*
X87500Y26309D02*
Y27491D01*
X91053Y44394D02*
X92235D01*
X91644Y43804D02*
Y44985D01*
X92530Y47460D02*
X93711D01*
X93120Y46869D02*
Y48050D01*
X93809Y44394D02*
X94990D01*
X94400Y43804D02*
Y44985D01*
X48409Y32200D02*
X49591D01*
X49000Y31609D02*
Y32791D01*
X46509Y10131D02*
X47691D01*
X47100Y9541D02*
Y10722D01*
X60325Y15006D02*
X61506D01*
X60916Y14415D02*
Y15596D01*
X73712Y36935D02*
X74893D01*
X74302Y36344D02*
Y37525D01*
X73845Y54940D02*
X75026D01*
X74435Y54350D02*
Y55531D01*
X67510Y52300D02*
X68691D01*
X68100Y51710D02*
Y52890D01*
X70710Y50000D02*
X71890D01*
X71300Y49409D02*
Y50591D01*
X51951Y46116D02*
X53132D01*
X52542Y45525D02*
Y46707D01*
X77239Y22936D02*
X78420D01*
X77829Y22346D02*
Y23527D01*
X1010Y102100D02*
X2191D01*
X1600Y101509D02*
Y102691D01*
X3609Y104938D02*
X4791D01*
X4200Y104348D02*
Y105528D01*
X1010Y104938D02*
X2191D01*
X1600Y104348D02*
Y105528D01*
X3609Y102100D02*
X4791D01*
X4200Y101509D02*
Y102691D01*
X1010Y99262D02*
X2191D01*
X1600Y98672D02*
Y99853D01*
X3609Y99262D02*
X4791D01*
X4200Y98672D02*
Y99853D01*
X4009Y86724D02*
X5191D01*
X4600Y86133D02*
Y87314D01*
X1409Y86724D02*
X2591D01*
X2000Y86133D02*
Y87314D01*
X9409Y72200D02*
X10591D01*
X10000Y71609D02*
Y72790D01*
X6609Y72200D02*
X7791D01*
X7200Y71609D02*
Y72790D01*
X6609Y75300D02*
X7791D01*
X7200Y74709D02*
Y75890D01*
X3709Y75300D02*
X4891D01*
X4300Y74709D02*
Y75890D01*
X14410Y57000D02*
X15590D01*
X15000Y56410D02*
Y57591D01*
X10409Y57000D02*
X11591D01*
X11000Y56410D02*
Y57591D01*
X16409Y55000D02*
X17591D01*
X17000Y54409D02*
Y55590D01*
X54369Y58593D02*
X55550D01*
X54960Y58002D02*
Y59183D01*
X88510Y2400D02*
X89691D01*
X89100Y1809D02*
Y2991D01*
X72309Y85600D02*
X73491D01*
X72900Y85009D02*
Y86190D01*
X15096Y107281D02*
X16277D01*
X15687Y106691D02*
Y107872D01*
X35909Y60832D02*
X37091D01*
X36500Y60242D02*
Y61423D01*
X102009Y103200D02*
X103191D01*
X102600Y102609D02*
Y103791D01*
X47430Y57759D02*
X48611D01*
X48020Y57169D02*
Y58350D01*
X67503Y102006D02*
X68684D01*
X68094Y101415D02*
Y102596D01*
X93809Y91688D02*
X94990D01*
X94400Y91097D02*
Y92278D01*
X94712Y94509D02*
X95893D01*
X95303Y93918D02*
Y95099D01*
X49209Y122300D02*
X50391D01*
X49800Y121709D02*
Y122891D01*
X49209Y118800D02*
X50391D01*
X49800Y118209D02*
Y119391D01*
X13139Y96000D02*
X14321D01*
X13730Y95410D02*
Y96591D01*
X45354Y93455D02*
X46535D01*
X45945Y92865D02*
Y94046D01*
X78310Y75533D02*
X79491D01*
X78900Y74943D02*
Y76124D01*
X37309Y93500D02*
X38491D01*
X37900Y92909D02*
Y94090D01*
X51609Y103300D02*
X52790D01*
X52200Y102709D02*
Y103891D01*
X38767Y89898D02*
X39967D01*
X39367Y89297D02*
Y90497D01*
X15509Y131400D02*
X16691D01*
X16100Y130809D02*
Y131991D01*
X12409Y55000D02*
X13590D01*
X13000Y54409D02*
Y55590D01*
X90710Y118300D02*
X91891D01*
X91300Y117709D02*
Y118891D01*
X101709Y97300D02*
X102891D01*
X102300Y96710D02*
Y97891D01*
X91009Y99381D02*
X92190D01*
X91600Y98791D02*
Y99972D01*
X29909Y109900D02*
X31091D01*
X30500Y109309D02*
Y110491D01*
X46085Y122300D02*
X47266D01*
X46675Y121709D02*
Y122891D01*
X46085Y118800D02*
X47266D01*
X46675Y118209D02*
Y119391D01*
X20253Y38452D02*
X21434D01*
X20844Y37862D02*
Y39043D01*
X55610Y109400D02*
X56791D01*
X56200Y108809D02*
Y109991D01*
X60710Y134900D02*
X61891D01*
X61300Y134309D02*
Y135491D01*
X39709Y140900D02*
X40891D01*
X40300Y140309D02*
Y141491D01*
X72309Y81000D02*
X73491D01*
X72900Y80409D02*
Y81590D01*
X101116Y15000D02*
X103084D01*
X102100Y14016D02*
Y15984D01*
X101010Y69050D02*
X102190D01*
X101600Y68460D02*
Y69641D01*
X64810Y4800D02*
X65991D01*
X65400Y4209D02*
Y5391D01*
X88410Y114700D02*
X89591D01*
X89000Y114109D02*
Y115291D01*
X88410Y111200D02*
X89591D01*
X89000Y110609D02*
Y111791D01*
X56391Y73283D02*
X57572D01*
X56981Y72692D02*
Y73873D01*
X78310Y85600D02*
X79491D01*
X78900Y85009D02*
Y86190D01*
X78308Y80681D02*
X79489D01*
X78898Y80090D02*
Y81272D01*
X66309Y80681D02*
X67491D01*
X66900Y80090D02*
Y81272D01*
X66309Y75533D02*
X67491D01*
X66900Y74943D02*
Y76124D01*
X72309Y75533D02*
X73491D01*
X72900Y74943D02*
Y76124D01*
X66309Y85600D02*
X67491D01*
X66900Y85009D02*
Y86190D01*
X41109Y131593D02*
X42291D01*
X41700Y131002D02*
Y132183D01*
X41809Y129300D02*
X42991D01*
X42400Y128709D02*
Y129891D01*
X31324Y126744D02*
X32505D01*
X31914Y126154D02*
Y127335D01*
X17816Y120095D02*
X19784D01*
X18800Y119111D02*
Y121080D01*
X15110Y126000D02*
X16290D01*
X15700Y125409D02*
Y126591D01*
X40370Y114028D02*
X41570D01*
X40970Y113428D02*
Y114628D01*
X41458Y111828D02*
X42658D01*
X42058Y111228D02*
Y112428D01*
X27209Y140500D02*
X28391D01*
X27800Y139909D02*
Y141091D01*
X29709Y140500D02*
X30891D01*
X30300Y139909D02*
Y141091D01*
X31509Y138216D02*
X32691D01*
X32100Y137625D02*
Y138806D01*
X80209Y108200D02*
X81391D01*
X80800Y107609D02*
Y108791D01*
X72309Y70500D02*
X73491D01*
X72900Y69910D02*
Y71091D01*
X43609Y131300D02*
X44791D01*
X44200Y130709D02*
Y131891D01*
X39709Y138100D02*
X40891D01*
X40300Y137509D02*
Y138691D01*
X27209Y138100D02*
X28391D01*
X27800Y137509D02*
Y138691D01*
X21810Y132200D02*
X22990D01*
X22400Y131609D02*
Y132791D01*
X21810Y134800D02*
X22990D01*
X22400Y134209D02*
Y135391D01*
X18910Y133100D02*
X20090D01*
X19500Y132509D02*
Y133691D01*
X16409Y134400D02*
X17591D01*
X17000Y133809D02*
Y134991D01*
X23110Y119001D02*
X24291D01*
X23700Y118411D02*
Y119592D01*
X24110Y113300D02*
X25291D01*
X24700Y112709D02*
Y113891D01*
X76209Y124200D02*
X77390D01*
X76800Y123609D02*
Y124791D01*
X68958Y124680D02*
X70139D01*
X69548Y124089D02*
Y125270D01*
X85409Y104800D02*
X86590D01*
X86000Y104209D02*
Y105391D01*
X38109Y103000D02*
X39291D01*
X38700Y102409D02*
Y103591D01*
X42609Y107600D02*
X43791D01*
X43200Y107009D02*
Y108191D01*
X66309Y70500D02*
X67491D01*
X66900Y69910D02*
Y71091D01*
X78310Y70500D02*
X79491D01*
X78900Y69910D02*
Y71091D01*
X4009Y89562D02*
X5191D01*
X4600Y88972D02*
Y90153D01*
X1409Y92400D02*
X2591D01*
X2000Y91809D02*
Y92990D01*
X4009Y92400D02*
X5191D01*
X4600Y91809D02*
Y92990D01*
X1409Y89562D02*
X2591D01*
X2000Y88972D02*
Y90153D01*
X3709Y72200D02*
X4891D01*
X4300Y71609D02*
Y72790D01*
X9409Y75300D02*
X10591D01*
X10000Y74709D02*
Y75890D01*
X51328Y95220D02*
X52509D01*
X51919Y94629D02*
Y95810D01*
X12409Y59000D02*
X13590D01*
X13000Y58410D02*
Y59591D01*
X14410Y53000D02*
X15590D01*
X15000Y52409D02*
Y53591D01*
X100613Y75747D02*
X101794D01*
X101203Y75156D02*
Y76337D01*
X90409Y107700D02*
X91590D01*
X91000Y107109D02*
Y108291D01*
X108009Y47400D02*
X109191D01*
X108600Y46809D02*
Y47991D01*
%TF.MD5,9723a8db301673f33111fa35ce5a86aa*%
M02*
