%TF.GenerationSoftware,Altium Limited,Altium Designer,20.2.5 (213)*%
G04 Layer_Color=65535*
%FSLAX25Y25*%
%MOIN*%
%TF.SameCoordinates,C9AA4840-3426-47ED-90B3-6D3E683A03ED*%
%TF.FilePolarity,Positive*%
%TF.FileFunction,Legend,Top*%
%TF.Part,Single*%
G01*
G75*
%TA.AperFunction,NonConductor*%
%ADD77C,0.00984*%
%ADD78C,0.00394*%
%ADD79C,0.00000*%
%ADD80C,0.01000*%
%ADD81C,0.00800*%
%ADD82C,0.00600*%
%ADD116C,0.00787*%
G36*
X100703Y106231D02*
Y106301D01*
X100772D01*
Y106370D01*
X100841D01*
X100911D01*
X100980D01*
X101050D01*
X101119D01*
X101188D01*
X101258D01*
X101327D01*
X101397D01*
X101466D01*
X101535D01*
X101605D01*
X101674D01*
X101744D01*
X101813D01*
X101883D01*
X101952D01*
X102022D01*
X102091D01*
X102160D01*
X102230D01*
X102299D01*
X102369D01*
X102438D01*
X102507D01*
X102577D01*
X102646D01*
X102716D01*
X102785D01*
X102855D01*
X102924D01*
X102993D01*
X103063D01*
X103132D01*
X103202D01*
X103271D01*
X103340D01*
X103410D01*
X103479D01*
X103549D01*
X103618D01*
X103688D01*
X103757D01*
X103826D01*
X103896D01*
X103965D01*
X104035D01*
X104104D01*
X104174D01*
X104243D01*
X104312D01*
X104382D01*
X104451D01*
X104521D01*
X104590D01*
X104659D01*
X104729D01*
X104798D01*
X104868D01*
X104937D01*
X105007D01*
X105076D01*
X105146D01*
X105215D01*
X105284D01*
X105354D01*
X105423D01*
X105493D01*
X105562D01*
X105631D01*
X105701D01*
X105770D01*
X105840D01*
X105909D01*
X105979D01*
X106048D01*
X106117D01*
X106187D01*
X106256D01*
X106326D01*
X106395D01*
X106465D01*
X106534D01*
X106603D01*
X106673D01*
X106742D01*
Y106301D01*
X106812D01*
X106881D01*
Y105051D01*
X106812D01*
Y104982D01*
X106742D01*
X106673D01*
X106603D01*
X106534D01*
X106465D01*
X106395D01*
X106326D01*
X106256D01*
X106187D01*
X106117D01*
X106048D01*
X105979D01*
X105909D01*
X105840D01*
X105770D01*
X105701D01*
X105631D01*
X105562D01*
X105493D01*
X105423D01*
X105354D01*
X105284D01*
X105215D01*
X105146D01*
X105076D01*
X105007D01*
X104937D01*
X104868D01*
X104798D01*
X104729D01*
X104659D01*
X104590D01*
X104521D01*
X104451D01*
X104382D01*
X104312D01*
X104243D01*
X104174D01*
X104104D01*
X104035D01*
X103965D01*
X103896D01*
X103826D01*
X103757D01*
X103688D01*
X103618D01*
X103549D01*
X103479D01*
X103410D01*
X103340D01*
X103271D01*
X103202D01*
X103132D01*
X103063D01*
X102993D01*
X102924D01*
X102855D01*
X102785D01*
X102716D01*
X102646D01*
X102577D01*
X102507D01*
X102438D01*
X102369D01*
X102299D01*
X102230D01*
X102160D01*
X102091D01*
X102022D01*
X101952D01*
X101883D01*
X101813D01*
X101744D01*
X101674D01*
X101605D01*
X101535D01*
X101466D01*
X101397D01*
X101327D01*
X101258D01*
X101188D01*
X101119D01*
X101050D01*
X100980D01*
X100911D01*
X100841D01*
X100772D01*
X100703D01*
Y105051D01*
X100633D01*
Y106231D01*
X100703D01*
D02*
G37*
G36*
Y111369D02*
Y111438D01*
X100772D01*
X100841D01*
Y111369D01*
X100911D01*
X100980D01*
Y111299D01*
X101050D01*
Y111230D01*
X101119D01*
Y111160D01*
X101188D01*
Y111091D01*
X101258D01*
Y111021D01*
X101327D01*
Y110952D01*
X101397D01*
Y110883D01*
X101466D01*
Y110813D01*
X101535D01*
Y110744D01*
X101605D01*
Y110674D01*
X101674D01*
Y110605D01*
X101744D01*
Y110536D01*
X101813D01*
X101883D01*
Y110466D01*
X101952D01*
Y110397D01*
X102022D01*
Y110327D01*
X102091D01*
Y110258D01*
X102160D01*
Y110188D01*
X102230D01*
Y110119D01*
X102299D01*
Y110050D01*
X102369D01*
Y109980D01*
X102438D01*
Y109911D01*
X102507D01*
Y109841D01*
X102577D01*
Y109772D01*
X102646D01*
Y109703D01*
X102716D01*
X102785D01*
Y109633D01*
X102855D01*
Y109564D01*
X102924D01*
Y109494D01*
X102993D01*
Y109425D01*
X103063D01*
Y109355D01*
X103132D01*
Y109286D01*
X103202D01*
Y109216D01*
X103271D01*
Y109147D01*
X103340D01*
Y109078D01*
X103410D01*
Y109008D01*
X103479D01*
Y108939D01*
X103549D01*
Y108869D01*
X103618D01*
Y108800D01*
X103688D01*
X103757D01*
Y108869D01*
X103826D01*
Y109008D01*
X103896D01*
Y109078D01*
X103965D01*
Y109216D01*
X104035D01*
Y109286D01*
X104104D01*
Y109355D01*
X104174D01*
Y109425D01*
X104243D01*
Y109494D01*
X104312D01*
Y109564D01*
X104382D01*
Y109633D01*
X104451D01*
Y109703D01*
X104521D01*
X104590D01*
Y109772D01*
X104659D01*
Y109841D01*
X104729D01*
Y109911D01*
X104798D01*
Y109980D01*
X104868D01*
Y110050D01*
X104937D01*
Y110119D01*
X105007D01*
Y110188D01*
X105076D01*
Y110258D01*
X105146D01*
Y110327D01*
X105215D01*
Y110397D01*
X105284D01*
Y110466D01*
X105354D01*
Y110536D01*
X105423D01*
Y110605D01*
X105493D01*
Y110674D01*
X105562D01*
Y110744D01*
X105631D01*
X105701D01*
Y110813D01*
X105770D01*
Y110883D01*
X105840D01*
Y110952D01*
X105909D01*
Y111021D01*
X105979D01*
Y111091D01*
X106048D01*
Y111160D01*
X106117D01*
Y111230D01*
X106187D01*
Y111299D01*
X106256D01*
Y111369D01*
X106326D01*
Y111438D01*
X106395D01*
Y111507D01*
X106465D01*
Y111577D01*
X106534D01*
Y111646D01*
X106603D01*
Y111716D01*
X106673D01*
X106742D01*
X106812D01*
X106881D01*
Y109980D01*
X106812D01*
Y109911D01*
X106742D01*
Y109841D01*
X106673D01*
Y109772D01*
X106603D01*
Y109703D01*
X106534D01*
Y109633D01*
X106465D01*
Y109564D01*
X106395D01*
Y109494D01*
X106326D01*
X106256D01*
Y109425D01*
X106187D01*
Y109355D01*
X106117D01*
Y109286D01*
X106048D01*
Y109216D01*
X105979D01*
Y109147D01*
X105909D01*
Y109078D01*
X105840D01*
Y109008D01*
X105770D01*
Y108939D01*
X105701D01*
Y108869D01*
X105631D01*
Y108800D01*
X105562D01*
X105493D01*
Y108731D01*
X105423D01*
Y108661D01*
X105354D01*
Y108592D01*
X105284D01*
Y108522D01*
X105215D01*
Y108453D01*
X105146D01*
Y108384D01*
X105076D01*
Y108314D01*
X105007D01*
Y108245D01*
X104937D01*
Y108175D01*
X104868D01*
Y108106D01*
X104798D01*
Y108036D01*
X104729D01*
X104659D01*
Y107967D01*
X104590D01*
Y107897D01*
X104521D01*
Y107828D01*
X104451D01*
Y107759D01*
X104382D01*
Y107689D01*
X104312D01*
Y107620D01*
X104243D01*
Y107550D01*
X104174D01*
Y107481D01*
X104104D01*
Y107412D01*
X104035D01*
Y107342D01*
X103965D01*
X103896D01*
Y107273D01*
X103826D01*
Y107203D01*
X103757D01*
Y107134D01*
X103688D01*
X103618D01*
Y107203D01*
X103549D01*
Y107273D01*
X103479D01*
X103410D01*
Y107342D01*
X103340D01*
Y107412D01*
X103271D01*
Y107481D01*
X103202D01*
Y107550D01*
X103132D01*
Y107620D01*
X103063D01*
Y107689D01*
X102993D01*
X102924D01*
Y107759D01*
X102855D01*
Y107828D01*
X102785D01*
Y107897D01*
X102716D01*
Y107967D01*
X102646D01*
Y108036D01*
X102577D01*
Y108106D01*
X102507D01*
Y108175D01*
X102438D01*
X102369D01*
Y108245D01*
X102299D01*
Y108314D01*
X102230D01*
Y108384D01*
X102160D01*
Y108453D01*
X102091D01*
Y108522D01*
X102022D01*
Y108592D01*
X101952D01*
Y108661D01*
X101883D01*
X101813D01*
Y108731D01*
X101744D01*
Y108800D01*
X101674D01*
Y108869D01*
X101605D01*
Y108939D01*
X101535D01*
Y109008D01*
X101466D01*
Y109078D01*
X101397D01*
Y109147D01*
X101327D01*
Y109216D01*
X101258D01*
X101188D01*
Y109286D01*
X101119D01*
Y109355D01*
X101050D01*
Y109425D01*
X100980D01*
Y109494D01*
X100911D01*
Y109564D01*
X100841D01*
Y109633D01*
X100772D01*
Y109703D01*
X100703D01*
Y109841D01*
X100633D01*
Y111369D01*
X100703D01*
D02*
G37*
G36*
Y121851D02*
Y121921D01*
X100772D01*
X100841D01*
X100911D01*
X100980D01*
X101050D01*
X101119D01*
X101188D01*
X101258D01*
X101327D01*
X101397D01*
X101466D01*
X101535D01*
X101605D01*
X101674D01*
X101744D01*
X101813D01*
Y121851D01*
X101883D01*
Y117408D01*
X101952D01*
Y117131D01*
X102022D01*
Y116992D01*
X102091D01*
Y116922D01*
X102160D01*
Y116853D01*
X102230D01*
Y116783D01*
X102299D01*
X102369D01*
Y116714D01*
X102438D01*
X102507D01*
X102577D01*
X102646D01*
Y116645D01*
X102716D01*
X102785D01*
X102855D01*
X102924D01*
X102993D01*
X103063D01*
X103132D01*
X103202D01*
Y121851D01*
X103271D01*
X103340D01*
X103410D01*
X103479D01*
X103549D01*
X103618D01*
X103688D01*
X103757D01*
X103826D01*
X103896D01*
X103965D01*
X104035D01*
X104104D01*
X104174D01*
X104243D01*
Y121782D01*
X104312D01*
Y116645D01*
X104382D01*
X104451D01*
X104521D01*
X104590D01*
X104659D01*
X104729D01*
X104798D01*
X104868D01*
Y116714D01*
X104937D01*
X105007D01*
X105076D01*
X105146D01*
Y116783D01*
X105215D01*
X105284D01*
Y116853D01*
X105354D01*
Y116922D01*
X105423D01*
Y116992D01*
X105493D01*
Y117131D01*
X105562D01*
Y117408D01*
X105631D01*
Y121851D01*
X105701D01*
Y121921D01*
X105770D01*
X105840D01*
X105909D01*
X105979D01*
X106048D01*
X106117D01*
X106187D01*
X106256D01*
X106326D01*
X106395D01*
X106465D01*
X106534D01*
X106603D01*
X106673D01*
X106742D01*
X106812D01*
Y121851D01*
X106881D01*
Y117200D01*
X106812D01*
Y116783D01*
X106742D01*
Y116506D01*
X106673D01*
Y116297D01*
X106603D01*
Y116159D01*
X106534D01*
Y116089D01*
X106465D01*
Y115950D01*
X106395D01*
Y115881D01*
X106326D01*
Y115812D01*
X106256D01*
Y115742D01*
X106187D01*
Y115673D01*
X106117D01*
X106048D01*
Y115603D01*
X105979D01*
X105909D01*
Y115534D01*
X105840D01*
X105770D01*
Y115464D01*
X105701D01*
X105631D01*
X105562D01*
Y115395D01*
X105493D01*
X105423D01*
X105354D01*
X105284D01*
X105215D01*
Y115326D01*
X105146D01*
X105076D01*
X105007D01*
X104937D01*
X104868D01*
X104798D01*
X104729D01*
X104659D01*
X104590D01*
X104521D01*
X104451D01*
X104382D01*
X104312D01*
X104243D01*
X104174D01*
X104104D01*
X104035D01*
X103965D01*
X103896D01*
X103826D01*
X103757D01*
X103688D01*
X103618D01*
X103549D01*
X103479D01*
X103410D01*
X103340D01*
X103271D01*
X103202D01*
X103132D01*
X103063D01*
X102993D01*
X102924D01*
X102855D01*
X102785D01*
X102716D01*
X102646D01*
X102577D01*
X102507D01*
X102438D01*
X102369D01*
X102299D01*
Y115395D01*
X102230D01*
X102160D01*
X102091D01*
X102022D01*
X101952D01*
Y115464D01*
X101883D01*
X101813D01*
X101744D01*
Y115534D01*
X101674D01*
X101605D01*
Y115603D01*
X101535D01*
X101466D01*
Y115673D01*
X101397D01*
Y115742D01*
X101327D01*
X101258D01*
Y115812D01*
X101188D01*
Y115881D01*
X101119D01*
Y116020D01*
X101050D01*
Y116089D01*
X100980D01*
Y116228D01*
X100911D01*
Y116367D01*
X100841D01*
Y116575D01*
X100772D01*
Y116853D01*
X100703D01*
Y117339D01*
X100633D01*
Y121851D01*
X100703D01*
D02*
G37*
G36*
Y132056D02*
Y132126D01*
X100772D01*
X100841D01*
X100911D01*
X100980D01*
X101050D01*
X101119D01*
X101188D01*
X101258D01*
X101327D01*
X101397D01*
X101466D01*
X101535D01*
X101605D01*
X101674D01*
X101744D01*
X101813D01*
Y132056D01*
X101883D01*
Y127613D01*
X101952D01*
Y127336D01*
X102022D01*
Y127197D01*
X102091D01*
Y127127D01*
X102160D01*
Y127058D01*
X102230D01*
Y126988D01*
X102299D01*
X102369D01*
Y126919D01*
X102438D01*
X102507D01*
X102577D01*
X102646D01*
Y126850D01*
X102716D01*
X102785D01*
X102855D01*
X102924D01*
X102993D01*
X103063D01*
X103132D01*
X103202D01*
Y132056D01*
X103271D01*
X103340D01*
X103410D01*
X103479D01*
X103549D01*
X103618D01*
X103688D01*
X103757D01*
X103826D01*
X103896D01*
X103965D01*
X104035D01*
X104104D01*
X104174D01*
X104243D01*
Y131987D01*
X104312D01*
Y126850D01*
X104382D01*
X104451D01*
X104521D01*
X104590D01*
X104659D01*
X104729D01*
X104798D01*
X104868D01*
Y126919D01*
X104937D01*
X105007D01*
X105076D01*
X105146D01*
Y126988D01*
X105215D01*
X105284D01*
Y127058D01*
X105354D01*
Y127127D01*
X105423D01*
Y127197D01*
X105493D01*
Y127336D01*
X105562D01*
Y127544D01*
X105631D01*
Y132056D01*
X105701D01*
Y132126D01*
X105770D01*
X105840D01*
X105909D01*
X105979D01*
X106048D01*
X106117D01*
X106187D01*
X106256D01*
X106326D01*
X106395D01*
X106465D01*
X106534D01*
X106603D01*
X106673D01*
X106742D01*
X106812D01*
Y132056D01*
X106881D01*
Y127474D01*
X106812D01*
Y127058D01*
X106742D01*
Y126780D01*
X106673D01*
Y126572D01*
X106603D01*
Y126433D01*
X106534D01*
Y126364D01*
X106465D01*
Y126225D01*
X106395D01*
Y126155D01*
X106326D01*
Y126086D01*
X106256D01*
Y126016D01*
X106187D01*
X106117D01*
Y125947D01*
X106048D01*
Y125878D01*
X105979D01*
X105909D01*
Y125808D01*
X105840D01*
X105770D01*
Y125739D01*
X105701D01*
X105631D01*
X105562D01*
Y125669D01*
X105493D01*
X105423D01*
X105354D01*
X105284D01*
X105215D01*
Y125600D01*
X105146D01*
X105076D01*
X105007D01*
X104937D01*
X104868D01*
X104798D01*
X104729D01*
X104659D01*
X104590D01*
X104521D01*
X104451D01*
X104382D01*
X104312D01*
X104243D01*
X104174D01*
X104104D01*
X104035D01*
X103965D01*
X103896D01*
X103826D01*
X103757D01*
X103688D01*
X103618D01*
X103549D01*
X103479D01*
X103410D01*
X103340D01*
X103271D01*
X103202D01*
X103132D01*
X103063D01*
X102993D01*
X102924D01*
X102855D01*
X102785D01*
X102716D01*
X102646D01*
X102577D01*
X102507D01*
X102438D01*
X102369D01*
X102299D01*
Y125669D01*
X102230D01*
X102160D01*
X102091D01*
X102022D01*
X101952D01*
Y125739D01*
X101883D01*
X101813D01*
X101744D01*
Y125808D01*
X101674D01*
X101605D01*
Y125878D01*
X101535D01*
X101466D01*
Y125947D01*
X101397D01*
Y126016D01*
X101327D01*
Y126086D01*
X101258D01*
X101188D01*
Y126225D01*
X101119D01*
Y126294D01*
X101050D01*
Y126364D01*
X100980D01*
Y126503D01*
X100911D01*
Y126641D01*
X100841D01*
Y126850D01*
X100772D01*
Y127127D01*
X100703D01*
Y127613D01*
X100633D01*
Y132056D01*
X100703D01*
D02*
G37*
G36*
Y142955D02*
Y143094D01*
X100772D01*
X100841D01*
X100911D01*
X100980D01*
X101050D01*
X101119D01*
X101188D01*
X101258D01*
X101327D01*
X101397D01*
X101466D01*
X101535D01*
X101605D01*
X101674D01*
X101744D01*
X101813D01*
Y143025D01*
X101883D01*
Y142955D01*
X101952D01*
Y140109D01*
X102022D01*
X102091D01*
X102160D01*
X102230D01*
X102299D01*
X102369D01*
X102438D01*
X102507D01*
X102577D01*
X102646D01*
X102716D01*
X102785D01*
X102855D01*
X102924D01*
X102993D01*
X103063D01*
X103132D01*
X103202D01*
X103271D01*
X103340D01*
X103410D01*
X103479D01*
X103549D01*
X103618D01*
X103688D01*
X103757D01*
X103826D01*
X103896D01*
X103965D01*
X104035D01*
X104104D01*
X104174D01*
X104243D01*
X104312D01*
X104382D01*
X104451D01*
X104521D01*
X104590D01*
X104659D01*
X104729D01*
X104798D01*
X104868D01*
X104937D01*
X105007D01*
X105076D01*
X105146D01*
X105215D01*
X105284D01*
X105354D01*
X105423D01*
X105493D01*
X105562D01*
X105631D01*
X105701D01*
X105770D01*
X105840D01*
X105909D01*
X105979D01*
X106048D01*
X106117D01*
X106187D01*
X106256D01*
X106326D01*
X106395D01*
X106465D01*
X106534D01*
X106603D01*
X106673D01*
X106742D01*
X106812D01*
Y140040D01*
X106881D01*
Y138859D01*
X106812D01*
Y138790D01*
X106742D01*
X106673D01*
X106603D01*
X106534D01*
X106465D01*
X106395D01*
X106326D01*
X106256D01*
X106187D01*
X106117D01*
X106048D01*
X105979D01*
X105909D01*
X105840D01*
X105770D01*
X105701D01*
X105631D01*
X105562D01*
X105493D01*
X105423D01*
X105354D01*
X105284D01*
X105215D01*
X105146D01*
X105076D01*
X105007D01*
X104937D01*
X104868D01*
X104798D01*
X104729D01*
X104659D01*
X104590D01*
X104521D01*
X104451D01*
X104382D01*
X104312D01*
X104243D01*
X104174D01*
X104104D01*
X104035D01*
X103965D01*
X103896D01*
X103826D01*
X103757D01*
X103688D01*
X103618D01*
X103549D01*
X103479D01*
X103410D01*
X103340D01*
X103271D01*
X103202D01*
X103132D01*
X103063D01*
X102993D01*
X102924D01*
X102855D01*
X102785D01*
X102716D01*
X102646D01*
X102577D01*
X102507D01*
X102438D01*
X102369D01*
X102299D01*
X102230D01*
X102160D01*
X102091D01*
X102022D01*
X101952D01*
Y135874D01*
X101883D01*
Y135805D01*
X101813D01*
X101744D01*
X101674D01*
X101605D01*
X101535D01*
X101466D01*
X101397D01*
X101327D01*
X101258D01*
X101188D01*
X101119D01*
X101050D01*
X100980D01*
X100911D01*
X100841D01*
X100772D01*
X100703D01*
Y135874D01*
X100633D01*
Y142955D01*
X100703D01*
D02*
G37*
D77*
X26092Y125000D02*
G03*
X26092Y125000I-492J0D01*
G01*
X69207Y39825D02*
G03*
X69207Y39825I-492J0D01*
G01*
X86706Y93426D02*
G03*
X86706Y93426I-492J0D01*
G01*
X40087Y107710D02*
G03*
X40087Y107710I-492J0D01*
G01*
X90168Y57387D02*
G03*
X90168Y57387I-492J0D01*
G01*
X77127Y127435D02*
G03*
X77127Y127435I-492J0D01*
G01*
X66279Y57724D02*
G03*
X66279Y57724I-492J0D01*
G01*
X40849Y15896D02*
G03*
X40849Y15896I-492J0D01*
G01*
X40505Y7376D02*
G03*
X40505Y7376I-492J0D01*
G01*
X39584Y114424D02*
G03*
X39584Y114424I-492J0D01*
G01*
D78*
X33582Y97126D02*
G03*
X33582Y97126I-197J0D01*
G01*
X44445Y49066D02*
G03*
X44445Y49066I-197J0D01*
G01*
X84469Y22149D02*
G03*
X84469Y22149I-197J0D01*
G01*
X102823Y81785D02*
G03*
X102823Y81785I-197J0D01*
G01*
X53254Y128409D02*
G03*
X53254Y128409I-197J0D01*
G01*
D79*
X59266Y32345D02*
X61628D01*
X63990D01*
X74214Y69257D02*
Y77426D01*
X82384D01*
X74214D02*
Y85595D01*
Y77426D02*
X82384D01*
X66045D02*
X74214D01*
Y85595D01*
Y69257D02*
Y77426D01*
X66045D02*
X74214D01*
X47075Y100623D02*
Y102985D01*
Y98261D02*
Y100623D01*
X97156Y47938D02*
Y50300D01*
Y52662D01*
X69548Y119955D02*
X71911D01*
X67186D02*
X69548D01*
X56338Y50244D02*
X58700D01*
X61062D01*
X33270Y8415D02*
X35632D01*
X30908D02*
X33270D01*
X47100Y14856D02*
X49462D01*
X44738D02*
X47100D01*
X32005Y106944D02*
X34367D01*
X29643D02*
X32005D01*
D80*
X814Y133882D02*
X26030D01*
Y11834D02*
Y133882D01*
X814Y11834D02*
X26030D01*
X538D02*
Y133882D01*
X23314Y23240D02*
Y25239D01*
Y24240D01*
X17316D01*
X18316Y23240D01*
X26901Y142700D02*
X30899D01*
X28900Y144699D02*
Y140701D01*
D81*
X106732Y22168D02*
Y19169D01*
X103733Y22168D01*
X102983D01*
X102233Y21419D01*
Y19919D01*
X102983Y19169D01*
Y23668D02*
X102233Y24418D01*
Y25917D01*
X102983Y26667D01*
X105982D01*
X106732Y25917D01*
Y24418D01*
X105982Y23668D01*
X102983D01*
X106732Y31166D02*
Y28166D01*
X103733Y31166D01*
X102983D01*
X102233Y30416D01*
Y28916D01*
X102983Y28166D01*
X106732Y32665D02*
Y34165D01*
Y33415D01*
X102233D01*
X102983Y32665D01*
X93251Y105428D02*
X96250D01*
X97749Y106927D01*
X96250Y108427D01*
X93251D01*
X97749Y112925D02*
Y109926D01*
X94750Y112925D01*
X94001D01*
X93251Y112175D01*
Y110676D01*
X94001Y109926D01*
X97749Y114425D02*
X97000D01*
Y115174D01*
X97749D01*
Y114425D01*
X94001Y118173D02*
X93251Y118923D01*
Y120423D01*
X94001Y121172D01*
X97000D01*
X97749Y120423D01*
Y118923D01*
X97000Y118173D01*
X94001D01*
D82*
X67252Y27476D02*
Y24327D01*
X66202Y25376D01*
X65153Y24327D01*
Y27476D01*
X64103Y24851D02*
X63578Y24327D01*
X62529D01*
X62004Y24851D01*
Y25376D01*
X62529Y25901D01*
X63054D01*
X62529D01*
X62004Y26426D01*
Y26951D01*
X62529Y27476D01*
X63578D01*
X64103Y26951D01*
X107274Y88024D02*
Y85925D01*
X106750D01*
X104650Y88024D01*
X104125D01*
Y85925D01*
Y82776D02*
Y84875D01*
X106225Y82776D01*
X106750D01*
X107274Y83301D01*
Y84350D01*
X106750Y84875D01*
X78874Y115723D02*
X75726Y113623D01*
X78874D02*
X75726Y115723D01*
X78874Y112574D02*
Y110475D01*
Y111524D01*
X75726D01*
Y109425D02*
X77825D01*
X78874Y108375D01*
X77825Y107325D01*
X75726D01*
X77300D01*
Y109425D01*
X78874Y106276D02*
X75726D01*
Y104176D01*
Y103127D02*
Y102077D01*
Y102602D01*
X78874D01*
X78350Y103127D01*
X23300Y102600D02*
X20151D01*
X21201Y103650D01*
X20151Y104699D01*
X23300D01*
Y107848D02*
Y105749D01*
X21201Y107848D01*
X20676D01*
X20151Y107324D01*
Y106274D01*
X20676Y105749D01*
X50180Y20798D02*
X52279D01*
Y20274D01*
X50180Y18174D01*
Y17649D01*
X52279D01*
X53329D02*
X54379D01*
X53854D01*
Y20798D01*
X53329Y20274D01*
X26052Y5518D02*
X22903D01*
X23953Y6568D01*
X22903Y7617D01*
X26052D01*
Y8667D02*
Y9717D01*
Y9192D01*
X22903D01*
X23428Y8667D01*
X84324Y17126D02*
Y20275D01*
X82750D01*
X82225Y19750D01*
Y17650D01*
X82750Y17126D01*
X84324D01*
X81175Y17650D02*
X80650Y17126D01*
X79601D01*
X79076Y17650D01*
Y18175D01*
X79601Y18700D01*
X80125D01*
X79601D01*
X79076Y19225D01*
Y19750D01*
X79601Y20275D01*
X80650D01*
X81175Y19750D01*
X51421Y52408D02*
X49321D01*
X48797Y51883D01*
Y50833D01*
X49321Y50309D01*
X51421D01*
X51946Y50833D01*
Y51883D01*
X50896Y51358D02*
X51946Y52408D01*
Y51883D02*
X51421Y52408D01*
X49321Y53458D02*
X48797Y53982D01*
Y55032D01*
X49321Y55557D01*
X49846D01*
X50371Y55032D01*
Y54507D01*
Y55032D01*
X50896Y55557D01*
X51421D01*
X51946Y55032D01*
Y53982D01*
X51421Y53458D01*
X62050Y118552D02*
X59950D01*
X59425Y118027D01*
Y116977D01*
X59950Y116452D01*
X62050D01*
X62574Y116977D01*
Y118027D01*
X61525Y117502D02*
X62574Y118552D01*
Y118027D02*
X62050Y118552D01*
X62574Y121176D02*
X59425D01*
X61000Y119601D01*
Y121701D01*
X100750Y46100D02*
X102850D01*
X103375Y46625D01*
Y47675D01*
X102850Y48199D01*
X100750D01*
X100225Y47675D01*
Y46625D01*
X101275Y47150D02*
X100225Y46100D01*
Y46625D02*
X100750Y46100D01*
X100225Y45050D02*
Y44001D01*
Y44526D01*
X103375D01*
X102850Y45050D01*
X56669Y124325D02*
Y123275D01*
Y123800D01*
X53520D01*
Y124325D01*
Y123275D01*
X56144Y119601D02*
X56669Y120126D01*
Y121176D01*
X56144Y121701D01*
X54045D01*
X53520Y121176D01*
Y120126D01*
X54045Y119601D01*
X56144Y118552D02*
X56669Y118027D01*
Y116977D01*
X56144Y116452D01*
X55619D01*
X55094Y116977D01*
Y117502D01*
Y116977D01*
X54569Y116452D01*
X54045D01*
X53520Y116977D01*
Y118027D01*
X54045Y118552D01*
X20679Y84772D02*
Y85822D01*
Y85297D01*
X23828D01*
Y84772D01*
Y85822D01*
X21204Y89496D02*
X20679Y88971D01*
Y87921D01*
X21204Y87396D01*
X23303D01*
X23828Y87921D01*
Y88971D01*
X23303Y89496D01*
X23828Y92120D02*
X20679D01*
X22253Y90545D01*
Y92645D01*
X33741Y100716D02*
X36890D01*
Y102290D01*
X36365Y102815D01*
X34266D01*
X33741Y102290D01*
Y100716D01*
X36890Y103865D02*
Y104915D01*
Y104390D01*
X33741D01*
X34266Y103865D01*
X48249Y44300D02*
Y43250D01*
Y43775D01*
X45100D01*
Y44300D01*
Y43250D01*
X47724Y39577D02*
X48249Y40101D01*
Y41151D01*
X47724Y41676D01*
X45625D01*
X45100Y41151D01*
Y40101D01*
X45625Y39577D01*
X45100Y38527D02*
Y37477D01*
Y38002D01*
X48249D01*
X47724Y38527D01*
X41249Y124400D02*
Y123350D01*
Y123875D01*
X38100D01*
Y124400D01*
Y123350D01*
X40724Y119676D02*
X41249Y120201D01*
Y121251D01*
X40724Y121776D01*
X38625D01*
X38100Y121251D01*
Y120201D01*
X38625Y119676D01*
X38100Y116527D02*
Y118627D01*
X40199Y116527D01*
X40724D01*
X41249Y117052D01*
Y118102D01*
X40724Y118627D01*
D116*
X40400Y133800D02*
Y143800D01*
X90400D01*
X40400Y133800D02*
X90400D01*
Y143800D01*
X55600Y14600D02*
X85600D01*
X55600Y4600D02*
Y14600D01*
Y4600D02*
X85600D01*
Y14600D01*
X24500Y133800D02*
Y143800D01*
X4500Y133800D02*
X24500D01*
X4500D02*
Y143800D01*
X24500D01*
%TF.MD5,220458a2f90130da7efed1000aafb522*%
M02*
